<?xml version="1.0" standalone="no"?>
<!DOCTYPE svg PUBLIC "-//W3C//DTD SVG 20010904//EN"
 "http://www.w3.org/TR/2001/REC-SVG-20010904/DTD/svg10.dtd">
<svg version="1.0" xmlns="http://www.w3.org/2000/svg"
 width="821.000000pt" height="1053.000000pt" viewBox="0 0 821.000000 1053.000000"
 preserveAspectRatio="xMidYMid meet">

<g transform="translate(0.000000,1053.000000) scale(0.100000,-0.100000)"
fill="#000000" stroke="none">
<path d="M7106 9947 c-33 -18 -83 -54 -110 -82 -28 -27 -66 -62 -84 -77 -18
-15 -46 -44 -62 -65 -16 -21 -52 -65 -79 -98 -28 -33 -75 -91 -105 -130 -65
-86 -133 -155 -151 -155 -8 0 -17 -9 -20 -20 -10 -30 -35 -39 -147 -51 -144
-16 -788 -16 -853 0 -83 20 -171 69 -243 134 -233 210 -401 340 -509 394 -60
30 -83 36 -140 36 -96 2 -146 -10 -135 -30 6 -9 3 -31 -6 -57 -8 -22 -17 -85
-20 -138 -7 -154 52 -396 145 -597 24 -52 49 -101 56 -109 8 -10 12 -55 12
-131 0 -95 4 -122 20 -151 29 -53 33 -203 6 -250 -52 -93 -83 -182 -83 -235 2
-109 15 -316 23 -352 6 -27 15 -75 20 -108 5 -33 16 -79 25 -102 9 -23 14 -46
10 -51 -3 -5 2 -19 12 -33 9 -13 31 -53 48 -89 17 -37 46 -83 63 -102 17 -20
31 -47 31 -60 0 -25 49 -90 107 -141 38 -34 34 -52 -15 -68 -149 -48 -374
-189 -462 -289 -81 -93 -72 -90 21 6 45 46 91 84 101 84 10 0 58 27 106 60 90
61 185 106 237 112 37 4 58 -31 51 -86 -4 -31 -15 -50 -52 -85 -74 -72 -183
-226 -231 -327 -46 -97 -86 -204 -79 -211 2 -3 9 13 16 34 7 21 38 92 70 158
62 129 141 242 223 318 l52 48 3 -41 c3 -35 -9 -63 -73 -188 -100 -192 -161
-328 -191 -427 -34 -115 -29 -115 15 0 52 137 174 375 187 363 1 -2 -6 -44
-17 -93 -35 -162 -48 -301 -38 -405 10 -98 5 -160 -11 -160 -6 0 -10 -13 -10
-30 0 -66 -83 -120 -184 -120 -35 0 -66 -11 -133 -45 -48 -25 -97 -54 -108
-65 -12 -11 -25 -20 -29 -20 -15 0 -281 -182 -279 -191 2 -5 -2 -9 -7 -9 -6 0
-22 -7 -36 -16 -19 -13 -22 -20 -13 -30 18 -22 -19 -59 -105 -106 -43 -24 -88
-52 -100 -64 -12 -11 -37 -31 -56 -44 -19 -14 -73 -59 -120 -100 -47 -42 -107
-91 -135 -110 -27 -18 -69 -51 -93 -72 -23 -21 -56 -41 -72 -45 -29 -5 -42
-23 -17 -23 6 0 3 -6 -8 -12 -40 -22 -55 -40 -45 -53 7 -9 -9 -34 -57 -91 -38
-44 -88 -106 -113 -139 -24 -33 -75 -98 -113 -145 -38 -47 -74 -96 -79 -110
-5 -14 -32 -58 -59 -98 -48 -68 -112 -228 -134 -332 -4 -19 -16 -53 -27 -74
-11 -21 -24 -69 -29 -105 -5 -36 -16 -88 -24 -116 -8 -27 -17 -63 -20 -78 -3
-15 -10 -25 -15 -22 -12 7 -21 -16 -45 -110 -10 -38 -27 -101 -38 -140 -25
-90 -28 -295 -8 -737 13 -288 13 -329 -1 -434 -14 -101 -21 -121 -46 -153 -16
-20 -34 -36 -41 -36 -6 0 -19 -14 -29 -30 -14 -22 -38 -37 -89 -58 -83 -32
-97 -33 -145 -8 -20 10 -54 21 -75 25 -21 3 -51 8 -66 11 -35 7 -121 51 -138
71 -6 8 -29 14 -54 14 -67 0 -148 18 -175 40 -69 55 -132 94 -278 173 -97 52
-187 132 -230 207 -15 25 -66 102 -113 171 -48 69 -90 136 -93 147 -4 12 -40
55 -80 94 -40 40 -87 93 -103 118 -17 25 -70 84 -117 133 -47 48 -86 92 -86
97 0 6 -7 10 -16 10 -9 0 -28 8 -42 18 -39 26 -79 40 -147 51 -82 13 -175 -17
-223 -71 -19 -20 -42 -40 -53 -43 -10 -4 -19 -13 -19 -21 0 -8 -12 -37 -26
-65 -34 -69 -40 -129 -20 -230 18 -87 50 -148 122 -230 18 -20 35 -47 39 -60
5 -13 18 -38 31 -55 13 -17 24 -36 24 -42 0 -6 14 -27 30 -46 35 -39 90 -138
90 -161 0 -8 5 -15 10 -15 17 0 92 -123 86 -143 -3 -11 5 -24 21 -34 15 -10
23 -23 20 -34 -3 -11 12 -35 39 -66 24 -26 59 -77 78 -113 19 -36 51 -90 70
-120 19 -30 32 -58 30 -61 -2 -4 -28 -6 -57 -3 -28 2 -126 8 -217 14 -149 10
-351 31 -422 46 -23 5 -28 2 -28 -13 0 -17 13 -21 108 -32 119 -13 299 -26
499 -36 l132 -7 27 -35 26 -35 -138 7 c-257 11 -431 25 -543 44 -105 17 -111
17 -111 0 0 -11 10 -19 28 -23 92 -19 277 -36 477 -46 286 -13 303 -15 355
-50 60 -40 152 -132 142 -142 -8 -8 -835 6 -862 15 -8 3 -43 8 -77 12 -61 6
-63 5 -63 -18 0 -23 3 -24 142 -35 79 -7 229 -13 333 -13 105 0 273 -4 375 -8
201 -8 242 -18 260 -66 5 -14 18 -25 28 -25 10 0 27 -6 37 -14 18 -13 16 -15
-25 -20 -25 -3 -103 -7 -175 -10 -71 -3 -209 -10 -305 -16 -165 -11 -327 -7
-607 16 -35 2 -63 0 -63 -4 0 -12 50 -22 114 -22 28 0 109 -7 181 -15 100 -10
233 -12 580 -8 l450 6 75 -26 c41 -14 109 -30 150 -37 41 -6 85 -16 98 -21 47
-19 118 -26 867 -89 180 -15 346 -39 415 -59 71 -21 192 -46 423 -86 155 -27
248 -63 286 -111 42 -53 301 -95 586 -95 268 1 503 -14 523 -32 10 -8 35 -17
57 -20 133 -20 176 -28 201 -38 44 -18 559 -25 635 -9 32 7 65 18 73 24 17 13
24 130 12 184 l-8 33 47 -3 47 -3 38 -95 c21 -52 43 -96 49 -98 7 -2 16 -15
22 -29 6 -16 29 -33 71 -52 96 -43 212 -63 398 -68 158 -5 170 -4 280 24 91
23 126 38 165 67 74 55 82 63 87 76 3 11 28 11 129 1 158 -16 213 -17 324 -4
50 5 97 7 105 3 8 -4 62 -10 120 -12 81 -4 95 -3 60 4 -25 6 -49 14 -54 18
-11 11 30 110 53 127 9 7 47 12 91 13 79 0 333 -16 413 -26 37 -5 47 -3 47 9
0 18 -26 22 -220 37 -80 7 -178 15 -219 18 l-74 7 2 95 c1 53 -3 117 -9 144
-6 27 -8 51 -6 54 5 4 326 -12 459 -24 64 -6 67 -6 67 15 0 11 -6 21 -12 21
-7 0 -92 7 -188 15 -96 8 -214 15 -262 15 l-88 0 -64 64 c-69 70 -67 69 -211
83 -66 7 -80 11 -83 26 -2 11 -15 35 -28 54 -13 20 -24 45 -24 56 0 19 5 19
123 13 223 -13 688 -43 780 -52 52 -5 57 -3 57 15 0 17 -9 20 -62 25 -61 6
-361 24 -733 46 -159 10 -182 13 -197 31 -19 22 -29 99 -31 246 -1 57 -5 103
-8 103 -10 0 -25 198 -24 310 1 58 7 130 13 160 11 55 40 276 49 380 2 30 8
72 13 93 4 21 6 45 4 55 -3 9 2 39 10 65 8 27 12 55 9 63 -3 7 2 37 10 66 8
29 15 62 15 73 0 11 5 38 11 60 7 22 13 49 15 61 2 11 6 26 10 33 4 6 7 30 8
54 0 23 5 48 10 54 6 8 7 13 1 13 -6 0 -9 45 -8 108 1 107 14 174 44 221 16
25 33 171 31 271 0 30 4 64 9 75 5 11 17 49 26 85 10 36 24 77 31 92 8 15 14
37 14 50 1 13 7 34 15 48 l14 25 1 -23 c0 -14 5 -22 13 -20 7 3 14 30 17 69 4
42 15 82 33 116 14 28 45 122 67 210 31 117 53 180 87 243 47 89 83 194 83
245 0 17 6 40 14 51 12 16 13 30 4 65 -5 25 -7 78 -3 124 3 44 6 87 6 95 -10
233 -8 454 5 513 14 61 14 74 -1 140 -13 57 -15 97 -10 192 10 167 -1 215 -85
382 -56 112 -72 153 -78 206 -5 43 -14 72 -25 80 -9 6 -34 59 -57 116 -22 57
-49 120 -60 140 -37 70 -70 148 -70 164 0 26 27 119 49 170 12 27 21 58 21 70
0 11 7 28 15 37 10 11 16 49 19 127 3 62 10 121 16 133 6 11 9 24 7 28 -3 4 0
18 5 32 22 56 29 361 10 396 -12 23 -34 237 -32 319 0 28 5 76 11 107 8 46 7
63 -5 85 -14 29 -9 164 13 343 14 110 13 282 -3 385 -22 136 -45 228 -65 250
-10 11 -31 41 -46 67 -24 43 -80 96 -90 87 -2 -2 21 -44 51 -93 91 -150 119
-249 130 -456 7 -139 -6 -256 -37 -330 -27 -65 -38 -152 -26 -213 11 -60 4
-167 -15 -214 -9 -25 -9 -42 0 -80 6 -26 14 -79 17 -117 6 -70 27 -166 45
-198 13 -24 12 -40 -4 -74 -8 -16 -17 -51 -20 -79 -6 -55 -18 -96 -38 -137
-15 -32 -23 -35 -36 -12 -8 15 -35 33 -79 53 -27 13 -44 37 -18 27 15 -5 16
-4 5 9 -7 8 -16 12 -21 9 -5 -3 -9 2 -9 11 0 12 -5 15 -16 11 -12 -4 -37 15
-86 66 -95 99 -73 54 27 -57 45 -49 90 -105 99 -123 24 -46 86 -102 113 -102
26 0 30 -23 11 -65 -9 -19 -19 -25 -43 -25 -72 0 -89 14 -144 124 -97 193
-181 251 -388 270 -49 4 -63 3 -63 -8 0 -24 29 -38 110 -52 126 -22 172 -59
210 -169 20 -59 125 -203 171 -236 23 -16 41 -20 80 -17 l51 3 -6 -40 c-12
-93 -24 -143 -45 -188 -13 -26 -27 -50 -32 -53 -5 -2 -13 -22 -19 -42 -6 -20
-23 -51 -38 -68 l-27 -32 -75 24 c-122 39 -258 65 -370 71 -139 7 -121 -9 35
-31 66 -10 136 -21 155 -26 46 -11 212 -69 219 -76 8 -8 -21 -24 -46 -24 -15
0 -21 -5 -17 -14 4 -10 -15 -24 -63 -47 -37 -18 -74 -38 -81 -45 -21 -22 -93
-37 -147 -31 -41 4 -45 3 -22 -5 15 -5 27 -13 27 -17 0 -17 -56 -36 -106 -36
-28 0 -50 -3 -48 -6 6 -10 -40 -16 -61 -9 -11 4 -25 1 -33 -6 -18 -18 -90 -37
-116 -30 -32 9 -48 25 -106 108 -29 43 -56 76 -58 73 -3 -3 2 -13 11 -23 10
-10 17 -23 17 -29 0 -5 9 -18 20 -28 11 -10 20 -23 20 -28 0 -6 6 -18 14 -26
8 -9 18 -28 21 -43 6 -24 4 -28 -15 -28 -13 0 -29 8 -36 18 -13 16 -13 16 -14
0 0 -11 -5 -15 -14 -12 -8 3 -19 -3 -26 -15 -6 -12 -16 -21 -23 -21 -7 0 -25
-7 -41 -15 -16 -9 -31 -13 -34 -10 -3 3 -11 0 -19 -6 -7 -7 -28 -13 -46 -15
-17 -2 -41 -8 -52 -13 -57 -25 -160 -45 -238 -47 -85 -2 -91 -1 -145 32 -32
19 -60 34 -64 34 -4 0 -19 11 -33 24 -14 13 -45 29 -70 35 -24 6 -47 15 -50
21 -9 15 -64 37 -140 55 -38 10 -83 24 -99 32 l-29 15 23 18 c18 13 34 16 64
12 23 -3 56 -5 74 -5 25 1 32 -2 32 -18 0 -25 16 -25 23 1 4 16 14 20 50 20
28 0 88 16 158 41 98 36 115 40 133 28 33 -20 65 -36 156 -76 71 -31 99 -38
168 -41 113 -5 136 14 86 73 l-25 30 7 -37 6 -38 -42 0 c-62 0 -213 63 -292
121 -91 68 -95 80 -45 154 17 27 39 60 47 73 8 13 35 35 60 49 53 29 110 81
110 100 0 17 -10 16 -34 -2 -16 -12 -22 -12 -45 5 -14 10 -49 23 -77 30 -49
11 -82 9 -258 -16 l-49 -7 6 70 c4 38 12 84 18 101 6 17 9 37 6 44 -6 16 -57
-89 -57 -118 0 -11 -7 -29 -15 -40 -15 -20 -20 -60 -7 -66 4 -1 15 -19 25 -39
19 -38 62 -69 95 -69 15 0 21 -9 26 -35 4 -19 23 -58 43 -87 34 -51 59 -133
42 -144 -4 -2 -10 0 -14 5 -3 6 -39 -6 -83 -27 -72 -35 -82 -37 -162 -35 -134
4 -189 10 -202 20 -27 21 -61 22 -87 2 -73 -56 -188 -132 -200 -133 -25 -2
-33 65 -12 94 20 27 113 67 179 77 42 6 60 17 44 27 -8 5 -161 -45 -199 -65
-19 -10 -26 -9 -43 6 -11 10 -22 27 -26 39 -4 11 -20 40 -35 63 -16 23 -25 44
-20 47 13 8 192 36 233 36 20 0 40 5 44 12 7 11 -22 10 -228 -9 -59 -5 -68 -4
-68 11 0 11 -9 16 -29 16 -19 0 -34 8 -45 25 -9 13 -16 27 -16 29 0 3 25 33
55 67 30 34 55 65 55 69 0 13 51 30 91 30 36 0 38 1 27 20 -15 23 -89 37 -121
23 -12 -6 -42 -27 -65 -47 -61 -50 -88 -48 -112 8 -10 25 -23 69 -29 99 -5 30
-19 82 -31 116 l-20 61 32 49 c18 27 45 70 60 96 24 40 38 50 121 89 110 51
126 66 69 66 -93 0 -186 -49 -242 -126 -20 -28 -36 -42 -42 -36 -5 5 -10 77
-11 159 l-2 151 43 50 c27 33 42 60 42 78 0 15 5 56 11 92 l11 64 -41 79 c-49
94 -52 134 -15 196 l26 44 -22 6 c-43 11 -160 284 -210 493 -42 177 -46 302
-12 372 28 57 67 74 145 64 95 -13 196 -74 358 -218 118 -104 212 -184 301
-254 43 -34 111 -93 153 -132 71 -66 75 -72 75 -113 0 -48 18 -43 23 6 2 17 6
37 9 45 3 8 9 29 14 45 12 39 47 45 81 13 32 -30 27 -56 -27 -139 -22 -34 -40
-66 -40 -71 0 -5 -16 -31 -35 -59 -25 -37 -35 -62 -34 -88 0 -33 1 -34 11 -13
15 31 25 28 20 -7 -2 -16 1 -32 6 -35 16 -10 81 81 92 128 6 23 21 82 35 131
13 50 27 105 30 122 4 18 11 36 17 39 8 5 9 -3 3 -27 -5 -19 -8 -62 -7 -95 1
-34 -4 -104 -11 -155 -14 -93 -13 -117 11 -279 5 -36 7 -98 5 -137 -4 -45 -2
-73 4 -73 17 0 42 71 53 145 5 39 14 86 20 105 17 58 10 79 -9 26 -18 -52 -31
-46 -31 13 0 15 -7 52 -15 83 -13 50 -13 62 1 110 9 29 19 57 21 62 12 19 26
-32 24 -88 -2 -82 11 -100 33 -47 18 47 21 122 5 138 -14 14 8 58 46 93 15 14
33 37 41 52 21 40 52 57 125 67 35 5 65 7 67 6 2 -2 -8 -9 -22 -17 -47 -25
-121 -71 -154 -95 -40 -30 -50 -54 -62 -151 -6 -41 -13 -80 -18 -86 -17 -24
-33 -87 -27 -106 9 -29 21 -17 40 43 10 28 30 72 45 97 16 25 36 71 45 102 20
69 40 89 32 32 -3 -22 -10 -61 -17 -89 -6 -27 -18 -82 -26 -120 -8 -39 -37
-122 -64 -185 -49 -113 -61 -177 -41 -208 6 -10 16 -1 35 33 14 26 26 55 26
65 0 18 47 138 60 155 25 31 62 147 64 203 2 40 9 69 20 80 9 10 16 33 16 51
0 40 59 139 100 170 34 24 41 14 10 -14 -23 -21 -31 -50 -55 -191 -16 -94 -16
-104 -1 -157 17 -60 46 -80 46 -32 0 14 6 25 14 25 17 0 28 143 17 215 -6 35
-4 61 6 89 19 55 37 72 94 91 76 25 91 4 37 -52 -18 -18 -28 -33 -22 -34 5 0
17 -2 26 -4 28 -5 230 205 356 373 190 253 321 385 438 442 45 22 153 27 201
10 l28 -11 -30 25 c-18 15 -49 27 -80 31 -27 3 -59 8 -70 10 -11 2 -47 -10
-79 -28z m-1218 -792 c2 -14 -16 -36 -58 -74 -34 -29 -63 -52 -65 -50 -9 10
13 132 26 140 8 5 32 8 54 7 31 -2 41 -7 43 -23z m54 -1677 l21 -21 -47 -24
c-46 -23 -47 -25 -44 -65 3 -53 -17 -62 -36 -16 l-14 33 -11 -28 c-6 -16 -11
-35 -11 -43 0 -30 -20 -12 -41 37 -19 43 -30 54 -66 70 -24 10 -43 22 -43 27
0 29 81 49 203 51 56 1 70 -2 89 -21z m1424 -340 c4 -6 9 -33 11 -60 3 -39 -1
-59 -21 -95 -15 -25 -26 -53 -26 -62 0 -9 -14 -45 -30 -81 -16 -36 -27 -67
-24 -69 6 -7 44 31 39 39 -3 4 11 34 30 66 20 32 45 89 56 126 11 38 24 68 29
68 12 0 62 -110 62 -138 0 -12 9 -27 19 -33 15 -7 17 -14 10 -27 -6 -11 -5
-20 7 -28 8 -6 16 -22 17 -35 2 -23 18 -71 37 -114 5 -11 8 -29 6 -40 -1 -11
2 -42 6 -68 5 -30 4 -69 -2 -103 -8 -36 -8 -63 -2 -80 7 -18 5 -39 -9 -79 -10
-29 -17 -56 -14 -59 3 -3 1 -18 -5 -33 -5 -15 -14 -37 -18 -48 -4 -11 -6 -26
-5 -32 1 -7 -3 -13 -8 -13 -6 0 -17 -15 -26 -32 -8 -18 -28 -42 -45 -53 -16
-11 -30 -28 -30 -37 0 -10 -5 -18 -11 -18 -6 0 -8 -7 -5 -16 8 -20 -20 -43
-51 -44 -16 0 -21 -4 -16 -16 4 -11 -7 -27 -32 -50 -21 -19 -43 -34 -48 -34
-6 0 -25 -11 -43 -25 -18 -14 -38 -25 -44 -25 -7 0 -10 -6 -7 -14 3 -8 -4 -25
-17 -39 -17 -19 -27 -22 -40 -15 -11 6 -21 6 -30 -1 -7 -6 -16 -8 -20 -4 -4 4
-9 -2 -12 -14 -4 -13 -12 -19 -19 -17 -18 7 -86 -38 -81 -53 5 -13 -25 -43
-43 -43 -6 0 -23 7 -37 16 -21 14 -29 15 -49 4 -19 -10 -27 -10 -39 -1 -11 10
-17 8 -30 -11 -9 -12 -16 -29 -16 -37 0 -8 -3 -11 -7 -8 -3 4 -12 2 -19 -4
-16 -13 -97 -16 -101 -4 -2 6 -8 17 -13 25 -8 13 -11 12 -24 -5 -10 -13 -15
-15 -16 -6 0 7 -6 11 -14 8 -8 -3 -24 5 -36 18 -12 13 -28 21 -36 18 -13 -5
-45 22 -77 67 l-18 25 7 -40 c4 -22 7 -68 8 -102 1 -34 4 -64 6 -66 10 -9 90
-15 90 -6 0 4 16 -2 34 -15 31 -21 43 -23 108 -19 45 3 85 12 106 24 30 17 38
17 105 5 75 -15 117 -16 117 -5 0 4 15 10 34 13 19 4 37 13 40 21 3 8 15 15
26 15 11 0 20 4 20 10 0 5 6 7 14 4 7 -3 16 2 20 11 3 9 11 13 17 10 6 -4 13
2 16 14 3 12 13 21 22 21 22 1 43 19 61 53 12 24 19 28 42 23 15 -3 28 -1 28
4 0 6 7 10 16 10 10 0 14 6 10 15 -3 8 -1 15 5 15 13 0 69 55 69 68 0 5 7 12
15 16 8 3 15 12 15 19 0 8 11 19 24 25 13 6 30 24 37 41 10 22 19 29 31 26 18
-7 34 10 18 20 -17 10 -11 23 14 29 23 6 34 25 41 74 2 12 14 31 26 41 19 15
24 35 34 123 8 64 9 139 5 189 -11 125 -1 136 42 46 58 -118 70 -180 70 -358
1 -86 -2 -161 -6 -167 -3 -6 -2 -13 4 -17 12 -8 6 -104 -8 -131 -6 -11 -10
-30 -11 -44 -1 -47 -7 -75 -18 -96 -7 -12 -10 -24 -7 -26 8 -9 -19 -61 -43
-84 -13 -12 -23 -26 -23 -32 0 -5 -7 -12 -15 -16 -8 -3 -15 -11 -15 -19 0 -7
-19 -33 -42 -57 -24 -25 -42 -48 -41 -51 3 -10 -85 -99 -98 -99 -5 0 -25 -15
-43 -33 -18 -18 -38 -31 -44 -29 -7 2 -12 -7 -12 -22 0 -34 23 -34 62 -1 16
14 35 25 42 25 24 0 176 128 176 148 0 5 13 22 30 38 16 16 30 32 30 37 0 4 7
15 15 25 9 9 27 31 41 47 l25 30 -5 -30 c-3 -16 -8 -61 -12 -100 -6 -71 -27
-131 -53 -151 -12 -10 -10 -14 13 -29 20 -14 24 -20 14 -27 -10 -6 -11 -10 0
-16 15 -10 -12 -38 -43 -44 -11 -2 -20 -8 -20 -13 -1 -6 -7 -21 -14 -34 -13
-23 -13 -24 23 -17 29 6 38 4 43 -10 3 -9 2 -24 -4 -33 -6 -9 -14 -32 -18 -51
-4 -19 -11 -40 -16 -45 -4 -6 -10 -26 -12 -45 -2 -19 -9 -46 -17 -60 -7 -14
-15 -35 -16 -46 -4 -32 -102 -229 -125 -250 -10 -9 -19 -25 -19 -36 0 -11 -7
-18 -20 -18 -24 0 -25 -6 -5 -27 14 -14 14 -18 0 -39 -8 -13 -15 -39 -15 -57
0 -22 -11 -49 -31 -76 -26 -37 -30 -48 -24 -82 6 -32 4 -39 -10 -39 -12 0 -15
-5 -10 -20 4 -12 2 -20 -5 -20 -7 0 -10 -7 -6 -15 8 -21 -3 -45 -20 -45 -10 0
-14 -13 -14 -45 0 -25 -4 -45 -8 -45 -5 0 -8 -22 -8 -48 1 -28 -5 -56 -13 -65
-18 -23 -54 -21 -76 3 -18 20 -95 30 -95 12 0 -4 -18 -6 -40 -4 -30 3 -40 1
-40 -11 0 -19 -35 -28 -65 -17 -29 11 -82 -1 -149 -34 -37 -18 -80 -54 -137
-116 -46 -49 -102 -104 -125 -121 -36 -27 -44 -41 -63 -104 -11 -40 -21 -76
-21 -79 0 -19 32 5 123 92 56 54 120 109 142 122 41 25 43 27 84 60 27 22 19
21 161 25 58 2 118 8 133 14 16 6 42 11 59 11 17 0 36 7 43 17 11 15 15 14 38
-9 24 -24 25 -29 15 -65 -5 -21 -15 -44 -20 -50 -6 -7 -8 -20 -4 -28 3 -9 2
-23 -3 -33 -5 -9 -14 -30 -21 -47 -7 -16 -16 -38 -21 -47 -6 -11 -5 -35 1 -60
5 -24 10 -55 10 -70 0 -24 -4 -28 -30 -28 -17 0 -39 5 -49 12 -15 9 -34 9 -83
0 -35 -7 -92 -12 -128 -12 -79 1 -154 -5 -169 -14 -6 -4 -16 -4 -22 0 -6 3
-14 3 -18 -2 -3 -5 -35 -24 -71 -43 -36 -18 -72 -40 -81 -47 -8 -8 -19 -14
-23 -14 -4 0 -22 -11 -39 -24 -18 -13 -51 -33 -75 -44 l-42 -20 -14 20 c-14
20 -15 19 -30 -9 -8 -16 -21 -35 -29 -41 -12 -10 -16 -7 -21 20 -5 24 -9 29
-18 20 -24 -24 -38 -13 -38 31 0 59 -9 87 -26 80 -9 -3 -14 2 -15 18 0 13 -6
40 -13 59 l-13 35 -7 -50 c-24 -181 -34 -225 -56 -225 -14 0 -19 26 -44 210
-12 94 -27 175 -33 178 -5 4 -16 30 -22 57 -17 68 -26 84 -100 160 -39 40 -76
68 -93 72 -15 3 -28 9 -28 14 0 5 -5 9 -11 9 -19 0 -81 48 -93 72 -16 32 -84
35 -181 9 -41 -12 -98 -23 -127 -27 -52 -5 -54 -5 -75 28 -13 19 -23 42 -23
51 0 9 -6 17 -14 17 -9 0 -16 12 -18 27 -2 23 -9 29 -40 34 -20 3 -44 11 -52
19 -13 10 -19 10 -31 0 -12 -10 -15 -37 -15 -120 0 -113 -28 -273 -56 -318 -8
-12 -39 -39 -69 -59 -53 -35 -56 -35 -75 -18 -22 20 -60 94 -60 117 0 9 16 31
35 49 19 19 37 49 41 67 6 31 6 32 -23 26 -52 -10 -83 42 -83 143 0 19 -7 36
-16 41 -10 6 -14 14 -9 22 6 10 10 9 16 -3 15 -27 80 3 102 47 9 20 21 36 25
36 4 0 6 -42 4 -94 -4 -92 -4 -95 29 -150 20 -32 40 -55 49 -53 27 4 41 84 30
165 -15 109 -5 170 39 234 24 33 48 56 67 62 55 17 119 49 165 83 53 38 61 40
57 16 -2 -12 5 -19 21 -21 13 -2 31 -10 38 -18 10 -9 38 -14 87 -14 40 0 76
-3 79 -7 4 -3 34 -7 67 -8 49 -2 66 -7 88 -27 15 -14 65 -52 112 -86 47 -33
96 -77 110 -98 30 -45 38 -29 14 31 -19 51 -62 93 -132 130 -26 13 -60 36 -77
50 l-30 26 28 -7 c24 -6 27 -4 27 22 0 30 -25 64 -47 64 -7 0 -13 5 -13 11 0
5 -5 7 -11 4 -5 -4 -19 1 -31 12 -24 21 -83 22 -223 3 -98 -13 -130 -14 -217
-4 -40 4 -58 10 -58 20 0 8 -2 14 -4 14 -16 0 -98 -44 -120 -65 -36 -34 -46
-32 -46 10 0 33 -2 35 -21 25 -33 -18 -51 -74 -44 -134 12 -92 -32 -194 -79
-181 -86 24 -104 78 -51 150 28 38 38 70 30 95 -5 17 -12 20 -40 14 -31 -6
-35 -4 -40 22 -3 16 -15 63 -26 104 -11 41 -24 100 -28 132 -5 31 -12 62 -16
68 -12 19 -15 339 -4 346 6 3 8 -11 5 -36 -6 -48 14 -52 26 -4 4 16 12 50 19
75 7 26 9 55 5 65 -6 16 -12 10 -33 -31 -23 -43 -27 -47 -34 -30 -16 43 -10
76 21 105 42 39 53 135 15 128 -8 -2 -15 -1 -16 2 -1 3 1 50 4 106 7 101 36
211 60 226 20 13 30 9 22 -9 -9 -20 -16 -258 -8 -285 2 -10 10 -15 19 -11 11
4 14 -7 14 -56 0 -46 3 -61 14 -61 21 0 25 -42 5 -65 -16 -20 -87 -183 -96
-221 -8 -36 15 -37 31 -2 7 18 37 81 65 139 44 93 49 110 41 138 -5 18 -14 38
-19 45 -26 31 -11 583 17 632 11 19 14 4 27 -131 7 -73 33 -161 51 -176 11 -9
14 -7 14 9 0 11 -5 33 -10 47 -11 30 -28 143 -36 245 l-5 65 43 -62 c95 -137
197 -247 214 -230 3 3 -19 36 -49 74 -127 158 -206 324 -215 449 -2 39 0 79 5
88 8 15 13 13 35 -16 14 -19 27 -42 29 -53 5 -24 49 -34 49 -11 0 8 -9 20 -20
26 -11 6 -19 14 -18 18 3 13 -22 62 -31 62 -16 0 -23 37 -23 128 -1 100 11
210 23 218 8 5 11 -6 44 -136 9 -36 29 -85 44 -110 14 -25 35 -64 45 -87 11
-24 22 -43 26 -43 9 0 89 -104 119 -155 26 -44 62 -80 113 -116 44 -31 142
-110 148 -120 3 -4 19 -11 35 -15 17 -4 41 -15 55 -24 29 -19 105 -55 137 -64
11 -4 27 -13 33 -21 7 -9 29 -15 51 -15 29 0 39 -4 39 -16 0 -13 7 -15 35 -11
19 3 35 2 35 -2 0 -11 103 -61 132 -65 13 -1 30 -5 38 -9 15 -6 71 -14 164
-23 27 -3 58 -10 68 -15 27 -15 36 -4 31 38 -7 53 -26 70 -86 77 -70 9 -81 11
-92 18 -6 3 -25 6 -43 6 -18 0 -39 5 -46 11 -7 6 -16 8 -20 3 -4 -4 -12 1 -17
10 -7 12 -18 15 -49 11 -26 -4 -40 -2 -40 6 0 6 -7 11 -15 11 -8 0 -15 5 -15
10 0 7 -6 7 -19 0 -16 -8 -21 -6 -26 9 -3 10 -20 31 -37 46 -26 23 -34 26 -49
16 -26 -16 -29 -14 -29 15 0 20 -4 24 -19 19 -10 -3 -24 1 -31 10 -7 8 -22 15
-34 15 -12 0 -28 9 -36 20 -11 16 -22 19 -42 14 -31 -6 -38 11 -15 35 10 11 3
12 -37 6 l-49 -7 16 26 c22 32 21 36 -2 36 -11 0 -21 4 -23 10 -1 5 -16 11
-33 14 -16 2 -39 7 -50 11 -31 13 -130 78 -134 90 -2 5 -26 31 -53 57 -26 26
-48 50 -48 53 0 4 -18 23 -39 43 -44 41 -91 128 -115 212 -28 98 -26 320 3
320 4 0 12 -5 19 -12 9 -9 12 -9 12 3 0 8 -5 20 -11 26 -19 19 28 85 101 143
91 73 90 72 138 44 42 -25 50 -38 32 -49 -5 -3 -10 -16 -10 -29 0 -12 -5 -27
-12 -34 -8 -8 -8 -12 -1 -12 6 0 16 7 23 16 24 27 47 35 77 23 34 -13 43 -25
43 -64 l1 -30 23 29 c23 27 25 28 55 15 32 -14 38 -24 21 -34 -18 -11 -11 -25
13 -25 17 0 19 -2 7 -10 -26 -16 0 -24 36 -11 30 11 38 11 45 0 4 -7 5 -17 3
-21 -3 -4 1 -8 9 -8 8 0 31 -11 51 -25 20 -14 45 -25 56 -25 10 0 22 -5 26
-11 7 -12 93 -5 149 11 38 11 143 33 170 35 11 1 31 7 45 13 14 6 51 18 83 28
31 9 57 20 57 25 0 10 41 6 60 -6 8 -5 15 -4 18 3 2 6 10 8 18 5 7 -3 17 2 20
11 8 20 50 21 58 1 10 -28 28 -16 24 15 -3 20 0 30 8 30 21 0 70 -47 104 -100
18 -28 34 -50 36 -50 9 0 -26 71 -60 120 -23 34 -33 57 -27 63 10 10 74 5 102
-7 12 -5 15 -1 15 15 -2 38 25 45 93 22 56 -18 60 -18 45 -2 -21 24 -13 34 39
49 31 8 55 9 79 2 29 -8 35 -7 34 5 0 7 28 30 64 49 36 20 109 69 163 110 96
71 137 88 153 62z m-2058 -90 c-5 -13 -29 -33 -191 -154 -48 -36 -77 -39 -77
-9 0 17 29 48 74 80 15 11 33 25 40 30 49 43 163 82 154 53z m-591 -1374 c3
-8 -6 -37 -21 -63 -15 -28 -26 -65 -26 -85 0 -21 -10 -60 -21 -87 -12 -27 -19
-52 -16 -55 3 -3 -6 -32 -19 -66 -26 -62 -46 -202 -27 -183 6 6 23 48 39 95
15 47 30 77 32 67 2 -10 0 -31 -4 -45 -4 -15 -6 -31 -5 -35 1 -5 -3 -45 -9
-90 -14 -106 -12 -303 5 -340 7 -17 4 -48 -11 -124 -5 -26 -3 -33 9 -33 24 0
22 -121 -4 -189 -11 -29 -17 -56 -14 -59 3 -3 18 3 33 14 47 35 47 34 47 -9 0
-66 15 -357 21 -407 3 -25 1 -64 -4 -88 -6 -26 -6 -44 -1 -48 5 -3 7 -21 3
-40 -5 -27 -3 -33 7 -29 11 4 13 -8 11 -61 -3 -48 0 -70 11 -82 9 -9 29 -51
45 -92 30 -77 168 -377 182 -395 21 -28 150 -290 150 -304 0 -9 16 -49 35 -90
19 -40 49 -112 65 -159 17 -47 44 -109 60 -137 15 -27 35 -68 43 -90 9 -22 26
-69 40 -105 14 -36 27 -95 31 -132 7 -78 24 -129 40 -126 64 12 111 -115 71
-192 -9 -17 -20 -30 -25 -30 -6 0 -28 18 -49 39 -28 28 -42 52 -46 78 -14 96
-27 143 -37 137 -18 -12 1 -211 29 -294 22 -66 24 -80 14 -118 -6 -23 -11 -53
-11 -67 0 -14 -5 -24 -12 -22 -7 1 -14 -9 -16 -21 -3 -21 -7 -23 -38 -18 -27
6 -34 4 -34 -9 0 -8 -6 -15 -12 -15 -7 0 -21 -19 -31 -43 -29 -66 -51 -112
-57 -117 -3 -3 -20 -34 -39 -70 -19 -36 -40 -69 -48 -73 -8 -5 -11 -16 -8 -28
9 -28 -10 -23 -39 11 -14 18 -28 49 -32 78 -4 26 -13 56 -20 67 -7 11 -36 74
-64 140 -28 66 -53 122 -56 125 -3 2 -4 -22 -3 -55 2 -50 12 -79 61 -178 60
-121 86 -202 74 -232 -5 -14 -17 -16 -75 -13 -58 4 -70 1 -80 -14 -6 -10 -18
-18 -26 -18 -8 0 -15 -4 -15 -10 0 -5 -7 -10 -15 -10 -7 0 -18 -8 -24 -18 -11
-19 -9 -23 -35 63 l-16 50 5 -42 c3 -24 8 -61 11 -83 4 -25 3 -40 -4 -40 -6 0
-13 19 -17 43 -4 23 -14 67 -23 97 -13 43 -17 50 -20 29 -2 -14 2 -45 8 -70
27 -102 26 -102 -27 -120 -26 -9 -55 -19 -64 -23 -13 -6 -18 1 -23 33 -7 47
-24 61 -43 36 -12 -17 -13 -16 -13 16 0 19 -4 41 -10 49 -7 12 -11 10 -18 -10
-12 -31 -4 -90 15 -111 11 -13 13 -40 8 -130 -4 -63 -9 -122 -11 -131 -11 -37
-22 -15 -32 67 -11 83 -36 149 -66 174 -25 21 -19 31 14 25 25 -6 30 -3 30 13
0 11 -9 32 -20 46 -11 14 -20 32 -20 41 0 19 -16 22 -22 4 -2 -6 -10 -8 -16
-4 -7 4 -12 32 -12 71 0 93 -14 115 -20 32 l-5 -68 -59 31 c-33 16 -67 30 -77
30 -9 0 -20 7 -23 16 -4 9 -9 14 -13 11 -3 -4 -12 -2 -19 4 -9 7 -24 7 -50 0
-34 -9 -45 -7 -101 20 -78 38 -96 55 -87 83 6 20 5 20 -12 4 -16 -16 -19 -16
-48 5 -17 12 -31 20 -31 19 0 -2 -13 1 -28 7 -16 6 -33 11 -38 11 -5 0 -9 9
-9 20 0 11 -5 20 -10 20 -6 0 -8 11 -4 25 6 25 -8 35 -21 15 -11 -18 -25 -10
-25 15 0 28 -16 31 -44 10 -11 -8 -36 -15 -55 -15 -40 0 -101 -32 -101 -53 0
-9 35 -24 93 -41 200 -60 254 -78 295 -102 23 -14 42 -29 42 -34 0 -5 -76 -9
-172 -9 -186 0 -220 -3 -309 -26 -66 -17 -93 -19 -84 -5 8 13 3 13 -62 -6 -30
-9 -56 -14 -59 -12 -2 3 37 46 87 96 53 54 89 98 86 106 -6 16 95 108 146 132
53 26 75 94 26 81 -11 -3 -19 -2 -19 2 0 16 -81 10 -127 -10 -92 -39 -153
-103 -153 -161 0 -31 13 -34 50 -13 14 8 33 14 44 15 15 0 10 -10 -25 -48 -56
-62 -68 -76 -117 -149 -31 -46 -49 -62 -74 -68 -18 -4 -37 -7 -42 -6 -21 4
-45 -12 -59 -41 -15 -30 -14 -32 8 -50 19 -15 22 -23 15 -41 -5 -12 -11 -34
-14 -49 -9 -39 -33 -35 -54 10 -9 20 -20 38 -24 40 -4 2 -2 15 5 29 10 22 8
27 -8 39 -11 7 -25 18 -32 24 -7 5 -20 10 -29 10 -12 0 -15 6 -10 22 18 67 18
68 2 68 -21 0 -20 29 3 64 15 23 17 34 9 58 -15 43 -1 51 55 32 l47 -16 84 85
c46 47 87 95 91 106 8 27 23 27 27 -1 2 -17 11 -10 48 42 25 35 60 80 78 100
17 21 32 42 32 48 0 14 -43 23 -79 16 -28 -6 -31 -4 -31 20 0 16 -5 26 -15 26
-18 0 -18 5 -4 33 19 36 51 67 71 67 10 0 35 16 56 36 24 23 30 33 17 29 -21
-8 -86 -7 -93 0 -3 2 3 16 12 30 9 14 12 25 7 25 -5 0 -13 -5 -17 -12 -5 -8
-10 -7 -18 4 -6 8 -30 17 -53 20 -33 5 -45 2 -59 -13 -14 -15 -14 -21 -4 -34
10 -12 8 -21 -7 -47 -20 -35 -31 -42 -134 -83 -58 -23 -129 -75 -129 -94 0 -4
-25 -20 -56 -36 -47 -25 -60 -38 -76 -75 -25 -59 -34 -43 -41 80 -5 88 2 173
17 187 8 9 44 -25 59 -56 19 -40 51 -39 80 4 13 20 44 48 68 64 81 52 100 94
51 116 -12 5 -22 13 -22 18 0 4 -27 5 -61 1 -47 -5 -63 -4 -70 7 -6 11 -16 6
-46 -22 -21 -20 -46 -39 -55 -42 -10 -4 -18 -16 -18 -27 0 -11 -4 -20 -10 -20
-14 0 -13 60 2 101 6 19 26 59 44 88 25 41 30 58 22 68 -14 17 -28 16 -50 -4
-12 -10 -18 -12 -18 -4 0 18 -19 3 -40 -31 l-18 -30 -7 86 c-12 140 12 275 57
324 34 37 83 55 107 40 15 -9 23 -9 36 2 22 18 41 57 49 103 6 30 4 37 -9 37
-10 0 -16 11 -17 33 -2 31 -4 65 -7 100 0 9 -8 17 -16 17 -8 0 -15 4 -15 9 0
5 -9 11 -19 14 -11 2 -21 15 -23 28 -4 30 -36 36 -77 15 -36 -19 -42 -12 -31
40 4 21 11 76 14 122 5 66 4 82 -7 82 -21 0 -42 -30 -57 -80 -17 -57 -24 -31
-11 41 14 81 57 197 86 235 19 25 34 34 55 34 25 0 32 7 54 56 14 31 26 59 26
63 0 3 -14 14 -31 24 -30 17 -31 20 -26 65 19 148 26 191 40 227 8 22 20 59
26 82 7 26 26 56 52 80 32 31 119 161 119 179 0 3 -9 0 -20 -6 -17 -9 -20 -8
-20 7 0 18 20 56 20 39 0 -5 11 1 25 14 28 27 43 21 28 -12 -8 -19 -1 -123 10
-134 21 -21 73 56 76 111 1 22 11 90 21 150 l19 110 58 53 c31 29 68 55 82 58
44 10 51 13 51 25 0 11 -28 9 -62 -6 -26 -11 -22 6 10 41 86 96 94 107 80 116
-11 8 -10 11 2 15 8 3 33 26 55 51 43 48 151 132 171 132 16 0 104 79 104 94
0 21 225 224 236 213 4 -3 -3 -22 -14 -41 -14 -23 -20 -47 -17 -67 2 -18 0
-40 -6 -50 -5 -10 -11 -40 -13 -66 -5 -53 -19 -98 -35 -107 -5 -4 -8 -49 -7
-109 2 -76 -1 -108 -12 -125 -8 -12 -12 -25 -9 -29 4 -3 0 -18 -8 -33 -9 -18
-11 -30 -4 -37 6 -6 6 -25 -1 -56 -5 -25 -12 -74 -15 -108 -3 -34 -16 -89 -29
-123 -34 -85 -47 -173 -35 -227 6 -24 9 -64 8 -89 -1 -25 1 -58 5 -73 5 -15 9
-40 11 -55 2 -36 14 -82 27 -109 6 -12 8 -29 4 -38 -10 -26 4 -64 26 -71 14
-4 18 -12 15 -26 -4 -12 1 -21 11 -25 22 -8 61 -54 62 -73 0 -9 6 -6 16 9 12
16 13 25 6 30 -7 4 -10 28 -7 59 4 52 3 52 -26 52 -35 0 -36 3 -4 44 32 42 31
46 -6 46 -30 0 -31 1 -25 34 4 23 3 35 -6 38 -12 4 -8 19 14 51 11 15 10 20
-5 28 -17 10 -17 13 -3 34 22 33 20 55 -4 55 -26 0 -25 4 6 46 24 31 25 34 7
34 -18 0 -19 4 -11 62 5 35 6 69 3 76 -3 7 0 22 5 33 9 16 6 24 -17 44 -31 27
-32 25 30 98 29 34 37 54 39 86 1 23 5 44 10 47 5 3 6 15 2 26 -3 11 0 33 7
49 10 26 10 33 -4 47 -15 15 -15 18 9 49 l25 33 -25 0 c-15 0 -26 3 -26 6 0 4
16 33 36 65 26 44 33 63 26 76 -7 11 -6 23 1 35 9 13 9 23 0 37 -9 14 -9 23 3
39 8 11 11 27 8 35 -3 8 2 29 10 45 9 17 17 45 18 64 1 18 12 47 25 64 13 17
23 38 23 47 0 10 5 17 10 17 6 0 10 9 10 19 0 21 76 101 133 139 27 18 34 28
25 33 -15 10 -7 12 44 9 31 -1 37 1 32 14 -5 12 2 18 25 22 17 4 36 13 42 20
6 8 18 14 25 14 8 0 14 5 14 10 0 6 5 10 10 10 6 0 23 11 38 25 15 14 33 25
40 25 7 0 16 8 20 18 8 22 58 82 67 82 4 0 18 9 32 20 31 24 42 25 50 4z
m-1634 -1403 c-6 -24 -41 -57 -50 -48 -5 6 44 67 53 67 1 0 0 -9 -3 -19z
m4197 -547 c0 -8 -4 -12 -10 -9 -5 3 -10 13 -10 21 0 8 5 12 10 9 6 -3 10 -13
10 -21z m-2029 -104 c58 -46 88 -49 200 -26 88 19 148 21 184 7 16 -7 55 -18
86 -25 79 -19 160 -75 187 -131 20 -42 21 -82 1 -69 -21 13 -6 -22 34 -79 47
-67 87 -153 87 -186 0 -15 -6 -21 -24 -21 -26 0 -76 35 -76 53 -1 22 -50 73
-58 60 -5 -8 -24 2 -61 33 -29 24 -56 45 -59 45 -4 1 -20 3 -37 5 -16 2 -31 8
-33 14 -6 17 -19 11 -27 -12 l-8 -23 -4 23 c-4 23 -6 22 -41 -15 -45 -47 -111
-103 -121 -103 -4 0 -18 -12 -32 -26 -61 -65 -127 -75 -237 -34 -46 17 -101
39 -123 51 -46 23 -59 19 -59 -19 -1 -24 -3 -23 -16 13 -26 66 -24 88 11 95
17 4 44 14 62 23 18 9 39 17 47 17 39 0 123 41 134 66 18 39 15 82 -7 94 -16
8 -27 3 -63 -26 -52 -44 -56 -37 -34 70 9 41 16 93 16 114 0 34 6 52 17 52 2
0 26 -18 54 -40z m551 -541 c25 -15 66 -37 90 -48 23 -11 64 -41 89 -68 46
-47 99 -120 99 -135 0 -15 -31 -8 -80 17 -27 14 -61 25 -74 25 -25 0 -25 0 14
-52 22 -29 73 -84 114 -121 42 -37 92 -93 113 -125 50 -75 57 -45 9 40 -31 57
-34 69 -31 123 2 33 -1 83 -7 111 -12 57 -1 90 47 134 21 20 28 22 35 10 10
-16 19 -75 24 -162 2 -31 6 -61 9 -65 3 -5 2 -15 -3 -23 -6 -10 -4 -21 7 -32
12 -14 15 -32 10 -85 -3 -43 0 -83 9 -112 8 -25 14 -68 14 -95 0 -46 -1 -48
-17 -34 -17 15 -73 30 -73 20 0 -3 17 -24 38 -47 69 -80 81 -107 85 -204 3
-49 8 -95 13 -102 4 -7 8 -29 9 -48 1 -20 7 -46 13 -57 6 -12 9 -24 6 -27 -3
-3 6 -45 20 -94 24 -84 61 -260 86 -408 34 -207 83 -394 114 -434 12 -15 37
-84 32 -88 -2 -2 -32 -6 -67 -9 -35 -3 -91 -9 -124 -14 -33 -5 -112 -12 -175
-15 -130 -7 -170 -13 -170 -26 0 -5 37 -9 83 -9 45 0 101 -5 125 -10 31 -7 49
-7 65 1 30 16 160 39 227 39 30 0 79 -6 108 -12 84 -20 114 -68 142 -226 14
-81 -5 -155 -51 -200 -38 -37 -55 -33 -34 8 8 16 20 59 26 97 10 55 9 74 -2
101 -14 33 -14 33 -14 -35 0 -69 -24 -161 -51 -197 -16 -22 -147 -69 -153 -54
-1 5 4 17 12 26 56 64 70 192 30 267 -23 43 -100 121 -110 111 -3 -3 6 -15 20
-27 72 -56 106 -185 73 -273 -10 -26 -37 -63 -67 -91 -49 -46 -52 -47 -92 -39
-36 7 -87 11 -161 13 -16 1 -13 8 19 38 91 91 88 206 -11 321 -19 23 -43 42
-52 42 -11 0 -1 -16 30 -47 56 -57 69 -88 70 -165 1 -67 -11 -90 -76 -143 -45
-36 -46 -37 -95 -26 -54 12 -140 62 -183 107 -40 44 -56 120 -68 339 -10 185
-52 500 -70 535 -4 8 -11 38 -15 65 -3 28 -12 66 -19 85 -24 64 -38 104 -58
170 -11 36 -31 86 -44 112 -13 26 -24 55 -25 65 0 10 -8 30 -17 45 -68 106
-95 168 -74 168 6 0 28 -11 48 -25 68 -46 214 -74 214 -42 0 8 -6 14 -12 15
-29 2 -139 49 -160 69 -13 11 -48 37 -78 56 -65 41 -91 68 -118 122 -11 22
-36 67 -56 99 -36 60 -46 96 -25 96 12 0 75 -36 161 -91 109 -70 259 -78 376
-19 66 33 70 42 63 120 -4 42 -16 42 -67 0 -46 -38 -52 -40 -119 -41 -38 0
-104 -4 -145 -8 -60 -6 -84 -4 -120 10 -25 9 -60 23 -78 29 -64 25 -168 150
-179 216 l-6 36 59 -30 c161 -81 319 -65 432 45 59 57 77 104 52 143 -7 11
-14 3 -30 -35 -19 -45 -23 -48 -34 -33 -12 17 -14 17 -31 -2 -10 -12 -43 -34
-72 -51 -50 -29 -56 -30 -104 -20 -27 6 -72 11 -100 11 -61 0 -140 37 -186 87
-18 20 -33 39 -33 44 0 4 -6 12 -14 16 -19 11 -56 74 -56 96 0 10 -7 31 -15
47 -18 34 -15 35 28 16 130 -55 140 -57 218 -45 41 6 84 13 96 15 15 3 30 21
47 57 21 45 31 55 63 65 86 26 150 20 215 -19z m1195 -6 c44 3 89 9 101 16 11
6 43 11 70 11 l49 0 -4 -32 c-6 -58 -26 -143 -36 -156 -6 -7 -13 -43 -16 -78
-5 -57 -9 -67 -32 -81 -17 -10 -33 -13 -45 -8 -11 5 -23 7 -28 6 -5 -1 -18 7
-30 17 -33 30 -69 34 -148 16 -40 -9 -89 -18 -108 -19 -19 -2 -48 -9 -65 -16
-16 -7 -37 -13 -45 -14 -9 -1 -49 -22 -90 -47 -120 -72 -187 -108 -199 -108
-7 0 -11 21 -11 54 0 30 -7 90 -15 133 -8 43 -15 90 -15 105 0 32 8 35 120 41
77 5 111 17 286 102 38 19 75 35 80 35 6 0 21 14 33 31 l23 31 22 -21 c20 -19
32 -21 103 -18z m-6588 -65 c54 -32 114 -85 107 -96 -3 -5 -19 -12 -36 -16
-17 -3 -38 -13 -47 -22 -12 -12 -27 -14 -63 -9 -36 5 -49 3 -59 -9 -8 -10 -22
-14 -35 -10 -15 3 -30 -4 -51 -26 -29 -30 -30 -35 -30 -125 0 -51 -3 -96 -6
-99 -12 -12 -48 41 -63 93 -22 76 -20 121 8 186 59 132 176 189 275 133z
m2339 -250 c22 -40 42 -92 46 -115 5 -36 3 -42 -15 -48 -11 -4 -23 -5 -26 -2
-3 3 -25 -3 -49 -13 -43 -19 -44 -19 -44 0 0 10 -6 20 -12 22 -23 8 -2 165 29
221 12 21 36 0 71 -65z m-2028 17 c25 -23 10 -45 -31 -45 -38 0 -149 -49 -176
-77 -13 -13 -38 -30 -55 -38 -42 -17 -78 -56 -113 -123 -24 -44 -30 -50 -38
-36 -25 44 38 184 98 217 12 6 49 30 81 52 94 63 124 76 172 71 24 -2 52 -12
62 -21z m6264 -138 c20 -14 31 -17 34 -9 2 7 15 0 32 -18 16 -17 38 -30 52
-30 46 0 52 -12 38 -77 -6 -32 -13 -67 -14 -78 0 -11 -7 -24 -13 -28 -9 -5
-13 -36 -13 -90 -1 -45 -5 -113 -11 -152 -24 -154 -16 -646 11 -755 19 -73 77
-227 104 -273 21 -35 25 -48 14 -52 -7 -2 -42 -11 -77 -20 -36 -9 -81 -25
-101 -35 -37 -19 -67 -47 -58 -55 2 -2 46 10 98 27 83 27 110 31 210 32 149 1
178 -6 242 -58 64 -52 87 -105 95 -218 5 -64 2 -83 -16 -120 -22 -46 -88 -125
-96 -116 -3 3 2 34 11 69 20 78 14 162 -16 224 -28 57 -46 60 -20 3 29 -64 28
-189 -2 -248 -20 -39 -84 -97 -95 -86 -2 2 4 23 14 47 12 30 18 70 18 124 0
69 -4 87 -29 132 -15 28 -42 64 -59 80 -32 29 -29 18 8 -32 37 -50 65 -112 65
-144 0 -71 -22 -136 -59 -172 -32 -33 -44 -38 -103 -44 -75 -8 -93 -3 -79 24
32 58 15 216 -30 290 -32 53 -38 34 -10 -31 35 -84 37 -202 5 -245 -24 -30
-38 -32 -147 -19 -70 9 -87 25 -87 81 0 56 -31 155 -73 230 -33 59 -57 79
-108 89 -22 5 -31 18 -57 88 -66 182 -95 310 -122 546 -17 154 -36 264 -70
417 -5 22 -9 63 -10 90 0 48 -9 85 -67 290 -30 106 -36 201 -13 198 8 -2 45
-9 82 -18 61 -14 72 -13 115 1 71 23 333 153 333 165 0 14 38 2 74 -24z
m-6106 -64 c64 -43 111 -128 72 -128 -8 0 -20 -4 -27 -8 -6 -4 -39 -10 -72
-13 -47 -5 -61 -11 -61 -23 0 -17 -54 -71 -71 -71 -5 0 -9 -8 -9 -19 0 -21
-54 -69 -87 -78 -13 -3 -23 -11 -23 -18 0 -7 -7 -18 -15 -25 -9 -7 -14 -15
-11 -17 2 -2 -2 -28 -9 -58 -7 -31 -8 -58 -3 -63 10 -10 0 -42 -14 -42 -5 0
-18 5 -29 11 -16 8 -18 13 -8 25 6 8 8 14 3 14 -5 0 -2 5 6 10 12 7 11 13 -10
35 -20 22 -22 28 -10 35 12 7 10 14 -13 38 -19 20 -25 32 -17 37 8 5 6 13 -6
27 -15 16 -16 21 -4 28 11 7 11 11 1 23 -7 9 -8 18 -2 21 5 3 12 23 16 44 4
25 13 41 28 47 12 6 28 22 35 38 7 15 17 27 22 27 4 0 18 16 30 36 12 19 28
33 34 31 7 -3 23 6 36 20 13 13 36 27 52 30 16 3 30 9 33 12 2 4 21 8 42 8 29
2 51 -7 91 -34z m202 -324 c66 -30 103 -69 65 -69 -8 0 -17 -14 -21 -35 -8
-46 -88 -129 -116 -122 -15 4 -22 -2 -30 -24 -7 -22 -19 -32 -41 -36 -21 -4
-33 -15 -41 -35 -6 -15 -14 -28 -18 -28 -4 0 -8 -6 -8 -14 0 -8 -13 -28 -30
-46 -16 -18 -30 -36 -30 -41 0 -5 -5 -9 -10 -9 -7 0 -7 -6 0 -19 15 -29 12
-41 -9 -41 -26 0 -86 43 -86 62 0 8 -5 22 -12 29 -21 26 -26 66 -8 72 12 5 14
11 5 26 -17 34 -12 45 40 79 28 18 50 37 50 42 0 6 6 10 13 10 8 0 22 20 33
45 10 25 23 45 29 45 6 0 22 18 35 40 14 22 31 40 38 40 6 0 12 7 12 15 0 8 7
15 15 15 8 0 15 5 15 10 0 17 62 11 110 -11z m246 -206 c38 -29 64 -70 57 -91
-3 -7 -16 -17 -29 -22 -20 -8 -24 -16 -24 -50 0 -27 -5 -43 -15 -46 -8 -4 -15
-13 -15 -21 0 -11 -7 -13 -29 -8 -21 4 -29 2 -28 -7 1 -36 -5 -46 -33 -52 -30
-6 -30 -6 -14 -31 14 -21 14 -25 2 -25 -8 0 -23 -9 -33 -20 -14 -15 -15 -23
-6 -34 9 -11 6 -17 -14 -30 -17 -11 -25 -26 -25 -45 0 -16 -7 -34 -15 -41 -9
-7 -14 -19 -11 -27 5 -11 -4 -12 -46 -7 -37 5 -49 4 -44 -5 4 -6 1 -11 -9 -11
-9 0 -15 5 -13 12 3 7 -14 29 -36 50 -33 30 -37 38 -21 38 15 0 16 3 7 12 -17
17 -15 36 6 43 20 6 44 47 48 80 5 43 11 56 32 71 12 8 22 26 22 39 0 15 7 26
21 30 11 4 25 18 31 31 6 13 15 24 20 24 4 0 8 10 8 21 0 25 43 69 66 69 9 0
18 9 21 20 3 11 9 20 15 20 5 0 18 9 30 20 28 26 32 25 74 -7z m172 -148 c43
-30 52 -31 52 -7 1 12 8 8 31 -18 17 -19 40 -45 51 -57 11 -13 18 -28 16 -35
-3 -7 6 -21 20 -32 26 -20 26 -14 6 -141 -4 -22 -12 -49 -19 -60 -16 -24 -17
-75 -3 -93 8 -9 6 -18 -7 -32 -9 -10 -14 -24 -10 -30 4 -6 -2 -28 -13 -49 -18
-34 -19 -40 -5 -54 12 -12 13 -19 4 -36 -7 -12 -9 -26 -5 -32 7 -12 -15 -69
-27 -69 -5 0 -9 -4 -9 -10 0 -5 -14 -23 -31 -39 -25 -24 -43 -31 -96 -37 -55
-5 -67 -4 -81 11 -13 13 -14 19 -4 22 6 3 12 15 12 28 0 13 5 27 10 30 12 8
13 45 1 45 -4 0 -25 16 -45 35 -21 19 -49 38 -64 41 -41 10 -45 15 -25 30 17
13 17 13 -2 14 -11 1 -14 4 -7 7 22 9 33 40 23 66 -7 17 -6 28 2 36 9 9 9 14
-2 20 -11 7 -10 14 7 37 11 16 32 40 46 53 14 13 23 28 20 32 -2 4 5 13 16 19
24 13 25 31 4 72 -15 29 -14 31 6 45 22 16 45 59 41 81 -1 6 5 12 14 12 8 0
15 7 15 15 0 9 11 20 25 25 l25 9 -21 36 c-25 42 -20 43 29 10z m1113 -47 c1
-7 1 -21 0 -30 -2 -18 20 -98 74 -265 47 -143 61 -235 48 -309 -6 -32 -14 -68
-18 -78 -6 -14 -5 -17 3 -12 7 4 12 2 12 -5 0 -17 -50 -89 -61 -89 -12 0 -11
21 1 40 6 9 5 17 -3 22 -8 5 -12 43 -13 115 -1 71 -5 108 -13 111 -6 2 -11 14
-11 26 0 30 -22 76 -37 76 -8 0 -14 15 -15 38 0 20 -3 48 -4 62 -2 14 -6 75
-8 135 -4 85 -1 117 11 143 16 33 32 42 34 20z m-759 -74 c21 -13 41 -24 46
-24 19 0 92 -63 92 -80 0 -10 6 -20 13 -23 8 -3 5 -8 -8 -13 -33 -13 -73 -61
-64 -75 5 -8 2 -23 -7 -37 -8 -12 -12 -27 -9 -32 4 -6 0 -24 -9 -40 -8 -16
-11 -32 -7 -34 11 -7 -4 -279 -18 -303 -5 -11 -5 -23 2 -34 8 -13 7 -21 -2
-33 -15 -18 -51 -22 -51 -6 0 6 -11 10 -25 10 -17 0 -23 4 -19 14 3 8 -4 24
-15 35 -24 24 -26 32 -9 49 22 22 18 42 -8 42 -28 0 -30 10 -8 51 10 20 13 41
8 62 -11 49 -12 131 -2 143 5 7 5 22 0 35 -12 30 -9 58 7 87 7 13 10 28 8 35
-2 7 0 20 4 29 5 10 5 19 0 23 -6 3 -1 23 11 45 l22 40 -22 23 c-50 53 -5 60
70 11z m3741 -86 c15 -83 34 -150 46 -157 9 -6 6 -10 -11 -14 -28 -7 -83 -103
-66 -113 7 -5 5 -12 -7 -21 -14 -9 -16 -16 -8 -24 8 -8 6 -16 -8 -30 -10 -10
-16 -25 -13 -32 3 -8 -3 -18 -13 -21 -17 -7 -17 -8 -1 -20 16 -12 14 -16 -23
-45 -24 -20 -52 -57 -70 -94 l-31 -62 -86 -1 c-48 -1 -102 -5 -121 -9 -33 -8
-34 -7 -27 21 11 43 47 115 69 137 11 11 20 30 21 43 0 13 6 24 11 24 6 0 24
20 40 44 17 25 39 47 50 50 19 5 56 37 103 89 13 15 22 38 22 58 1 19 8 52 16
74 8 22 18 49 21 60 7 25 53 75 69 75 6 0 14 -15 17 -32z m-3129 -80 c3 -57 8
-139 11 -183 2 -44 9 -93 15 -110 6 -16 8 -40 5 -53 -3 -12 -2 -28 2 -35 4 -7
6 -38 4 -71 -2 -33 1 -61 7 -65 6 -3 12 -24 14 -46 3 -22 10 -50 16 -62 7 -12
12 -29 12 -37 0 -21 -43 -21 -60 -1 -8 9 -21 13 -36 9 -18 -5 -23 -3 -19 8 4
11 -6 13 -49 11 -60 -2 -73 6 -56 36 8 16 6 22 -7 30 -15 8 -16 12 -4 35 12
21 12 30 -2 58 -18 39 -18 142 1 175 10 18 10 27 0 42 -10 17 -9 23 7 41 13
14 16 23 8 28 -11 7 17 149 37 184 6 10 10 25 10 34 0 17 52 74 68 74 5 0 12
-46 16 -102z m687 72 c10 -6 19 -18 19 -27 0 -8 9 -30 20 -49 32 -51 9 -114
-29 -80 -23 21 -25 21 -96 -10 -38 -16 -68 -36 -80 -55 -22 -32 -39 -39 -31
-11 2 9 7 27 11 38 8 29 -16 37 -66 24 -22 -6 -44 -8 -49 -5 -5 3 0 33 12 68
11 34 22 68 24 76 4 11 8 10 24 -4 20 -18 22 -18 63 5 62 35 142 49 178 30z
m-882 -26 c2 -2 -3 -12 -12 -22 -10 -10 -15 -21 -12 -24 3 -3 -8 -45 -24 -92
-17 -48 -30 -102 -29 -119 1 -18 -4 -43 -11 -56 -7 -12 -9 -30 -5 -39 4 -9 8
-37 9 -61 1 -29 8 -49 20 -57 17 -12 17 -15 1 -38 -9 -15 -16 -46 -16 -77 0
-58 -20 -99 -60 -123 -31 -18 -70 -21 -70 -6 0 6 -7 10 -15 10 -14 0 -14 4 0
36 17 41 13 51 -22 65 -25 9 -25 10 -7 30 17 19 17 22 2 33 -19 14 -14 59 8
77 12 9 10 16 -7 40 -17 24 -18 33 -9 44 7 8 9 26 6 40 -4 14 -2 34 4 45 6 12
7 27 1 43 -23 59 42 207 91 207 19 0 24 15 8 25 -5 3 -10 13 -10 22 0 14 11
15 77 9 43 -4 80 -9 82 -12z m-1200 -223 c40 -11 38 -31 -3 -31 -37 0 -86 18
-86 32 0 9 54 9 89 -1z m4693 -267 c36 -10 53 -104 53 -299 l0 -180 -43 -3
c-28 -2 -44 1 -46 10 -3 7 -12 39 -21 70 -10 38 -30 75 -58 108 -107 126 -101
116 -87 163 7 23 12 53 11 67 -5 61 89 92 191 64z m-2027 -44 c-11 -5 -45 -16
-76 -24 -69 -19 -128 -61 -169 -121 -61 -89 -50 -188 29 -255 54 -47 40 -51
-50 -14 -141 57 -179 92 -179 162 0 45 51 153 84 180 59 46 194 78 341 80 31
1 36 -1 20 -8z m297 -33 c18 -8 55 -18 82 -21 58 -7 174 -67 226 -116 55 -52
83 -134 84 -246 1 -60 -4 -100 -13 -117 -14 -26 -56 -47 -93 -47 -17 0 -17 2
3 43 45 87 17 219 -63 292 -18 17 -26 22 -19 12 8 -10 29 -48 47 -84 42 -82
44 -136 9 -211 -33 -70 -61 -82 -186 -77 -132 5 -144 12 -114 65 34 59 8 191
-50 256 -40 43 -40 42 -3 -36 36 -75 42 -133 20 -194 -21 -60 -46 -70 -130
-55 -77 15 -108 33 -144 84 -25 35 -36 43 -53 39 -17 -4 -24 2 -38 33 -9 21
-28 57 -42 81 -20 34 -23 47 -15 63 6 11 8 24 5 29 -3 5 -1 11 5 15 5 3 10 14
10 23 0 29 76 99 137 128 128 60 257 76 335 41z m-751 -77 c-6 -28 -11 -80
-11 -115 0 -36 -4 -65 -9 -65 -13 0 -35 39 -51 90 -8 25 -18 48 -23 51 -13 9
3 79 18 79 7 0 15 -5 17 -12 3 -8 13 -5 33 10 15 12 30 20 33 18 2 -3 -1 -28
-7 -56z m1874 -10 c54 0 131 -9 195 -22 86 -18 116 -30 164 -63 81 -55 123
-118 144 -212 13 -61 14 -86 5 -138 -14 -83 -41 -137 -76 -154 -44 -20 -54 -2
-29 51 32 65 39 158 17 216 -20 53 -45 88 -78 111 -19 13 -18 10 6 -22 62 -83
72 -181 27 -285 -34 -80 -43 -85 -154 -80 -52 1 -97 6 -101 10 -4 4 6 33 21
64 38 78 43 152 14 224 -23 58 -74 120 -99 120 -10 0 -7 -8 11 -27 48 -51 78
-126 78 -193 0 -63 -13 -99 -56 -157 -23 -30 -27 -32 -89 -30 -36 1 -65 3 -65
4 0 1 25 26 55 57 77 77 73 106 -4 33 -76 -72 -98 -81 -170 -66 -31 6 -72 12
-92 13 -24 1 -49 12 -73 31 -21 17 -54 43 -74 58 -49 37 -132 118 -132 129 0
4 -9 8 -19 8 -19 0 -19 1 0 55 21 61 24 79 9 70 -14 -8 -12 15 3 44 9 17 34
30 99 51 61 19 98 38 123 61 30 29 47 36 108 44 39 6 88 7 107 3 19 -4 76 -8
125 -8z m-2395 -61 c0 -5 -10 -9 -21 -9 -18 0 -19 2 -9 15 12 15 30 12 30 -6z
m1887 -427 c35 -19 78 -68 66 -75 -5 -2 -33 -1 -63 4 -30 4 -84 8 -120 9 -103
2 -112 10 -54 48 57 37 119 42 171 14z"/>
<path d="M6746 6769 c23 -24 64 -75 93 -113 52 -70 68 -79 30 -16 -31 50 -118
149 -143 162 -13 6 -5 -7 20 -33z"/>
<path d="M7236 6735 c-27 -25 -32 -35 -17 -35 5 0 19 14 31 30 26 36 22 38
-14 5z"/>
<path d="M6980 6686 c45 -62 63 -73 21 -13 -17 25 -37 49 -43 53 -6 4 4 -14
22 -40z"/>
<path d="M6350 6700 c0 -5 5 -10 11 -10 5 0 7 5 4 10 -3 6 -8 10 -11 10 -2 0
-4 -4 -4 -10z"/>
<path d="M7110 6695 c45 -59 84 -104 88 -100 9 8 -40 75 -71 97 -28 20 -30 20
-17 3z"/>
<path d="M5086 6684 c-8 -22 3 -62 20 -68 8 -3 14 -16 14 -29 0 -14 9 -36 20
-50 11 -14 20 -28 20 -31 0 -18 111 -109 180 -146 24 -14 67 -39 94 -57 27
-18 62 -35 77 -38 15 -4 35 -17 43 -30 24 -37 130 -104 226 -142 14 -6 37 -16
52 -23 15 -7 33 -10 42 -7 8 3 37 -2 64 -12 41 -15 60 -17 103 -9 63 12 93 30
130 82 35 47 37 63 7 42 -12 -9 -34 -16 -49 -16 -14 0 -29 -3 -33 -7 -25 -25
-143 -20 -259 11 -139 37 -220 85 -278 164 -20 27 -39 42 -52 42 -26 0 -122
43 -131 59 -4 5 -39 27 -78 48 -89 46 -141 98 -133 130 3 13 1 23 -5 23 -5 0
-10 5 -10 11 0 15 -39 69 -50 69 -4 0 -11 -7 -14 -16z"/>
<path d="M6670 6634 c0 -6 7 -19 15 -30 8 -10 14 -14 14 -9 0 6 -6 19 -14 29
-8 11 -15 15 -15 10z"/>
<path d="M7040 6591 c0 -6 4 -13 10 -16 6 -3 7 1 4 9 -7 18 -14 21 -14 7z"/>
<path d="M7060 6555 c0 -5 5 -17 10 -25 5 -8 10 -10 10 -5 0 6 -5 17 -10 25
-5 8 -10 11 -10 5z"/>
<path d="M7102 6430 c0 -14 2 -19 5 -12 2 6 2 18 0 25 -3 6 -5 1 -5 -13z"/>
<path d="M5166 5408 c19 -36 114 -134 157 -163 22 -14 31 -15 40 -6 9 9 2 20
-33 49 -25 20 -72 63 -106 94 -33 32 -64 58 -68 58 -3 0 1 -14 10 -32z"/>
<path d="M5070 5287 c0 -21 99 -107 122 -107 20 0 4 32 -37 74 -42 44 -85 60
-85 33z"/>
<path d="M5370 5201 c0 -42 89 -69 138 -42 14 8 15 10 2 15 -8 3 -35 12 -60
21 -81 29 -80 29 -80 6z"/>
<path d="M4796 5144 c-4 -9 -4 -19 -1 -22 2 -3 7 3 11 12 4 9 4 19 1 22 -2 3
-7 -3 -11 -12z"/>
<path d="M5235 5140 c3 -5 11 -10 16 -10 6 0 7 5 4 10 -3 6 -11 10 -16 10 -6
0 -7 -4 -4 -10z"/>
<path d="M7280 5112 c-19 -10 -38 -19 -43 -19 -4 -1 -24 -5 -45 -9 -20 -4 -50
-16 -67 -28 -38 -27 -74 -46 -89 -46 -6 -1 -21 -17 -33 -36 -19 -30 -20 -36
-7 -41 8 -3 25 4 38 16 12 11 26 21 32 21 5 0 20 12 33 25 13 14 28 25 33 25
5 0 23 9 38 20 16 11 35 17 44 14 9 -3 16 -2 16 4 0 9 37 24 65 26 22 2 47 24
41 35 -9 14 -14 14 -56 -7z"/>
<path d="M5325 5080 c3 -5 13 -10 21 -10 8 0 28 -7 44 -15 17 -9 30 -12 30 -7
0 10 -65 42 -86 42 -8 0 -12 -4 -9 -10z"/>
<path d="M5010 5048 c0 -21 13 -34 47 -52 49 -25 51 -20 8 24 -41 42 -55 49
-55 28z"/>
<path d="M5435 5030 c3 -5 11 -10 16 -10 6 0 7 5 4 10 -3 6 -11 10 -16 10 -6
0 -7 -4 -4 -10z"/>
<path d="M5476 5022 c-17 -27 99 -71 228 -87 27 -3 54 -8 60 -12 20 -13 110
-21 133 -12 14 5 25 4 29 -2 3 -6 22 -9 43 -8 20 1 48 -4 63 -11 22 -11 30
-11 43 0 13 11 18 10 29 -6 12 -15 16 -16 30 -5 13 11 17 11 22 -3 3 -9 14
-16 24 -16 11 0 22 -5 25 -10 4 -6 15 -8 26 -5 11 4 19 2 19 -5 0 -7 8 -10 20
-7 11 3 20 1 20 -5 0 -6 11 -8 25 -6 14 3 28 1 31 -3 3 -5 14 -9 25 -9 10 0
19 -4 19 -10 0 -5 8 -10 18 -10 10 0 33 -16 52 -35 40 -41 55 -44 46 -10 -7
27 -40 65 -56 65 -6 0 -15 12 -20 26 -8 21 -13 24 -24 15 -10 -9 -24 -6 -57
10 -24 12 -53 25 -64 30 -11 4 -29 11 -40 15 -11 4 -35 8 -52 9 -18 1 -40 8
-49 16 -10 8 -27 15 -38 16 -75 7 -93 10 -109 17 -9 5 -26 6 -37 3 -13 -3 -20
0 -20 9 0 15 -16 19 -24 6 -13 -21 -338 12 -417 43 -10 3 -20 2 -23 -3z"/>
<path d="M7591 5001 c-7 -5 -10 -14 -6 -20 4 -8 -5 -16 -24 -24 -17 -6 -31
-15 -31 -19 0 -4 -5 -8 -11 -8 -6 0 -25 -6 -42 -14 -53 -24 -97 -35 -111 -30
-7 3 -18 -1 -24 -9 -9 -11 0 -12 58 -6 38 4 79 13 92 20 13 7 24 10 26 8 6 -8
141 86 138 96 -3 13 -47 18 -65 6z"/>
<path d="M4920 4955 c0 -29 29 -85 44 -85 9 0 20 -18 28 -47 11 -41 19 -51 55
-68 23 -11 56 -33 72 -49 27 -25 35 -28 76 -23 92 10 99 62 9 59 -53 -3 -74
10 -74 44 0 13 -5 24 -10 24 -6 0 -16 11 -22 25 -8 17 -19 25 -37 25 -50 0
-71 11 -71 36 0 24 -39 74 -59 74 -6 0 -11 -7 -11 -15z"/>
<path d="M6666 4960 c-3 -8 -10 -35 -16 -60 -6 -25 -14 -55 -17 -66 -4 -19 -1
-21 20 -17 26 5 37 34 37 97 0 39 -16 69 -24 46z"/>
<path d="M6950 4935 c0 -8 5 -15 10 -15 6 0 10 7 10 15 0 8 -4 15 -10 15 -5 0
-10 -7 -10 -15z"/>
<path d="M6827 4924 c-9 -10 -9 -74 1 -74 4 0 24 18 45 40 21 23 31 40 23 40
-7 0 -19 -7 -26 -15 -11 -14 -14 -14 -24 0 -6 9 -15 13 -19 9z"/>
<path d="M6722 4906 c1 -10 8 -17 13 -17 15 1 12 24 -3 29 -9 3 -13 -2 -10
-12z"/>
<path d="M7290 4855 c0 -8 5 -15 10 -15 6 0 10 7 10 15 0 8 -4 15 -10 15 -5 0
-10 -7 -10 -15z"/>
<path d="M7212 4835 c-59 -32 -55 -53 7 -34 28 8 41 17 39 27 -4 20 -18 23
-46 7z"/>
<path d="M4836 4777 c-27 -20 -33 -93 -10 -118 15 -16 18 -34 16 -78 -4 -108
58 -211 120 -196 20 5 27 0 42 -32 l18 -38 19 24 c10 13 16 27 13 33 -3 5 5
21 17 35 l24 25 -29 23 c-17 13 -34 21 -39 18 -6 -4 -7 6 -3 23 3 16 9 39 11
52 6 25 -7 29 -25 7 -21 -25 -47 -17 -64 19 -9 19 -16 42 -16 51 0 9 -7 31
-16 48 -32 60 -34 67 -34 92 0 27 -16 32 -44 12z m75 -238 c14 -14 19 -30 17
-52 -4 -45 -30 -46 -51 -2 -32 67 -12 100 34 54z"/>
<path d="M5400 4716 c-62 -15 -72 -23 -60 -46 11 -20 88 -41 121 -33 10 3 19
1 19 -5 0 -5 10 -10 23 -10 12 0 38 -2 57 -5 19 -2 60 2 90 9 30 7 67 13 81
14 15 0 32 7 39 15 9 11 29 13 81 10 74 -4 81 4 25 30 -55 26 -188 26 -294 0
-20 -5 -23 -3 -17 15 7 23 -1 25 -41 10 -19 -8 -30 -8 -38 0 -12 12 -26 11
-86 -4z"/>
<path d="M7470 4721 c0 -5 -9 -11 -20 -14 -11 -3 -20 -13 -20 -22 0 -14 -3
-15 -14 -6 -11 9 -16 9 -23 -2 -4 -7 -23 -22 -40 -32 -18 -11 -33 -26 -33 -34
0 -7 -8 -20 -17 -27 -24 -17 -8 -32 17 -16 11 7 25 12 32 12 25 1 108 70 114
95 3 14 12 25 20 25 8 0 14 7 14 15 0 8 -7 15 -15 15 -8 0 -15 -4 -15 -9z"/>
<path d="M5975 4650 c11 -5 27 -9 35 -9 13 -1 13 0 0 9 -8 5 -24 9 -35 9 l-20
0 20 -9z"/>
<path d="M6050 4626 c0 -2 9 -6 20 -9 11 -3 18 -1 14 4 -5 9 -34 13 -34 5z"/>
<path d="M6110 4595 c7 -9 15 -13 17 -11 7 7 -7 26 -19 26 -6 0 -6 -6 2 -15z"/>
<path d="M6150 4563 c0 -9 52 -63 61 -63 4 0 5 9 2 20 -7 28 -63 66 -63 43z"/>
<path d="M6720 4531 c0 -32 14 -49 25 -31 9 15 -3 60 -15 60 -6 0 -10 -13 -10
-29z"/>
<path d="M7251 4546 c-10 -12 -8 -13 8 -9 12 3 21 9 21 14 0 14 -16 11 -29 -5z"/>
<path d="M6235 4500 c-6 -11 9 -45 32 -72 9 -9 18 -31 22 -49 l6 -31 14 26
c13 24 13 31 -7 71 -22 45 -56 73 -67 55z"/>
<path d="M7220 4285 c0 -9 -5 -13 -10 -10 -6 4 -17 1 -25 -5 -8 -6 -19 -9 -24
-6 -5 4 -13 0 -18 -8 -4 -8 -27 -24 -50 -36 -24 -12 -43 -25 -43 -29 0 -4 -12
-14 -27 -22 -54 -28 -115 -87 -179 -171 -11 -15 -24 -25 -27 -22 -3 3 -20 -19
-37 -49 -16 -30 -39 -62 -49 -71 -18 -16 -19 -15 -30 29 -15 58 -26 58 -18 0
8 -54 -7 -100 -28 -91 -12 4 -15 -3 -15 -34 0 -73 39 -49 150 90 72 91 237
257 273 275 16 8 37 15 47 15 9 0 20 4 26 10 5 5 27 10 49 11 22 1 47 8 55 14
8 7 32 18 53 25 44 14 46 28 9 62 -37 32 -82 45 -82 23z"/>
<path d="M5840 4196 c0 -14 5 -28 10 -31 6 -3 10 5 10 19 0 14 -4 28 -10 31
-6 3 -10 -5 -10 -19z"/>
<path d="M6073 4020 c0 -36 2 -50 4 -32 2 17 2 47 0 65 -2 17 -4 3 -4 -33z"/>
<path d="M5830 3985 c0 -3 9 -16 21 -28 11 -12 30 -44 42 -72 12 -27 39 -84
61 -125 21 -41 53 -115 71 -165 l33 -90 7 59 c5 37 3 78 -4 110 -26 115 -122
266 -192 301 -30 16 -39 18 -39 10z"/>
<path d="M6131 3808 c-1 -20 -21 -25 -21 -6 0 6 -3 8 -6 5 -4 -4 1 -26 10 -50
10 -28 15 -59 11 -86 -2 -22 -1 -41 4 -41 17 0 20 33 12 115 -5 44 -9 72 -10
63z"/>
<path d="M6501 3620 c0 -8 4 -24 9 -35 l9 -20 0 20 c0 11 -4 27 -9 35 -9 13
-10 13 -9 0z"/>
<path d="M6388 3455 c-2 -91 -5 -106 -14 -85 l-11 25 -15 -35 c-31 -74 -49
-147 -46 -185 l3 -40 32 52 c18 28 45 62 62 74 39 29 49 95 27 196 -25 122
-35 121 -38 -2z"/>
<path d="M4377 5310 c-36 -36 -55 -62 -52 -72 4 -9 -4 -19 -20 -28 -14 -7 -24
-18 -23 -24 1 -6 -4 -34 -11 -63 -7 -29 -10 -56 -7 -61 3 -5 -1 -20 -8 -34 -9
-17 -10 -31 -4 -43 6 -10 7 -40 4 -69 -21 -158 -22 -394 -2 -410 15 -12 23
-41 36 -131 17 -118 56 -245 80 -260 6 -4 10 -19 8 -34 -3 -30 24 -71 60 -90
12 -6 22 -20 22 -29 0 -10 6 -27 14 -37 13 -18 14 -17 21 14 6 29 3 37 -19 55
-36 30 -30 62 21 113 24 23 43 45 43 48 0 11 -27 4 -65 -15 -22 -11 -41 -20
-42 -20 -2 0 -1 21 2 48 4 27 2 60 -5 76 -7 19 -7 33 -1 39 13 13 -5 47 -24
47 -18 0 -18 5 -4 31 8 16 7 29 -6 55 -9 19 -20 34 -25 34 -17 0 -11 75 10
115 11 22 20 41 20 43 0 2 -14 1 -31 -3 -29 -7 -31 -6 -23 16 4 13 8 34 8 46
1 12 11 32 24 45 31 34 28 39 -19 32 l-41 -7 20 40 c11 22 28 45 36 52 22 19
20 34 -4 28 -15 -4 -20 0 -20 13 0 11 -5 22 -10 25 -13 8 -4 43 17 67 10 11
11 18 4 23 -17 10 5 42 42 62 l32 17 -25 6 c-17 4 -21 8 -12 14 6 4 12 20 12
35 0 16 16 60 35 99 20 39 33 77 29 86 -3 9 1 27 10 41 16 25 16 25 -16 24
-26 -1 -46 -14 -91 -59z"/>
<path d="M3633 4871 c-36 -17 -43 -25 -57 -73 -8 -30 -29 -73 -46 -97 -17 -23
-28 -46 -24 -52 3 -6 -2 -19 -11 -29 -15 -17 -15 -19 6 -34 23 -15 23 -16 6
-52 -12 -24 -14 -40 -8 -48 6 -7 6 -17 1 -26 -6 -10 -4 -20 7 -32 8 -9 13 -23
10 -30 -4 -10 10 -44 39 -96 5 -9 54 32 54 45 0 7 9 31 20 53 25 49 25 56 -1
63 -17 5 -18 9 -10 26 6 12 16 30 21 41 6 11 10 33 10 49 0 16 4 41 9 54 6 16
6 39 0 62 -8 29 -7 41 5 60 9 13 15 38 14 57 0 18 2 43 6 56 9 27 3 27 -51 3z"/>
<path d="M3330 4470 c-23 -25 -29 -42 -36 -107 -4 -43 -6 -84 -5 -91 1 -8 -4
-21 -12 -30 -8 -10 -21 -38 -29 -64 l-15 -48 33 0 c37 0 74 41 74 83 0 13 7
30 15 37 11 9 13 16 6 23 -7 7 -6 16 5 28 13 14 13 20 2 38 -11 18 -9 24 14
48 33 34 45 78 28 98 -19 23 -49 18 -80 -15z"/>
<path d="M3593 4278 c-24 -14 -34 -29 -38 -56 -4 -20 -18 -61 -33 -91 -18 -38
-23 -56 -14 -59 17 -5 15 -32 -4 -53 -25 -28 -30 -103 -9 -149 10 -22 24 -40
30 -40 34 0 95 104 95 160 0 9 5 21 10 26 7 7 7 20 2 34 -5 14 -3 59 4 114 21
149 20 153 -43 114z"/>
<path d="M4030 4211 c0 -6 9 -15 20 -21 22 -12 53 -75 65 -130 4 -19 16 -54
26 -77 14 -33 16 -50 9 -69 -11 -29 -6 -44 16 -44 14 0 20 -46 16 -113 -3 -35
9 -29 49 26 20 28 26 43 18 48 -8 5 -7 13 5 30 20 29 21 49 1 49 -8 0 -15 9
-15 19 0 11 -4 23 -10 26 -5 3 -7 19 -4 35 4 20 1 34 -9 45 -13 13 -14 20 -5
41 9 18 9 27 0 36 -7 7 -12 23 -12 38 -1 43 -20 57 -75 56 -27 0 -60 3 -72 7
-14 5 -23 4 -23 -2z"/>
<path d="M3046 3980 c-30 -34 -35 -44 -29 -72 3 -18 10 -38 15 -45 11 -13 5
-83 -12 -150 -10 -42 -9 -77 2 -88 10 -11 90 16 142 47 l51 30 -40 -7 c-32 -5
-38 -4 -27 6 6 7 12 22 12 34 0 12 5 26 12 33 9 9 9 12 -1 12 -7 0 -11 6 -8
14 3 7 1 18 -4 23 -6 6 -13 45 -16 88 -5 64 -9 79 -25 83 -10 2 -18 11 -18 18
0 24 -16 16 -54 -26z"/>
<path d="M2926 3909 c-16 -10 -34 -26 -40 -36 -14 -25 -25 -114 -32 -262 -5
-122 -5 -124 15 -118 12 3 21 4 21 3 0 -1 -9 -19 -20 -41 -23 -45 -26 -85 -7
-85 25 0 36 -21 25 -46 -23 -50 44 -74 95 -34 14 11 28 20 31 20 9 0 26 -77
20 -93 -3 -8 -1 -18 4 -21 5 -3 7 -16 5 -30 -4 -18 0 -26 16 -31 12 -3 21 -10
21 -14 0 -5 15 -11 33 -14 35 -5 107 -49 120 -72 4 -8 14 -12 22 -9 30 12 63
-5 70 -35 3 -16 13 -32 21 -35 8 -3 14 -12 14 -19 0 -9 15 -17 39 -21 21 -3
44 -12 50 -20 7 -8 27 -21 46 -30 26 -13 37 -27 47 -58 7 -23 20 -43 29 -45
10 -3 20 -11 23 -19 3 -8 13 -14 23 -14 10 0 27 -14 38 -30 22 -33 48 -36 53
-7 3 12 -4 20 -17 24 -12 3 -21 11 -21 18 0 7 -7 15 -15 19 -8 3 -12 12 -9 21
5 11 -1 15 -21 15 -24 0 -26 3 -21 25 5 18 2 25 -9 25 -8 0 -15 7 -15 15 0 9
-6 18 -14 21 -8 3 -16 14 -19 25 -3 13 -14 19 -31 19 -18 0 -30 8 -38 25 -6
14 -19 25 -30 25 -10 0 -18 5 -18 10 0 6 -9 10 -20 10 -11 0 -20 7 -20 15 0 8
-7 15 -16 15 -16 0 -44 23 -44 36 0 11 -51 55 -76 65 -17 6 -24 16 -24 34 0
14 5 25 10 25 6 0 10 5 10 10 0 6 -16 10 -35 10 -22 0 -38 6 -41 15 -4 8 -12
15 -19 15 -7 0 -16 15 -19 34 -5 26 -13 36 -33 41 -29 7 -36 15 -85 88 -18 27
-39 47 -50 47 -10 0 -19 3 -19 8 -1 4 -3 17 -4 29 -1 13 -8 29 -14 37 -12 14
-10 84 3 104 3 6 -1 27 -10 48 -19 46 -14 110 15 199 11 33 19 60 18 61 -1 1
-15 -7 -31 -17z"/>
<path d="M4476 3874 c-10 -37 0 -41 29 -14 31 29 32 40 1 40 -17 0 -26 -7 -30
-26z"/>
<path d="M3530 3796 c-10 -28 -6 -292 6 -356 4 -19 13 -39 20 -43 8 -4 14 -24
14 -43 0 -39 33 -94 56 -94 8 0 14 -10 14 -24 0 -52 165 -255 295 -363 22 -18
43 -33 47 -33 5 0 8 -5 8 -12 0 -6 11 -26 25 -44 14 -18 25 -36 25 -41 0 -4
14 -26 30 -47 17 -22 30 -46 30 -53 0 -7 8 -21 18 -31 19 -19 72 -98 72 -107
0 -7 54 -66 104 -113 21 -20 42 -47 47 -60 5 -13 13 -21 18 -17 6 3 13 -1 18
-8 4 -7 15 -16 23 -19 8 -3 21 -25 28 -49 7 -24 29 -60 48 -82 19 -21 39 -49
44 -63 6 -14 18 -24 29 -24 15 0 23 -10 30 -37 6 -21 11 -43 11 -50 0 -6 15
-30 34 -52 19 -23 38 -50 41 -61 4 -11 10 -20 14 -20 4 0 16 -8 27 -18 10 -10
27 -21 37 -25 10 -4 25 -20 35 -37 21 -36 26 -37 40 -5 17 38 15 75 -5 82 -23
9 -70 60 -89 96 -8 15 -19 27 -24 27 -6 0 -10 6 -10 14 0 8 -7 16 -15 20 -8 3
-15 17 -15 31 0 14 -4 25 -9 25 -5 0 -12 25 -16 57 -7 54 -23 112 -24 86 -1
-7 -8 -13 -17 -13 -18 0 -44 57 -44 96 0 26 0 27 -20 9 -19 -17 -20 -17 -20 0
0 14 -3 15 -14 6 -12 -10 -15 -2 -21 48 -4 33 -4 69 0 80 4 15 2 21 -9 21 -13
0 -14 8 -9 45 5 38 3 45 -11 45 -9 0 -22 12 -29 28 -6 15 -14 29 -18 32 -3 3
-8 13 -12 23 -4 9 -12 16 -19 15 -6 -2 -15 8 -18 22 -3 14 -16 46 -28 73 -12
26 -19 53 -16 61 3 8 -2 26 -11 40 -13 20 -16 42 -13 91 2 36 2 65 -1 65 -2 0
-12 -7 -22 -16 -17 -15 -18 -14 -12 20 5 31 3 35 -11 30 -13 -5 -16 0 -16 25
0 17 -4 31 -10 31 -5 0 -7 13 -3 30 3 20 1 30 -6 30 -9 0 -9 5 0 22 10 18 9
20 -5 15 -23 -9 -21 37 4 78 17 28 18 34 5 39 -8 3 -23 2 -32 -1 -13 -5 -15
-3 -9 13 14 35 25 74 20 74 -3 0 -15 -5 -26 -11 -19 -10 -20 -9 -14 15 3 14 2
26 -3 26 -5 0 15 44 44 97 30 53 51 101 49 105 -3 5 2 20 11 35 13 20 14 27 5
33 -10 6 -7 17 10 45 12 20 20 39 16 42 -14 15 -59 -34 -92 -100 -19 -39 -48
-85 -64 -102 -34 -37 -86 -138 -95 -188 -11 -59 14 -150 90 -322 8 -16 23 -58
35 -92 12 -34 28 -64 36 -67 8 -3 14 -16 14 -28 0 -13 7 -36 15 -52 8 -15 15
-36 15 -46 0 -10 7 -23 15 -30 8 -7 15 -23 15 -36 0 -12 5 -26 10 -29 6 -3 10
-17 10 -31 0 -13 4 -24 10 -24 5 0 17 -15 26 -32 9 -18 23 -37 30 -41 8 -4 14
-13 14 -20 0 -7 9 -23 20 -37 11 -15 20 -41 20 -63 0 -24 5 -40 15 -43 17 -7
18 -13 6 -33 -8 -12 -11 -12 -24 1 -8 8 -17 26 -19 39 -2 16 -9 23 -19 21 -10
-1 -19 6 -22 18 -3 11 -11 19 -18 18 -8 -2 -15 7 -17 20 -2 12 -10 22 -18 22
-8 0 -14 4 -14 9 0 5 -6 16 -12 23 -24 26 -58 77 -58 88 0 6 -10 27 -23 48
-13 20 -30 53 -37 72 -8 19 -22 44 -32 54 -10 11 -18 29 -18 41 0 11 -10 25
-22 30 -16 7 -22 18 -21 33 2 19 1 21 -17 10 -27 -17 -34 -5 -21 33 15 44 6
48 -29 14 -26 -25 -30 -26 -30 -9 1 10 6 35 13 54 15 41 11 76 -6 62 -7 -5
-23 -13 -36 -17 -23 -7 -24 -6 -17 35 l7 42 -31 -7 c-30 -7 -36 1 -31 43 1 6
-2 12 -7 12 -4 0 -14 -6 -21 -12 -11 -11 -12 -8 -7 15 4 16 4 37 1 48 -5 15
-10 17 -26 9 -23 -13 -24 -7 -3 25 15 23 15 25 0 25 -9 0 -16 5 -16 11 0 5 -4
7 -10 4 -5 -3 -10 1 -10 10 0 13 -6 15 -31 10 -22 -5 -30 -3 -28 7 3 17 -10
48 -29 70 -9 11 -12 27 -8 43 4 14 2 25 -4 25 -5 0 -7 13 -3 32 5 23 2 34 -12
44 -13 10 -16 22 -12 48 4 26 2 35 -11 38 -15 4 -17 19 -16 101 1 72 -2 97
-12 97 -7 0 -19 3 -28 6 -11 4 -19 -2 -26 -20z"/>
<path d="M4500 3783 c0 -9 7 -24 16 -34 11 -13 13 -22 6 -36 -12 -22 2 -53 23
-53 10 0 13 -8 9 -27 -3 -16 1 -41 10 -58 l16 -30 0 36 c0 20 3 57 6 83 5 31
3 46 -5 46 -22 0 -51 35 -51 62 0 18 -5 28 -15 28 -8 0 -15 -8 -15 -17z"/>
<path d="M3298 3667 c6 -7 9 -23 5 -35 -6 -25 5 -28 31 -9 18 13 18 15 -5 35
-25 24 -48 30 -31 9z"/>
<path d="M4607 3514 c-13 -14 -7 -42 23 -100 29 -56 30 -57 24 -21 -9 53 -39
129 -47 121z"/>
<path d="M4673 3296 c3 -7 22 -69 42 -137 38 -129 41 -136 50 -127 15 15 -69
278 -88 278 -5 0 -7 -6 -4 -14z"/>
<path d="M2760 3181 c-17 -33 -12 -76 14 -100 12 -12 28 -40 35 -61 6 -22 16
-40 22 -40 20 0 59 33 74 63 16 31 15 33 -12 55 -15 13 -47 41 -70 63 -23 21
-44 39 -47 39 -3 0 -10 -9 -16 -19z"/>
<path d="M3018 3010 c32 -33 42 -50 42 -76 0 -18 5 -36 10 -39 6 -3 10 -18 10
-32 0 -24 3 -25 35 -20 37 6 105 43 105 57 0 4 -9 10 -19 13 -12 3 -21 15 -23
33 -2 22 -10 30 -35 38 -18 5 -33 13 -33 17 0 13 -50 35 -95 43 l-39 8 42 -42z"/>
<path d="M3237 2879 c-16 -9 -52 -68 -45 -73 2 -2 47 -11 101 -21 76 -14 100
-16 110 -6 9 9 7 13 -11 17 -12 4 -22 10 -22 15 0 4 -12 21 -27 37 -31 33 -79
47 -106 31z"/>
<path d="M5015 2813 c5 -10 22 -58 40 -108 44 -124 97 -249 134 -315 36 -64
39 -56 11 25 -11 32 -20 66 -20 76 0 48 -139 339 -162 339 -6 0 -7 -7 -3 -17z"/>
<path d="M3060 2762 c-37 -30 -54 -178 -25 -216 8 -11 15 -29 15 -41 0 -47 16
-53 165 -60 165 -8 189 -10 235 -24 19 -5 51 -14 71 -19 20 -5 43 -13 50 -18
17 -10 50 -10 66 -1 7 4 14 -1 18 -14 7 -20 98 -69 130 -69 8 0 15 -6 15 -13
0 -6 15 -19 33 -26 17 -8 38 -23 45 -33 7 -10 18 -18 23 -18 5 0 23 -13 39
-30 16 -16 34 -30 40 -30 5 0 10 -4 10 -8 0 -10 94 -112 103 -112 4 0 17 -10
29 -22 21 -21 23 -22 26 -4 2 10 0 21 -5 25 -4 3 -14 18 -22 34 -8 15 -20 27
-26 27 -17 0 -45 34 -45 54 0 10 -5 14 -12 10 -6 -4 -16 0 -22 8 -6 9 -20 17
-31 19 -12 3 -21 14 -23 27 -2 12 -10 22 -18 22 -8 0 -14 8 -14 18 0 22 -32
62 -49 62 -6 0 -11 7 -11 16 0 8 -5 24 -11 35 -10 19 -12 20 -29 4 -17 -15
-18 -15 -25 13 -4 22 -12 30 -28 30 -39 1 -81 9 -111 21 -23 9 -27 15 -22 36
8 30 -4 32 -29 5 -19 -21 -55 -27 -55 -9 0 6 -9 8 -20 4 -14 -4 -22 -1 -26 10
-5 11 -14 15 -29 11 -15 -4 -25 -1 -28 8 -4 10 -22 13 -71 10 -55 -4 -68 -1
-73 12 -5 13 -15 15 -50 10 -26 -3 -42 -2 -38 4 8 13 -28 30 -64 30 -33 0 -37
9 -21 41 8 15 7 19 -4 19 -9 0 -19 12 -22 28 -4 15 -14 37 -22 50 -13 19 -12
25 1 46 14 20 14 25 2 30 -8 3 -24 -3 -35 -12z"/>
<path d="M2740 2420 c0 -6 4 -18 9 -28 5 -9 15 -36 22 -59 12 -42 13 -43 55
-43 46 0 54 -9 54 -66 0 -33 1 -34 28 -27 33 9 55 9 157 -5 124 -16 155 -32
155 -79 0 -25 7 -27 150 -42 58 -6 104 -18 145 -37 33 -16 65 -28 71 -29 7 0
20 -10 30 -22 18 -20 125 -66 143 -60 5 1 20 -9 33 -23 14 -14 33 -32 44 -41
29 -24 65 -68 102 -124 41 -62 41 -105 0 -116 -23 -6 -28 -3 -37 22 -5 16 -17
29 -25 29 -9 0 -18 11 -22 25 -5 20 -9 23 -19 15 -10 -8 -16 -8 -22 2 -4 7
-22 20 -40 30 -27 14 -32 14 -37 2 -8 -21 -26 -17 -26 6 0 11 -6 20 -14 20 -8
0 -16 6 -18 12 -4 10 -10 10 -30 1 -23 -10 -27 -9 -32 10 -7 29 -29 8 -24 -23
3 -23 25 -37 98 -65 25 -9 66 -28 92 -41 27 -13 54 -24 63 -24 8 0 19 -9 25
-20 6 -11 16 -20 23 -20 7 0 18 -14 24 -31 7 -17 21 -33 32 -36 14 -3 21 -14
21 -28 0 -27 58 -66 90 -60 12 2 20 -1 20 -10 0 -16 32 -75 41 -75 4 0 12 6
18 14 16 19 10 122 -6 119 -9 -2 -13 10 -13 37 0 29 -4 40 -15 40 -8 0 -15 8
-15 18 0 11 -8 27 -19 36 -10 9 -25 44 -32 77 -12 55 -17 63 -51 80 -21 11
-38 26 -38 34 0 8 -4 15 -10 15 -5 0 -39 30 -75 66 -54 56 -67 65 -80 54 -12
-10 -16 -9 -20 4 -3 9 -7 23 -10 32 -3 9 -11 14 -20 10 -8 -3 -18 1 -22 7 -5
7 -25 21 -47 31 -21 10 -41 26 -43 37 -4 13 -21 21 -59 29 -44 9 -54 15 -54
32 0 14 -5 18 -15 14 -23 -9 -71 4 -94 25 -17 16 -25 18 -41 9 -22 -12 -27 -1
-9 17 9 9 3 12 -21 11 -25 -1 -40 6 -57 26 -20 23 -30 27 -65 25 -26 -2 -43 1
-46 9 -2 7 -13 10 -28 6 -14 -4 -41 2 -69 16 -24 12 -57 21 -72 20 -64 -5 -67
-3 -44 29 40 56 12 83 -42 41 -39 -31 -72 -26 -97 15 -15 24 -29 35 -46 35
-13 0 -24 -5 -24 -10z"/>
<path d="M4910 2014 c0 -25 69 -145 102 -176 33 -31 34 -28 9 26 -11 23 -22
49 -25 59 -3 11 -15 21 -26 24 -11 3 -24 20 -30 39 -13 38 -30 54 -30 28z"/>
<path d="M5103 1978 c23 -55 56 -114 57 -101 0 7 -9 32 -19 55 -11 24 -22 51
-25 61 -3 9 -10 17 -16 17 -6 0 -5 -12 3 -32z"/>
<path d="M3103 1978 c-29 -14 -29 -24 -2 -31 29 -8 49 2 49 24 0 21 -14 23
-47 7z"/>
<path d="M5311 1919 c-1 -22 31 -126 36 -113 2 5 -5 37 -16 70 -10 32 -19 52
-20 43z"/>
<path d="M3407 1864 c-21 -14 -35 -29 -32 -33 13 -22 195 -64 195 -45 -1 14
-27 45 -36 43 -5 -1 -21 1 -36 5 -21 6 -28 15 -28 32 0 31 -16 30 -63 -2z"/>
<path d="M4390 1830 c1 -20 24 -50 39 -50 6 0 14 -7 17 -15 8 -20 24 -19 24 1
0 8 -13 29 -30 46 -17 16 -30 24 -30 16 0 -10 -3 -9 -10 2 -9 13 -10 13 -10 0z"/>
<path d="M4850 1743 c0 -7 33 -58 44 -68 6 -5 19 -23 29 -38 10 -15 26 -31 35
-34 25 -9 102 -91 102 -109 0 -14 2 -14 15 -1 8 9 20 17 27 19 19 7 -8 54 -53
96 -114 105 -126 113 -140 90 -6 -9 -11 -4 -19 18 -6 17 -17 31 -25 31 -8 0
-15 -2 -15 -4z"/>
<path d="M4810 1585 c0 -20 30 -79 37 -72 7 7 -16 75 -28 82 -5 4 -9 -1 -9
-10z"/>
<path d="M4154 1376 c-3 -15 -2 -37 4 -49 9 -20 10 -19 17 16 9 47 -10 76 -21
33z"/>
<path d="M5894 1985 c-9 -14 -23 -25 -30 -25 -8 0 -20 -12 -26 -26 -11 -22
-10 -28 7 -40 26 -19 32 -18 49 9 15 23 32 107 22 107 -3 0 -13 -11 -22 -25z"/>
<path d="M6013 603 c-15 -26 -16 -62 -3 -83 15 -24 21 -6 18 51 -3 49 -4 52
-15 32z"/>
<path d="M6755 2369 c-16 -5 -58 -14 -91 -19 -59 -10 -196 -68 -209 -90 -3 -6
-3 -19 0 -30 9 -29 48 -25 144 15 63 27 97 35 142 35 54 0 59 2 65 24 7 31 2
69 -11 72 -5 1 -23 -2 -40 -7z"/>
<path d="M4945 763 c26 -104 4 -184 -67 -249 -45 -41 -45 -53 2 -29 72 37 128
193 96 268 -18 44 -42 51 -31 10z"/>
<path d="M7380 9795 c0 -2 17 -39 39 -82 21 -43 51 -116 67 -163 26 -79 28
-96 29 -250 0 -148 -3 -175 -27 -264 -33 -124 -19 -113 18 14 25 85 28 111 28
250 0 91 -5 180 -13 215 -13 64 -116 285 -132 285 -5 0 -9 -2 -9 -5z"/>
<path d="M4625 9729 c-16 -6 -14 -8 12 -8 35 -1 123 -36 123 -48 0 -5 16 -17
35 -27 19 -10 33 -24 32 -30 -1 -6 8 -12 21 -14 13 -2 26 -10 29 -18 3 -8 11
-14 19 -14 7 0 21 -8 31 -18 10 -11 45 -38 78 -62 33 -24 87 -67 120 -95 78
-66 101 -83 92 -68 -9 15 -300 263 -371 316 -89 68 -179 103 -221 86z"/>
<path d="M4540 9700 c-28 -28 -35 -62 -34 -160 0 -118 42 -270 119 -439 34
-75 66 -145 70 -156 5 -13 9 -16 12 -7 3 7 -16 54 -41 105 -61 122 -104 259
-121 387 -24 174 -16 270 22 270 7 0 13 5 13 10 0 16 -18 12 -40 -10z"/>
<path d="M6929 9683 c-13 -16 -12 -17 4 -4 9 7 17 15 17 17 0 8 -8 3 -21 -13z"/>
<path d="M6783 9500 c-43 -56 -87 -118 -98 -139 -32 -59 -86 -129 -147 -192
-53 -54 -72 -89 -49 -89 11 0 81 72 81 84 0 5 14 22 30 38 17 15 30 35 30 43
0 8 5 15 10 15 6 0 14 8 17 18 4 9 23 41 42 71 20 29 47 70 61 91 14 21 45 63
68 95 24 31 41 59 39 62 -3 2 -41 -41 -84 -97z"/>
<path d="M5317 9209 c3 -13 19 -43 35 -66 32 -47 34 -55 14 -47 -7 3 -20 -2
-29 -10 -11 -11 -26 -14 -49 -10 -25 4 -29 3 -18 -5 21 -14 95 -25 125 -17 16
4 25 13 25 27 0 23 -45 92 -83 128 l-26 23 6 -23z"/>
<path d="M7429 9039 c-20 -38 -31 -65 -24 -59 13 11 68 120 63 125 -2 2 -19
-28 -39 -66z"/>
<path d="M5504 9039 c-6 -8 -16 -29 -22 -47 -14 -42 6 -40 26 2 16 33 13 67
-4 45z"/>
<path d="M6660 9040 c-12 -8 -11 -10 7 -10 12 0 25 -4 28 -10 7 -11 48 -14 58
-3 24 24 -59 45 -93 23z"/>
<path d="M6360 9011 c0 -12 5 -21 10 -21 6 0 10 6 10 14 0 8 -4 18 -10 21 -5
3 -10 -3 -10 -14z"/>
<path d="M7440 8887 c-12 -24 -11 -34 3 -75 10 -26 17 -55 17 -64 0 -9 5 -20
11 -24 9 -5 10 4 4 32 -4 21 -11 66 -14 99 -7 59 -7 60 -21 32z"/>
<path d="M7165 8850 c3 -5 8 -10 11 -10 2 0 4 5 4 10 0 6 -5 10 -11 10 -5 0
-7 -4 -4 -10z"/>
<path d="M7387 8853 c-11 -10 -8 -51 3 -58 6 -3 10 3 10 14 0 10 3 26 6 35 6
16 -7 22 -19 9z"/>
<path d="M6946 8842 c-2 -4 -1 -14 4 -22 7 -11 11 -11 24 -1 9 7 13 17 10 22
-7 11 -31 12 -38 1z"/>
<path d="M7071 8822 c-6 -2 -11 -10 -11 -18 0 -8 -6 -14 -12 -14 -7 -1 1 -7
17 -14 17 -7 37 -21 45 -31 13 -15 11 -20 -20 -47 -19 -16 -26 -25 -14 -19 37
18 95 91 92 114 -2 17 -12 23 -44 27 -23 3 -46 4 -53 2z"/>
<path d="M4733 8765 c-3 -9 -3 -18 -1 -21 3 -3 8 4 11 16 6 23 -1 27 -10 5z"/>
<path d="M4848 8748 c-27 -34 -21 -46 7 -16 14 15 25 30 25 33 0 12 -16 3 -32
-17z"/>
<path d="M5585 8720 c-18 -19 -17 -23 3 -108 11 -48 24 -109 28 -137 10 -75
18 -85 39 -45 11 22 16 47 13 74 -8 64 -50 236 -58 236 -4 0 -15 -9 -25 -20z"/>
<path d="M6067 8671 c-21 -33 -52 -93 -69 -133 -27 -65 -30 -80 -25 -144 5
-66 22 -122 33 -111 3 2 6 42 8 88 2 74 7 93 40 158 21 41 49 91 63 112 13 21
23 48 21 61 -6 42 -32 30 -71 -31z"/>
<path d="M4887 8654 c-8 -8 1 -24 14 -24 5 0 9 7 9 15 0 15 -12 20 -23 9z"/>
<path d="M5500 8618 c0 -25 3 -29 10 -18 13 20 13 50 0 50 -5 0 -10 -15 -10
-32z"/>
<path d="M5454 8626 c-3 -9 -12 -16 -18 -16 -48 0 -72 -283 -29 -332 22 -25
33 -13 33 35 0 23 9 82 20 131 11 50 20 111 20 137 0 48 -15 74 -26 45z"/>
<path d="M6226 8607 c-17 -33 -17 -47 -8 -130 6 -50 14 -122 17 -159 4 -38 10
-68 14 -68 13 0 50 98 62 165 14 75 -1 146 -35 161 -12 5 -23 22 -26 39 l-6
30 -18 -38z"/>
<path d="M7410 8575 c-7 -9 -10 -18 -7 -21 3 -3 10 4 17 15 13 25 8 27 -10 6z"/>
<path d="M5808 8545 c-12 -20 -18 -90 -9 -104 7 -10 11 -2 16 31 7 49 4 90 -7
73z"/>
<path d="M7256 8534 c-5 -15 4 -36 30 -75 45 -68 43 -66 54 -49 18 28 10 49
-25 66 -24 11 -38 26 -43 48 -8 28 -9 29 -16 10z"/>
<path d="M6489 8491 l-24 -20 23 6 c23 5 38 20 29 29 -2 2 -15 -4 -28 -15z"/>
<path d="M4800 8455 c0 -9 6 -12 15 -9 8 4 15 10 15 15 0 5 -7 9 -15 9 -8 0
-15 -7 -15 -15z"/>
<path d="M6451 8454 c0 -11 3 -14 6 -6 3 7 2 16 -1 19 -3 4 -6 -2 -5 -13z"/>
<path d="M6505 8434 c-46 -24 -53 -35 -15 -24 19 5 41 17 49 25 20 19 4 19
-34 -1z"/>
<path d="M6625 8413 c-60 -9 -147 -34 -178 -53 -30 -18 -30 -20 -8 -20 12 0
63 14 113 30 49 17 95 30 103 30 8 0 17 5 20 10 6 10 4 10 -50 3z"/>
<path d="M5152 8359 c3 -16 118 -42 131 -30 15 15 -22 32 -78 38 -45 5 -55 3
-53 -8z"/>
<path d="M6375 8214 c-137 -71 -180 -128 -219 -293 -13 -56 -32 -111 -42 -122
-17 -18 -17 -22 -1 -73 16 -51 19 -54 49 -51 39 3 60 36 53 85 -9 56 16 64 90
29 79 -37 158 -39 230 -5 113 52 169 135 191 277 7 49 15 93 18 98 9 14 -15
28 -96 55 -105 36 -203 36 -273 0z m129 -127 c11 -32 -2 -51 -27 -41 -19 7
-33 47 -22 64 12 19 39 6 49 -23z m-105 -75 c14 -126 66 -189 116 -142 21 20
56 112 71 188 7 34 17 38 58 22 23 -8 26 -15 26 -55 0 -87 -81 -193 -165 -216
-88 -25 -199 24 -236 105 -20 45 -25 101 -9 111 6 3 10 -2 10 -12 0 -25 53
-135 74 -152 13 -11 10 -1 -8 34 -17 31 -26 64 -26 92 0 38 5 50 35 80 20 20
38 34 40 31 2 -2 9 -41 14 -86z"/>
<path d="M5137 8208 c-21 -5 -36 -15 -34 -21 2 -6 -10 -22 -25 -35 -20 -17
-27 -30 -22 -41 4 -9 10 -51 15 -93 12 -126 65 -205 167 -250 72 -32 137 -34
216 -5 l68 25 -7 -36 c-11 -55 -11 -101 0 -104 15 -4 73 89 81 129 8 41 -25
202 -53 261 -25 52 -91 116 -155 148 -42 22 -69 28 -133 30 -44 2 -97 -2 -118
-8z m154 -121 c-6 -8 -8 -17 -5 -20 4 -4 7 -49 8 -101 1 -109 13 -132 60 -120
33 8 111 108 121 154 8 38 19 38 36 -1 10 -25 10 -41 1 -76 -16 -57 -37 -86
-85 -113 -52 -30 -111 -29 -179 3 -79 35 -111 86 -116 179 -3 43 0 74 7 81 8
8 11 7 11 -6 0 -9 5 -16 12 -14 7 1 16 -19 22 -48 12 -54 31 -95 46 -95 5 0 3
14 -4 31 -18 43 -3 107 32 136 30 25 51 31 33 10z m97 -26 c-4 -20 -36 -27
-52 -11 -8 8 -6 15 7 25 23 17 49 9 45 -14z"/>
<path d="M6039 8178 c-2 -18 -1 -51 2 -73 3 -22 7 -32 8 -23 0 10 8 38 17 64
13 39 13 48 2 55 -21 14 -26 11 -29 -23z"/>
<path d="M5570 8171 c0 -5 5 -13 11 -17 6 -4 24 -34 40 -68 20 -43 28 -54 29
-37 0 49 -23 102 -52 117 -15 8 -28 10 -28 5z"/>
<path d="M5652 7965 c0 -16 2 -22 5 -12 2 9 2 23 0 30 -3 6 -5 -1 -5 -18z"/>
<path d="M4866 7891 c-8 -12 11 -25 53 -40 52 -17 64 -15 49 8 -20 33 -89 54
-102 32z"/>
<path d="M6975 7891 c-11 -3 -29 -12 -40 -18 -20 -13 -20 -13 -1 -28 17 -13
22 -28 25 -72 2 -25 29 -13 41 17 16 38 19 102 5 105 -5 2 -19 0 -30 -4z"/>
<path d="M4781 7858 c-18 -59 -24 -108 -12 -108 19 0 44 51 45 92 1 51 -19 60
-33 16z"/>
<path d="M4926 7790 c6 -6 19 -12 30 -14 37 -8 239 -89 251 -102 18 -18 102
-29 115 -16 7 7 -1 13 -28 18 -58 10 -128 39 -202 84 -55 34 -74 40 -121 40
-37 0 -52 -3 -45 -10z"/>
<path d="M6579 7741 c-41 -21 -86 -41 -100 -45 -14 -4 -19 -10 -12 -12 14 -6
102 25 160 56 21 11 49 20 63 20 14 0 32 5 40 10 11 7 3 10 -30 10 -32 -1 -67
-12 -121 -39z"/>
<path d="M5996 7623 c-9 -9 -8 -91 2 -97 4 -2 15 2 26 9 16 12 17 18 6 49 -12
37 -23 50 -34 39z"/>
<path d="M6678 7577 c-41 -11 -60 -27 -32 -27 12 0 23 -3 26 -6 3 -3 66 -6
139 -8 74 -1 142 -6 153 -11 10 -4 29 -32 42 -62 28 -62 40 -69 151 -78 68 -6
86 -4 124 13 24 11 54 29 66 41 12 11 26 21 31 21 5 0 16 7 23 17 13 15 10 15
-26 9 -22 -4 -58 -14 -80 -22 -41 -14 -152 -19 -193 -8 -15 4 -32 25 -49 58
-14 28 -33 56 -42 63 -18 14 -279 14 -333 0z"/>
<path d="M5289 7491 c-24 -15 -64 -46 -89 -69 -38 -34 -42 -41 -27 -47 28 -12
167 97 167 131 0 18 1 19 -51 -15z"/>
<path d="M6715 7449 c-16 -5 -47 -11 -68 -13 -22 -3 -41 -7 -45 -10 -17 -18
173 7 193 25 12 11 -41 10 -80 -2z"/>
<path d="M5001 7390 c-35 -8 -89 -54 -75 -63 5 -3 31 6 58 19 28 13 61 24 75
25 31 1 75 17 50 18 -9 1 -29 3 -45 5 -16 3 -44 1 -63 -4z"/>
<path d="M5455 7378 c-6 -19 -8 -20 -12 -5 -6 21 -31 23 -39 2 -4 -8 -18 -15
-33 -15 -31 0 -70 -24 -58 -36 4 -5 22 -3 39 4 20 7 36 8 43 2 7 -6 19 -4 34
6 17 12 25 13 36 4 12 -10 16 -9 21 3 8 21 2 50 -12 54 -6 2 -15 -6 -19 -19z"/>
<path d="M6160 7385 c-10 -12 -10 -19 -1 -28 14 -14 44 2 49 27 4 21 -31 22
-48 1z"/>
<path d="M6248 7392 c-31 -4 -31 -4 -22 -26 8 -20 28 -21 44 -1 17 21 9 30
-22 27z"/>
<path d="M6318 7393 c-10 -3 -18 -9 -18 -14 0 -15 30 -23 43 -10 14 14 -2 29
-25 24z"/>
<path d="M6376 7392 c-10 -9 15 -32 35 -32 19 0 35 17 25 27 -8 8 -53 12 -60
5z"/>
<path d="M6450 7370 c0 -6 7 -10 15 -10 8 0 15 2 15 4 0 2 -7 6 -15 10 -8 3
-15 1 -15 -4z"/>
<path d="M5265 7329 c-11 -17 1 -21 15 -4 8 9 8 15 2 15 -6 0 -14 -5 -17 -11z"/>
<path d="M6412 7278 c3 -7 15 -15 28 -16 21 -3 22 -2 11 12 -16 19 -44 21 -39
4z"/>
<path d="M6246 7271 c-3 -5 0 -11 7 -13 17 -7 38 2 31 13 -7 12 -31 12 -38 0z"/>
<path d="M6320 7270 c0 -5 7 -10 15 -10 8 0 15 5 15 10 0 6 -7 10 -15 10 -8 0
-15 -4 -15 -10z"/>
<path d="M6115 7260 c3 -5 10 -10 16 -10 5 0 9 5 9 10 0 6 -7 10 -16 10 -8 0
-12 -4 -9 -10z"/>
<path d="M6190 7259 c0 -5 5 -7 10 -4 6 3 10 8 10 11 0 2 -4 4 -10 4 -5 0 -10
-5 -10 -11z"/>
<path d="M5337 7253 c-13 -12 -7 -23 13 -23 11 0 20 7 20 15 0 15 -21 21 -33
8z"/>
<path d="M5410 7246 c0 -9 7 -16 16 -16 9 0 14 5 12 12 -6 18 -28 21 -28 4z"/>
<path d="M5475 7250 c-3 -5 1 -10 10 -10 9 0 13 5 10 10 -3 6 -8 10 -10 10 -2
0 -7 -4 -10 -10z"/>
<path d="M5180 7214 l-25 -13 27 -1 c15 0 29 4 33 9 10 17 -10 20 -35 5z"/>
<path d="M4711 7180 c-75 -26 -131 -53 -72 -35 12 4 53 15 89 26 36 10 70 23
76 29 15 15 -1 12 -93 -20z"/>
<path d="M6520 7196 c0 -10 8 -16 22 -16 12 0 19 1 17 3 -2 1 -12 9 -21 16
-15 12 -18 11 -18 -3z"/>
<path d="M6115 7170 c3 -5 10 -10 16 -10 5 0 9 5 9 10 0 6 -7 10 -16 10 -8 0
-12 -4 -9 -10z"/>
<path d="M6187 7174 c-8 -8 1 -24 14 -24 5 0 9 7 9 15 0 15 -12 20 -23 9z"/>
<path d="M6357 7174 c-8 -8 1 -24 14 -24 5 0 9 7 9 15 0 15 -12 20 -23 9z"/>
<path d="M5413 7163 c-20 -7 -15 -23 7 -23 11 0 20 4 20 9 0 13 -12 19 -27 14z"/>
<path d="M5481 7161 c-10 -7 -10 -10 -1 -16 6 -4 16 -3 22 3 13 13 -4 23 -21
13z"/>
<path d="M6265 7160 c3 -5 10 -10 16 -10 5 0 9 5 9 10 0 6 -7 10 -16 10 -8 0
-12 -4 -9 -10z"/>
<path d="M6475 7160 c-3 -5 -3 -19 0 -31 4 -11 1 -27 -7 -36 -11 -14 -10 -15
12 -8 14 4 26 8 27 9 0 0 3 17 5 36 2 26 -1 35 -14 38 -9 2 -19 -2 -23 -8z"/>
<path d="M6995 7160 c11 -5 38 -8 60 -8 38 0 39 1 10 8 -16 4 -43 8 -60 8 -25
1 -27 -1 -10 -8z"/>
<path d="M5330 7150 c0 -5 7 -10 15 -10 8 0 15 5 15 10 0 6 -7 10 -15 10 -8 0
-15 -4 -15 -10z"/>
<path d="M7108 7143 c6 -2 18 -2 25 0 6 3 1 5 -13 5 -14 0 -19 -2 -12 -5z"/>
<path d="M4500 7106 c-47 -19 -119 -47 -160 -64 -41 -16 -113 -42 -160 -57
-47 -15 -89 -32 -95 -37 -13 -13 13 -6 135 37 85 30 324 122 375 145 13 6 15
9 5 9 -8 0 -53 -15 -100 -33z"/>
<path d="M6315 7020 c7 -23 47 -70 60 -70 10 0 -23 55 -45 75 l-23 20 8 -25z"/>
<path d="M4595 6710 c-9 -16 -13 -30 -11 -30 3 0 14 14 26 30 12 17 17 30 11
30 -6 0 -17 -13 -26 -30z"/>
<path d="M4565 6659 c-4 -6 -5 -12 -2 -15 2 -3 7 2 10 11 7 17 1 20 -8 4z"/>
<path d="M4350 6605 c-7 -9 -11 -17 -9 -20 3 -2 10 5 17 15 14 24 10 26 -8 5z"/>
<path d="M22 2610 c0 -14 2 -19 5 -12 2 6 2 18 0 25 -3 6 -5 1 -5 -13z"/>
<path d="M7360 1130 c-18 -6 -5 -8 42 -9 63 -1 142 -7 605 -48 176 -15 218
-14 200 3 -9 9 -141 20 -457 38 -151 9 -295 18 -320 20 -25 2 -56 0 -70 -4z"/>
<path d="M288 833 c17 -2 47 -2 65 0 17 2 3 4 -33 4 -36 0 -50 -2 -32 -4z"/>
<path d="M427 823 c18 -2 50 -2 70 0 21 2 7 4 -32 4 -38 0 -55 -2 -38 -4z"/>
<path d="M759 804 c79 -8 285 -32 456 -54 172 -22 361 -42 421 -45 l109 -4
-130 14 c-71 7 -239 27 -372 44 -326 42 -514 61 -577 60 -28 -1 14 -8 93 -15z"/>
<path d="M18 693 c12 -2 30 -2 40 0 9 3 -1 5 -23 4 -22 0 -30 -2 -17 -4z"/>
<path d="M1838 693 c7 -3 16 -2 19 1 4 3 -2 6 -13 5 -11 0 -14 -3 -6 -6z"/>
<path d="M185 679 c49 -7 330 -11 310 -4 -5 2 -89 5 -185 7 -96 3 -152 1 -125
-3z"/>
<path d="M2000 683 c181 -6 685 -54 880 -83 102 -15 472 -51 477 -47 4 5 -130
23 -287 37 -63 6 -205 24 -315 40 -289 42 -498 60 -675 58 -85 -1 -121 -3 -80
-5z"/>
<path d="M3 616 c4 -12 304 -41 507 -50 166 -7 88 8 -125 24 -88 7 -211 18
-273 24 -78 9 -111 9 -109 2z"/>
<path d="M3 544 c7 -7 446 -54 502 -53 76 1 4 16 -110 23 -60 4 -168 14 -240
22 -147 16 -161 16 -152 8z"/>
<path d="M2013 543 c9 -2 23 -2 30 0 6 3 -1 5 -18 5 -16 0 -22 -2 -12 -5z"/>
<path d="M2083 533 c9 -2 25 -2 35 0 9 3 1 5 -18 5 -19 0 -27 -2 -17 -5z"/>
<path d="M968 523 c6 -2 18 -2 25 0 6 3 1 5 -13 5 -14 0 -19 -2 -12 -5z"/>
<path d="M2148 523 c7 -3 16 -2 19 1 4 3 -2 6 -13 5 -11 0 -14 -3 -6 -6z"/>
<path d="M1010 469 c89 -18 480 -68 730 -94 609 -62 979 -107 1280 -155 102
-16 221 -31 265 -34 l80 -5 -85 14 c-392 67 -1107 160 -1470 190 -192 16 -487
50 -696 80 -110 16 -177 18 -104 4z"/>
<path d="M1415 465 c6 -3 138 -16 295 -30 365 -33 967 -100 1135 -126 383 -60
428 -65 540 -59 99 6 103 7 35 8 -113 3 -308 26 -575 67 -49 8 -178 24 -285
35 -107 11 -253 27 -325 35 -127 15 -263 28 -615 60 -171 15 -225 17 -205 10z"/>
<path d="M890 419 c187 -28 463 -61 690 -84 356 -34 529 -53 720 -75 286 -34
443 -51 447 -47 12 12 -454 66 -1087 127 -118 12 -318 34 -445 50 -126 16
-266 31 -310 34 l-80 5 65 -10z"/>
<path d="M748 413 c6 -2 18 -2 25 0 6 3 1 5 -13 5 -14 0 -19 -2 -12 -5z"/>
<path d="M7753 373 c9 -2 25 -2 35 0 9 3 1 5 -18 5 -19 0 -27 -2 -17 -5z"/>
<path d="M7858 363 c7 -3 16 -2 19 1 4 3 -2 6 -13 5 -11 0 -14 -3 -6 -6z"/>
<path d="M7968 353 c6 -2 18 -2 25 0 6 3 1 5 -13 5 -14 0 -19 -2 -12 -5z"/>
<path d="M2 344 c6 -6 110 -17 318 -34 140 -12 248 -25 555 -70 193 -28 467
-58 675 -75 144 -11 84 2 -85 19 -184 19 -494 58 -675 86 -117 17 -192 26
-575 65 -158 16 -222 19 -213 9z"/>
<path d="M8055 341 c70 -15 161 -22 145 -13 -8 5 -53 12 -100 15 -56 4 -71 3
-45 -2z"/>
<path d="M3168 323 c7 -3 16 -2 19 1 4 3 -2 6 -13 5 -11 0 -14 -3 -6 -6z"/>
<path d="M3308 323 c6 -2 18 -2 25 0 6 3 1 5 -13 5 -14 0 -19 -2 -12 -5z"/>
<path d="M3485 300 c72 -10 227 -34 345 -54 309 -50 585 -84 597 -72 3 2 -22
7 -54 10 -195 20 -323 38 -433 61 -118 24 -515 76 -563 74 -12 -1 37 -9 108
-19z"/>
<path d="M88 273 c6 -2 18 -2 25 0 6 3 1 5 -13 5 -14 0 -19 -2 -12 -5z"/>
<path d="M3530 251 c8 -5 44 -11 80 -14 38 -4 57 -3 45 2 -28 11 -144 23 -125
12z"/>
<path d="M3450 201 c80 -25 137 -54 133 -67 -2 -6 2 -16 10 -22 11 -9 13 -7
13 10 -1 14 8 27 24 35 24 12 24 13 -15 11 -22 0 -61 8 -87 20 -26 11 -69 23
-95 26 -46 6 -46 5 17 -13z"/>
<path d="M3765 211 c12 -12 209 -41 269 -40 23 1 -13 9 -80 19 -66 9 -138 20
-160 24 -27 5 -36 4 -29 -3z"/>
<path d="M7058 183 c12 -2 32 -2 45 0 12 2 2 4 -23 4 -25 0 -35 -2 -22 -4z"/>
<path d="M7238 168 c4 -3 117 -13 252 -22 135 -9 333 -25 440 -36 194 -20 288
-25 278 -15 -7 8 -475 52 -678 64 -242 15 -300 17 -292 9z"/>
<path d="M4498 163 c7 -3 16 -2 19 1 4 3 -2 6 -13 5 -11 0 -14 -3 -6 -6z"/>
<path d="M4545 159 c-3 -4 26 -10 63 -14 37 -3 176 -22 310 -41 145 -20 278
-33 330 -33 l87 2 -70 8 c-38 4 -119 13 -180 19 -60 6 -173 20 -250 30 -231
31 -286 37 -290 29z"/>
<path d="M1743 153 c9 -2 25 -2 35 0 9 3 1 5 -18 5 -19 0 -27 -2 -17 -5z"/>
<path d="M1888 143 c12 -2 30 -2 40 0 9 3 -1 5 -23 4 -22 0 -30 -2 -17 -4z"/>
<path d="M4255 145 c15 -6 294 -45 318 -44 30 2 -182 37 -263 43 -36 3 -60 4
-55 1z"/>
<path d="M2034 120 c49 -11 100 -27 113 -36 13 -8 34 -14 46 -12 36 5 -120 57
-188 63 -56 4 -55 3 29 -15z"/>
<path d="M4125 100 c51 -8 182 -13 174 -6 -2 2 -53 6 -114 9 -72 3 -93 2 -60
-3z"/>
<path d="M176 92 c-9 -14 15 -28 46 -27 16 0 24 -3 21 -10 -3 -5 0 -4 8 3 9 9
10 15 2 23 -8 8 -13 8 -17 0 -5 -7 -15 -6 -31 5 -13 9 -26 11 -29 6z"/>
<path d="M3670 90 c30 -5 82 -10 115 -14 l60 -5 -65 14 c-36 8 -87 14 -115 13
l-50 -1 55 -7z"/>
<path d="M4618 93 c7 -3 16 -2 19 1 4 3 -2 6 -13 5 -11 0 -14 -3 -6 -6z"/>
<path d="M4340 80 c14 -4 34 -8 45 -8 16 0 15 2 -5 8 -14 4 -34 8 -45 8 -16 0
-15 -2 5 -8z"/>
<path d="M321 48 c2 -28 2 -29 6 -8 3 14 10 28 17 32 7 5 5 8 -6 8 -14 0 -18
-8 -17 -32z"/>
<path d="M370 51 c0 -32 14 -48 26 -30 4 8 3 9 -4 5 -8 -5 -12 1 -12 18 0 13
6 27 13 29 7 3 5 6 -5 6 -13 1 -18 -7 -18 -28z"/>
<path d="M421 48 c-1 -30 3 -38 17 -38 11 0 13 3 5 8 -6 4 -13 21 -16 37 -4
27 -4 27 -6 -7z"/>
<path d="M460 51 c0 -35 13 -47 30 -26 16 19 9 49 -13 53 -13 3 -17 -3 -17
-27z m30 0 c0 -11 -4 -23 -10 -26 -6 -4 -10 5 -10 19 0 14 5 26 10 26 6 0 10
-9 10 -19z"/>
<path d="M511 43 c1 -21 3 -30 6 -20 5 18 5 18 19 0 14 -17 14 -16 5 4 -8 15
-8 24 -1 28 13 8 3 25 -16 25 -10 0 -14 -11 -13 -37z m29 23 c0 -3 -4 -8 -10
-11 -5 -3 -10 -1 -10 4 0 6 5 11 10 11 6 0 10 -2 10 -4z"/>
<path d="M563 45 c0 -22 2 -30 4 -17 2 12 2 30 0 40 -3 9 -5 -1 -4 -23z"/>
<path d="M590 57 c0 -16 4 -26 9 -23 5 4 12 0 14 -6 3 -7 5 3 5 22 0 19 -2 29
-5 21 -5 -11 -7 -11 -14 0 -6 10 -9 6 -9 -14z"/>
<path d="M641 48 c2 -28 2 -29 6 -8 3 14 10 28 17 32 7 5 5 8 -6 8 -14 0 -18
-8 -17 -32z"/>
<path d="M740 48 c0 -24 3 -29 9 -18 6 8 7 18 4 23 -3 5 1 13 8 18 11 7 10 9
-3 9 -14 0 -18 -8 -18 -32z"/>
<path d="M781 43 c1 -21 3 -30 6 -20 4 17 6 17 17 2 10 -14 12 -12 13 19 1 29
-3 36 -18 36 -15 0 -19 -7 -18 -37z m29 17 c0 -5 -4 -10 -10 -10 -5 0 -10 5
-10 10 0 6 5 10 10 10 6 0 10 -4 10 -10z"/>
<path d="M832 48 c2 -24 9 -34 23 -36 l20 -4 -20 16 c-13 10 -15 15 -6 16 10
0 11 3 2 14 -9 11 -9 15 1 19 8 3 6 6 -5 6 -15 1 -18 -5 -15 -31z"/>
<path d="M882 48 c2 -17 10 -33 18 -35 10 -3 11 -2 4 4 -6 4 -11 17 -11 28 0
11 5 23 11 27 7 5 4 8 -7 8 -15 0 -18 -7 -15 -32z"/>
<path d="M960 63 c0 -10 4 -14 8 -8 4 6 11 13 16 18 5 4 2 7 -7 7 -10 0 -17
-8 -17 -17z"/>
<path d="M1018 73 c6 -2 12 -16 12 -29 0 -17 -4 -23 -12 -18 -7 4 -8 3 -4 -5
12 -18 26 -2 26 30 0 21 -5 29 -17 28 -11 0 -13 -3 -5 -6z"/>
<path d="M1050 50 c0 -27 3 -30 24 -26 14 2 27 -1 30 -7 2 -7 5 6 5 28 0 39 0
39 -13 16 l-14 -24 -6 21 c-11 32 -26 27 -26 -8z"/>
<path d="M698 53 c7 -3 16 -2 19 1 4 3 -2 6 -13 5 -11 0 -14 -3 -6 -6z"/>
<path d="M175 42 c-3 -3 -5 -12 -5 -20 0 -12 3 -12 15 -2 12 10 18 10 30 0 8
-7 22 -9 31 -6 13 5 13 8 2 20 -14 13 -62 19 -73 8z"/>
<path d="M961 33 c-1 -17 16 -25 25 -12 4 7 3 9 -4 5 -5 -3 -13 0 -15 6 -4 9
-6 10 -6 1z"/>
</g>
</svg>
