<?xml version="1.0" standalone="no"?>
<!DOCTYPE svg PUBLIC "-//W3C//DTD SVG 20010904//EN"
 "http://www.w3.org/TR/2001/REC-SVG-20010904/DTD/svg10.dtd">
<svg version="1.0" xmlns="http://www.w3.org/2000/svg"
 width="736.000000pt" height="1075.000000pt" viewBox="0 0 736.000000 1075.000000"
 preserveAspectRatio="xMidYMid meet">

<g transform="translate(0.000000,1075.000000) scale(0.100000,-0.100000)"
fill="#000000" stroke="none">
<path d="M4633 10310 c-23 -10 -64 -36 -92 -58 -98 -78 -130 -85 -436 -92
-287 -8 -306 -11 -431 -66 -41 -18 -95 -30 -178 -40 -121 -14 -266 -54 -346
-94 -25 -12 -103 -55 -175 -95 -71 -41 -186 -98 -255 -127 l-125 -53 -123 0
c-67 0 -122 -2 -122 -5 0 -3 7 -16 16 -28 13 -19 13 -22 1 -22 -8 0 -25 -9
-38 -20 l-24 -19 25 -1 c24 -1 24 -1 6 -15 -23 -17 -21 -20 21 -37 l31 -13
-74 -40 c-41 -21 -74 -43 -74 -48 0 -5 18 -7 39 -5 l40 3 -52 -55 c-28 -30
-60 -61 -69 -68 -27 -20 -22 -30 16 -37 32 -6 33 -8 18 -25 -8 -10 -26 -45
-39 -77 -38 -94 -82 -150 -150 -194 -35 -21 -63 -45 -63 -53 0 -7 18 -17 41
-22 l41 -9 -46 -32 c-55 -39 -61 -59 -10 -38 l35 15 -27 -33 c-15 -17 -44 -45
-65 -62 -46 -34 -50 -50 -11 -40 l27 7 -22 -24 c-11 -13 -36 -57 -54 -98 -40
-92 -71 -128 -118 -136 -63 -10 -69 -15 -36 -30 21 -9 50 -12 94 -8 50 5 62 4
56 -6 -4 -7 -9 -33 -11 -59 -2 -25 -5 -55 -6 -66 -2 -15 2 -19 17 -17 11 2 27
10 36 18 15 13 17 11 23 -25 8 -52 57 -164 67 -154 4 4 9 17 11 28 3 17 7 15
21 -13 10 -18 49 -64 87 -102 55 -55 70 -66 70 -50 0 20 1 20 42 -5 24 -15 97
-52 163 -84 79 -38 130 -69 148 -90 28 -34 30 -39 47 -135 11 -68 23 -86 56
-86 24 0 24 0 18 -82 -5 -64 -2 -98 11 -148 29 -104 29 -132 5 -180 -31 -60
-109 -140 -210 -215 -98 -73 -172 -145 -148 -145 8 0 35 7 58 15 23 8 44 15
46 15 2 0 -16 -24 -40 -54 -131 -161 -125 -375 15 -571 l29 -40 -30 -110 c-16
-61 -48 -155 -70 -210 -54 -132 -78 -226 -86 -338 -6 -81 -13 -105 -56 -202
-126 -281 -165 -401 -253 -785 -89 -385 -205 -706 -293 -810 -28 -33 -33 -35
-115 -41 -101 -8 -199 -48 -260 -107 -42 -41 -46 -52 -16 -52 20 0 20 -1 -6
-31 -14 -18 -40 -59 -57 -93 -16 -34 -44 -75 -61 -93 -26 -28 -28 -33 -14 -39
10 -3 28 -4 40 0 23 5 21 1 -23 -88 -26 -52 -54 -123 -63 -159 -10 -37 -37
-113 -61 -169 -24 -57 -47 -122 -51 -143 l-7 -40 30 46 c28 43 71 83 79 75 2
-2 -3 -31 -11 -64 -33 -126 -18 -271 49 -465 l44 -128 -27 -11 c-148 -60 -234
-111 -305 -180 -130 -127 -189 -244 -190 -378 0 -55 5 -87 20 -120 21 -47 69
-110 83 -110 5 0 14 16 20 36 7 19 18 38 26 41 7 2 43 -7 80 -22 140 -56 325
-70 419 -31 30 13 41 14 44 5 18 -55 167 -159 228 -159 25 0 30 -6 46 -49 35
-99 133 -150 328 -173 82 -9 106 -8 143 4 25 8 50 12 56 8 12 -7 140 11 203
30 21 6 56 27 78 47 31 28 39 42 39 69 0 19 2 34 4 34 2 0 23 -9 47 -19 24
-10 67 -22 95 -26 l51 -6 -26 -82 c-20 -67 -25 -103 -25 -202 -1 -112 1 -124
28 -178 33 -68 63 -88 98 -65 20 14 24 13 45 -13 41 -48 121 -80 215 -86 46
-3 95 -12 111 -20 24 -12 30 -11 55 6 15 10 60 24 101 30 90 14 159 43 196 81
26 27 30 28 55 15 25 -13 29 -12 50 7 48 45 65 104 65 228 0 105 -3 124 -34
217 -19 57 -32 105 -28 109 3 4 107 9 229 11 223 5 223 5 354 -26 168 -40 269
-42 337 -8 l46 24 3 -26 c4 -32 38 -40 73 -17 13 9 26 16 29 16 2 0 16 -36 30
-79 57 -178 115 -262 217 -313 70 -35 179 -56 213 -40 19 9 35 7 78 -10 45
-17 67 -19 153 -15 55 3 117 11 138 18 32 11 43 10 73 -5 35 -16 37 -16 56 1
11 9 33 39 50 65 17 26 33 48 34 48 2 0 13 -10 24 -22 20 -22 22 -22 34 -5 33
44 27 174 -14 292 -48 138 -113 209 -241 259 -43 16 -74 55 -124 153 -40 81
-96 238 -87 247 3 3 26 6 52 6 26 0 139 13 253 29 207 30 288 53 301 87 9 24
9 24 -41 24 -77 0 -141 37 -240 138 -113 114 -221 177 -318 184 -35 2 -36 4
-31 33 20 106 26 207 20 345 -11 248 8 393 112 870 84 385 101 541 70 658
l-13 53 29 6 c33 6 47 28 29 46 -18 18 -13 25 24 37 37 12 44 24 20 34 -24 9
-18 21 25 45 39 22 54 51 27 51 -8 0 -18 16 -24 35 -12 36 -6 44 16 23 11 -11
12 -8 9 17 -3 17 -8 37 -12 45 -5 13 3 14 49 12 62 -4 72 9 25 33 -53 27 -53
96 -1 251 17 51 31 104 31 118 0 27 15 36 23 14 11 -33 28 77 19 128 l-9 53
28 -15 c39 -20 42 -5 11 52 -26 48 -26 53 -33 304 -7 245 -20 379 -55 545
l-15 70 46 90 c79 154 84 315 16 461 -51 110 -181 224 -255 224 -26 0 -23 -4
34 -41 101 -68 163 -158 200 -290 23 -85 21 -100 -5 -32 -22 57 -38 83 -84
141 -41 49 -64 57 -28 10 95 -126 130 -299 91 -440 -17 -59 -34 -77 -34 -35 0
12 -9 40 -20 62 -11 22 -18 32 -15 22 9 -33 -15 -148 -50 -236 l-34 -86 -1 65
c-2 59 -3 62 -11 29 -11 -49 -64 -180 -104 -261 -18 -36 -31 -69 -28 -72 3 -3
0 -12 -7 -21 -7 -9 -10 -18 -8 -21 8 -7 150 192 205 288 25 43 47 77 50 75 2
-3 13 -53 24 -113 25 -142 38 -323 32 -459 -3 -71 1 -138 9 -187 8 -43 11 -78
6 -78 -4 0 -8 4 -8 8 0 4 -13 23 -30 42 l-29 35 11 -40 c5 -22 21 -65 34 -97
13 -31 26 -76 29 -100 6 -43 6 -43 -18 17 -13 33 -31 74 -40 90 l-16 30 -1
-27 c0 -15 4 -37 9 -50 4 -13 11 -43 14 -68 l7 -45 -18 30 -17 30 -6 -105 c-3
-58 -6 -89 -7 -70 -1 22 -5 31 -12 24 -5 -5 -11 -68 -11 -139 l-2 -130 -17 55
-18 55 -2 -92 c-1 -51 -4 -97 -5 -103 -1 -5 -3 -13 -4 -17 0 -4 -12 8 -26 27
-30 41 -30 39 -5 -56 11 -42 22 -81 23 -87 1 -7 -12 -12 -35 -12 -49 -1 -56
-10 -29 -39 27 -29 14 -43 -47 -48 l-42 -3 31 -34 c25 -25 29 -35 18 -41 -7
-5 -21 -4 -32 2 -29 15 -29 5 0 -58 26 -55 28 -67 27 -189 -1 -111 -7 -158
-42 -325 -148 -705 -144 -677 -147 -1010 -2 -215 -7 -292 -25 -405 -25 -157
-24 -273 5 -410 38 -182 114 -367 180 -440 19 -20 35 -38 35 -39 0 0 -17 -2
-37 -4 -68 -5 -202 -41 -310 -84 -58 -23 -100 -44 -94 -46 7 -2 46 10 89 27
197 78 344 102 424 68 115 -48 218 -226 218 -375 0 -59 -18 -45 -55 45 -48
117 -103 203 -128 203 -6 0 -1 -10 10 -22 30 -35 58 -88 82 -156 26 -76 26
-75 1 -67 -18 6 -19 4 -10 -20 16 -42 12 -91 -10 -116 l-19 -24 -1 27 c0 37
-31 111 -41 101 -4 -4 -9 -35 -11 -68 l-3 -60 -21 45 c-11 25 -26 68 -33 95
-16 64 -75 176 -109 206 l-26 24 23 -35 c56 -86 102 -201 104 -255 1 -30 -1
-55 -4 -55 -3 0 -14 9 -24 20 -25 28 -45 25 -45 -5 0 -24 -3 -25 -34 -20 -26
5 -35 3 -40 -11 -6 -15 -16 -16 -81 -11 -41 3 -79 8 -85 12 -5 3 -10 21 -10
39 0 83 -50 237 -88 268 -9 8 -5 -7 10 -37 26 -51 42 -112 54 -200 l7 -49 -32
27 c-18 15 -36 25 -41 22 -10 -6 -1 -44 14 -64 9 -12 5 -13 -29 -7 -153 27
-226 88 -281 232 -40 106 -74 262 -75 344 -1 41 -5 89 -9 105 -6 25 -8 22 -9
-23 -1 -60 -23 -115 -54 -137 -27 -19 -30 -14 -16 21 12 34 38 340 39 462 0
46 -9 121 -20 171 -29 133 -34 214 -17 301 15 73 14 79 -8 157 -26 90 -45 230
-38 283 3 19 18 80 34 135 15 55 48 184 73 287 69 284 108 373 233 528 129
161 167 234 185 358 10 69 9 92 -5 158 -9 43 -21 82 -26 87 -6 6 -5 -9 1 -34
24 -105 -8 -260 -72 -354 -35 -51 -47 -54 -30 -9 33 86 52 286 32 336 -4 10
-7 -22 -8 -70 -1 -141 -31 -213 -159 -378 -35 -44 -79 -109 -99 -145 -36 -64
-36 -64 -36 -28 0 19 5 61 11 93 6 32 8 60 6 62 -5 5 -103 -296 -113 -345 l-6
-35 -14 30 c-8 16 -12 20 -8 9 3 -11 8 -67 11 -125 6 -105 -6 -193 -39 -308
-13 -43 -13 -41 -14 60 -1 72 -8 126 -23 182 -21 76 -50 147 -34 81 18 -69 7
-227 -27 -375 -48 -215 -86 -297 -194 -415 l-46 -50 40 70 c35 63 95 205 86
205 -2 0 -20 -34 -41 -75 -20 -41 -38 -75 -40 -75 -2 0 -1 10 1 23 5 21 4 21
-8 3 -41 -58 -85 -107 -228 -253 -228 -231 -267 -299 -279 -487 l-6 -89 -44
124 c-24 68 -52 156 -63 194 -23 84 -35 225 -20 250 8 16 14 5 36 -64 14 -45
26 -91 26 -102 0 -40 18 -8 24 43 12 98 21 77 18 -40 -2 -65 1 -128 7 -142 9
-23 10 -23 10 14 1 64 29 151 81 251 27 53 55 122 62 153 11 50 13 53 16 25 3
-28 -4 -74 -23 -163 -3 -14 11 7 31 47 61 122 62 217 5 354 -52 123 -65 132
-50 35 5 -32 8 -60 6 -62 -2 -2 -23 33 -46 79 -39 76 -42 79 -38 42 3 -22 8
-49 12 -60 13 -35 -41 35 -75 97 -48 89 -64 152 -63 251 0 48 -1 87 -3 87 -2
0 -17 -45 -35 -100 -18 -55 -34 -98 -37 -95 -2 2 1 48 8 100 6 53 10 99 7 101
-2 2 -14 -24 -27 -58 -12 -35 -29 -72 -37 -83 -14 -18 -15 -15 -9 35 37 331
33 469 -19 630 -65 196 -52 317 45 450 l41 55 -45 -47 c-55 -60 -82 -115 -102
-209 -18 -83 -14 -146 17 -277 10 -45 19 -86 19 -90 0 -13 -94 144 -123 207
-37 79 -46 186 -23 271 21 81 11 74 -15 -10 -30 -99 -24 -246 13 -337 14 -35
24 -63 22 -63 -2 0 -15 20 -30 45 -31 54 -74 184 -74 225 0 17 -4 30 -8 30
-14 0 -1 -111 19 -170 11 -30 21 -59 22 -65 2 -5 16 -30 31 -54 37 -59 80
-161 101 -241 22 -84 22 -170 2 -352 -19 -169 -23 -565 -6 -668 5 -36 22 -101
36 -145 26 -83 30 -131 24 -320 -2 -66 4 -146 17 -235 12 -74 28 -198 37 -274
9 -77 30 -192 46 -255 17 -64 37 -141 44 -171 19 -76 18 -194 -3 -255 -14 -41
-21 -50 -41 -50 -19 0 -31 13 -60 64 -31 58 -36 75 -41 165 -5 76 -8 94 -14
73 -14 -47 -2 -177 22 -230 28 -64 18 -91 -45 -118 -26 -11 -55 -18 -65 -16
-9 3 -22 -1 -29 -9 -17 -20 -39 -17 -39 6 0 25 -12 25 -35 0 -10 -11 -21 -20
-25 -20 -12 0 -18 83 -10 134 4 25 4 46 0 46 -14 0 -40 -104 -40 -161 0 -32
-4 -60 -9 -63 -33 -21 -36 193 -6 404 5 32 4 33 -5 10 -6 -13 -16 -74 -21
-134 -8 -80 -15 -113 -26 -121 -13 -10 -15 -24 -10 -79 3 -36 5 -66 3 -66 -7
0 -84 126 -91 148 -15 51 -16 9 -1 -59 9 -39 15 -74 12 -76 -2 -3 -13 10 -23
29 l-18 33 -3 -28 c-3 -24 -7 -26 -30 -21 -124 27 -149 65 -113 170 19 56 41
246 27 233 -4 -3 -13 -51 -21 -105 -15 -99 -64 -222 -92 -231 -25 -8 -56 78
-60 167 -4 77 0 102 41 263 26 97 53 221 61 275 17 112 20 342 5 342 -5 0 -10
-15 -10 -32 0 -48 -41 -341 -50 -357 -4 -8 -11 24 -15 75 -6 74 -3 103 14 171
27 105 26 108 -11 45 -26 -46 -104 -119 -115 -109 -2 2 17 35 43 73 91 136
135 252 133 354 -1 42 -2 41 -20 -35 -24 -97 -58 -157 -111 -195 -23 -17 -43
-28 -45 -26 -3 2 11 25 30 50 40 52 70 126 86 210 6 32 22 93 36 137 14 44 25
101 25 127 0 109 -49 384 -72 407 -7 7 -8 3 -4 -10 25 -82 47 -219 52 -321 6
-112 5 -126 -19 -200 -14 -43 -31 -103 -37 -131 -19 -85 -77 -152 -144 -169
l-29 -7 25 34 c36 48 54 94 78 206 12 54 27 110 35 126 16 32 18 32 -45 7 -27
-11 -50 -17 -50 -13 0 3 19 23 43 44 23 21 39 39 36 39 -3 0 -30 -12 -60 -26
-38 -19 -74 -28 -124 -30 l-70 -4 38 14 c20 8 47 22 59 30 23 16 108 116 108
127 0 4 -17 -2 -37 -12 -39 -20 -130 -25 -168 -9 -17 6 -14 9 18 15 38 7 147
72 147 87 0 4 -15 8 -32 8 -18 0 -53 10 -78 22 l-45 22 60 6 c40 5 76 17 107
36 52 32 66 54 18 29 -43 -22 -117 -19 -169 8 -34 17 -59 43 -103 107 -67 99
-103 186 -148 360 -18 69 -50 164 -71 213 -33 77 -68 131 -227 357 -27 38 -53
63 -88 80 -27 14 -51 26 -53 27 -2 1 10 18 28 38 40 46 121 213 165 341 42
123 62 200 121 469 88 402 122 510 211 685 50 98 53 102 48 60 -4 -25 -18
-101 -31 -170 -40 -198 -42 -210 -42 -305 l0 -90 29 110 c30 118 33 149 5 65
-9 -28 -19 -49 -22 -47 -7 7 10 84 56 260 38 147 42 173 50 350 7 150 13 205
29 252 23 68 62 158 66 153 2 -2 -1 -37 -5 -78 -11 -102 -11 -169 0 -150 5 8
11 38 14 65 6 53 75 384 83 397 3 4 18 -7 33 -25 16 -17 72 -66 124 -107 81
-64 100 -85 127 -138 36 -71 48 -77 25 -12 -18 50 -14 61 8 28 8 -13 35 -45
60 -73 25 -27 54 -65 64 -82 10 -18 21 -33 25 -33 9 0 0 44 -15 75 -11 24 -12
24 78 -75 37 -41 77 -90 90 -110 82 -131 70 -302 -32 -433 -20 -26 -19 -26 9
5 43 47 76 112 90 182 16 72 2 145 -45 254 -40 91 -41 108 -2 35 14 -27 48
-75 76 -108 95 -112 135 -232 109 -333 -15 -63 -65 -138 -113 -173 -22 -16
-35 -29 -30 -29 22 0 110 90 138 142 27 48 30 62 30 143 0 81 -3 97 -31 153
-17 34 -27 62 -23 62 14 0 120 -122 142 -163 18 -35 22 -58 22 -132 -1 -76 -5
-100 -28 -155 -18 -42 -32 -96 -38 -153 -11 -103 -40 -169 -96 -216 -21 -18
-29 -28 -18 -22 68 32 115 117 126 227 6 57 20 110 50 183 36 91 41 111 37
165 -4 58 -21 104 -63 171 -10 17 25 -13 78 -65 148 -145 193 -248 175 -398
-11 -96 -38 -153 -100 -215 -38 -37 -44 -46 -22 -32 86 54 144 169 152 301 5
99 -11 162 -74 283 -50 96 -135 233 -141 227 -2 -2 7 -29 21 -60 14 -31 23
-56 21 -56 -10 0 -131 172 -151 215 l-24 50 0 -36 c0 -20 9 -62 19 -95 l20
-59 -36 40 c-85 93 -163 175 -163 170 0 -3 7 -22 15 -42 8 -20 14 -38 12 -39
-2 -2 -24 24 -49 59 -25 34 -56 71 -67 81 -21 19 -21 19 -15 1 5 -13 4 -16 -4
-11 -7 4 -12 12 -12 17 0 5 -16 33 -35 62 -37 55 -45 47 -20 -23 8 -23 15 -44
15 -47 0 -2 -27 29 -59 69 -62 77 -231 248 -231 235 0 -5 11 -25 25 -45 14
-20 25 -41 25 -47 0 -5 -16 15 -35 45 -35 54 -44 56 -24 3 8 -23 -2 -16 -56
37 -107 104 -211 239 -252 325 -37 77 -38 84 -38 186 0 103 1 109 37 178 20
39 33 71 29 71 -12 0 -58 -53 -75 -87 -22 -45 -28 -42 -12 5 33 93 69 141 146
195 30 21 24 26 -34 28 -25 1 -43 6 -39 9 4 4 47 35 94 68 98 69 185 159 225
232 15 27 31 50 36 50 5 0 64 -56 130 -125 142 -148 224 -211 379 -296 63 -35
130 -75 150 -90 68 -53 128 -207 114 -297 -4 -25 -20 -82 -37 -126 -72 -197
-35 -403 107 -584 29 -37 75 -86 101 -107 47 -39 47 -39 -20 40 -73 87 -144
222 -167 315 -7 30 -13 93 -12 140 0 70 7 105 38 200 21 63 40 143 43 177 3
45 8 60 18 56 7 -2 10 -12 7 -21 -4 -13 -3 -14 5 -4 8 12 14 11 39 -2 35 -18
43 -33 44 -84 0 -30 2 -33 9 -17 5 11 9 35 9 53 1 17 6 32 11 32 13 0 30 -42
31 -78 1 -23 3 -21 14 13 l12 40 60 0 c44 0 59 3 56 12 -11 28 19 10 46 -28
59 -80 79 -192 58 -314 -8 -44 -13 -81 -12 -83 7 -8 45 113 60 193 9 50 19
101 22 115 l5 25 13 -25 c20 -39 26 -92 16 -143 -4 -26 -7 -47 -5 -47 8 0 53
99 68 149 9 30 16 82 16 115 0 78 19 63 27 -20 4 -42 1 -70 -11 -98 -9 -22
-14 -41 -11 -44 8 -8 37 68 50 128 9 42 17 58 36 67 20 10 25 10 27 -2 4 -20
11 -19 31 3 9 10 26 21 38 24 51 13 57 -114 12 -258 -57 -183 -31 -252 150
-408 76 -66 106 -98 126 -140 48 -98 52 -243 11 -380 -23 -76 -1 -40 31 49 23
68 28 96 28 185 0 99 -2 108 -31 160 -22 39 -54 73 -110 118 -124 97 -175 151
-202 211 l-25 55 18 66 c10 36 26 94 36 130 10 36 18 100 18 142 1 71 3 77 24
83 49 15 213 113 261 155 28 25 77 65 109 89 61 44 108 108 128 170 20 63 41
105 77 151 65 83 103 119 125 115 11 -3 17 -2 14 2 -3 3 0 12 8 20 8 8 15 20
15 26 0 7 -11 -1 -25 -18 -30 -37 -33 -25 -3 15 11 16 26 26 31 23 6 -3 7 -1
3 5 -4 7 -3 19 2 28 7 13 14 8 36 -30 19 -32 47 -59 99 -92 39 -25 89 -62 111
-82 38 -36 116 -146 116 -164 0 -5 -24 9 -53 31 -51 39 -144 87 -153 79 -2 -3
26 -29 62 -58 78 -63 166 -162 232 -262 30 -45 48 -65 50 -55 7 33 -40 175
-93 282 -60 124 -119 190 -240 273 -51 34 -76 59 -93 92 -26 51 -26 53 19 215
32 116 33 126 33 315 l1 195 -33 66 c-19 36 -44 77 -57 91 l-24 26 63 -5 c107
-9 176 28 176 93 0 17 -11 62 -25 98 -42 112 -35 141 58 248 130 149 187 250
208 369 13 72 18 79 40 53 12 -14 14 -13 21 6 10 27 -6 93 -34 138 -11 18 -18
35 -15 38 3 3 22 -22 42 -55 21 -34 40 -61 42 -61 3 0 -3 33 -14 73 -4 16 -2
17 15 8 36 -19 45 -14 38 22 -8 41 -84 197 -96 197 -6 0 -10 4 -10 9 0 6 12 6
30 0 16 -6 35 -9 41 -7 18 6 -80 95 -176 159 -205 135 -214 143 -199 160 13
14 10 18 -27 32 l-42 17 24 19 c21 18 22 20 5 21 -29 0 -174 74 -153 78 34 7
16 20 -44 31 -34 7 -72 17 -85 23 l-24 11 30 15 c29 14 32 32 5 32 -7 0 -44
14 -82 31 -37 18 -98 42 -136 54 l-67 22 18 24 c11 13 24 34 31 47 12 22 11
22 -27 16 -38 -6 -39 -5 -35 20 3 15 1 26 -6 26 -6 0 -11 -4 -11 -10 0 -12
-36 -35 -69 -45 -23 -7 -23 -7 -7 16 9 13 16 26 16 30 0 7 -37 4 -61 -6 -14
-5 -18 4 -25 49 l-9 55 -42 -19z m-17 -120 c-16 -39 -26 -73 -24 -75 2 -3 24
13 47 35 23 22 45 40 47 40 2 0 2 -11 -2 -24 -6 -24 -5 -24 65 -23 39 1 71 0
71 -2 0 -2 -16 -21 -35 -42 -38 -43 -46 -66 -17 -54 65 28 70 28 102 15 l32
-13 -30 -13 c-54 -22 -41 -29 53 -29 97 0 146 -16 86 -28 -17 -4 -31 -10 -31
-14 0 -5 28 -18 63 -31 34 -13 105 -45 157 -70 l95 -47 -65 -5 -65 -5 75 -24
c41 -13 93 -30 114 -39 l40 -16 -34 -11 -34 -11 79 -44 c69 -38 77 -45 56 -50
l-24 -5 26 -12 c14 -6 42 -16 64 -22 21 -6 73 -32 116 -59 l77 -49 -42 -7 -42
-7 34 -21 c19 -11 40 -28 48 -37 35 -45 70 -98 76 -118 6 -20 4 -23 -18 -23
-13 0 -36 4 -50 10 l-26 10 6 -73 c3 -39 7 -78 10 -84 5 -19 -13 -16 -24 3 -7
12 -11 -11 -14 -73 -3 -77 -9 -100 -39 -164 -45 -94 -118 -187 -130 -168 -7
11 -9 10 -9 -3 0 -10 -20 -45 -44 -78 -25 -33 -48 -70 -51 -80 -10 -31 -23
-14 -30 38 -11 82 -16 102 -26 96 -5 -3 -9 -17 -9 -32 -1 -24 -2 -23 -15 11
-13 39 -25 58 -25 41 0 -26 47 -174 92 -291 57 -148 56 -155 -14 -174 -67 -18
-174 14 -248 72 -121 95 -156 194 -171 473 -15 294 -41 477 -85 593 -30 81
-33 99 -16 95 6 -1 12 3 12 9 0 6 -8 8 -18 5 -14 -5 -23 4 -40 39 -12 25 -17
45 -12 45 6 0 10 -7 10 -15 0 -8 5 -15 10 -15 17 0 11 16 -17 46 -20 22 -25
24 -20 9 5 -12 -3 -7 -18 13 -15 17 -32 32 -40 32 -7 0 -18 7 -26 16 -7 8 -30
24 -51 35 l-38 19 45 -44 c116 -116 168 -247 215 -541 11 -71 25 -157 31 -190
16 -96 23 -459 10 -543 -8 -55 -8 -78 0 -95 l12 -22 -25 23 c-13 12 -28 22
-33 22 -5 0 -1 -6 9 -13 16 -12 18 -23 14 -75 -4 -38 -1 -65 6 -72 8 -8 7 -10
-5 -5 -12 4 -20 -8 -35 -54 -17 -54 -20 -58 -35 -45 -20 18 -26 18 -26 -1 0
-8 4 -12 9 -9 4 3 11 -1 14 -10 8 -20 -14 -58 -29 -50 -7 4 -9 4 -5 0 3 -4 -2
-26 -13 -49 -10 -23 -19 -55 -18 -72 0 -30 0 -30 12 -7 7 12 16 20 19 17 3 -3
3 6 1 20 -4 18 4 37 29 68 19 23 47 63 64 89 16 27 32 48 36 48 3 0 5 11 3 25
-2 24 -1 25 19 11 86 -61 129 -87 185 -110 73 -30 84 -32 57 -11 -11 9 -14 15
-7 15 8 0 10 7 6 19 -3 11 -1 22 4 26 7 4 5 15 -5 31 -9 13 -14 27 -11 30 11
11 112 -64 131 -97 l19 -33 -31 23 c-32 22 -46 15 -16 -9 18 -16 39 -63 49
-111 l7 -34 -27 38 c-29 42 -47 51 -20 10 17 -25 44 -121 44 -153 0 -8 -9 1
-20 20 l-20 35 6 -30 c4 -16 8 -79 10 -140 l4 -110 -14 64 c-20 86 -25 87 -18
3 3 -38 2 -87 -2 -108 l-7 -39 -13 30 c-13 29 -13 27 -15 -40 -1 -38 -7 -88
-15 -110 l-13 -40 -2 45 c-1 25 -5 56 -9 70 -7 23 -8 22 -17 -15 -6 -22 -42
-116 -79 -210 -63 -156 -74 -174 -123 -223 -30 -29 -55 -52 -57 -50 -1 2 4 38
11 81 10 59 11 96 4 149 -16 110 -25 106 -25 -10 0 -97 -3 -112 -28 -159 -32
-61 -42 -67 -34 -20 3 18 2 46 -1 62 -5 27 -7 25 -18 -26 -19 -84 -73 -189
-124 -240 -26 -26 -79 -62 -123 -84 -69 -34 -83 -38 -149 -36 -166 4 -264 64
-323 196 -13 30 -26 55 -29 55 -10 0 44 -113 70 -147 56 -73 127 -109 236
-120 l73 -7 -50 -13 c-53 -15 -142 -10 -179 8 -11 6 -33 23 -48 37 -16 14 -28
21 -28 15 0 -6 18 -27 40 -46 21 -20 35 -39 29 -42 -11 -8 -116 12 -144 27
-18 10 -19 10 -2 -15 9 -15 17 -28 17 -31 0 -6 -87 42 -130 72 -35 25 -35 24
5 -14 22 -22 51 -46 65 -55 24 -16 22 -16 -33 -8 -74 10 -157 50 -196 95 -17
19 -31 32 -31 29 0 -11 32 -70 48 -87 8 -10 12 -18 8 -18 -18 0 -77 56 -117
110 -52 72 -61 65 -21 -14 17 -31 28 -56 25 -56 -2 0 -20 9 -41 19 -90 47
-165 163 -182 283 -8 54 -9 46 -5 -51 2 -62 1 -111 -1 -108 -3 3 -28 40 -55
83 l-49 78 0 -48 c0 -40 -2 -46 -14 -37 -11 9 -79 141 -124 241 l-11 25 5 -25
c6 -35 22 -164 19 -167 -3 -5 -161 171 -180 200 -22 35 -31 28 -12 -10 8 -15
18 -39 22 -53 7 -25 7 -25 -24 5 -18 16 -45 52 -61 80 l-29 50 6 -43 c3 -25 2
-42 -4 -42 -11 0 -66 99 -88 157 -18 50 -19 22 -1 -44 8 -29 13 -53 11 -53
-10 0 -82 142 -101 198 -25 74 -38 92 -30 42 3 -19 7 -57 10 -85 l5 -50 -16
35 c-21 45 -29 196 -14 243 13 39 47 59 62 36 7 -11 9 -11 9 2 0 9 9 27 21 40
l20 24 -5 -25 c-3 -14 -8 -56 -11 -95 -6 -66 -5 -68 8 -40 18 38 41 58 99 85
112 52 165 161 188 384 6 65 14 125 17 132 3 8 1 14 -4 14 -5 0 -14 -12 -19
-27 -9 -27 -11 -25 -59 62 -106 191 -141 288 -170 461 -13 79 -38 200 -56 270
-30 122 -31 133 -27 283 3 86 9 165 13 176 6 15 3 14 -13 -6 -16 -19 -52 -155
-52 -195 0 -3 -17 -23 -38 -47 -21 -23 -41 -49 -45 -58 -5 -15 -2 -15 21 -4
71 34 72 33 72 -42 0 -37 7 -104 14 -148 43 -236 56 -294 75 -337 20 -43 41
-178 29 -178 -3 0 -18 18 -33 40 -39 56 -42 43 -5 -17 57 -91 80 -175 80 -293
0 -184 -46 -306 -143 -377 -53 -39 -117 -54 -143 -32 -30 25 -34 57 -23 172 8
70 9 139 4 182 l-8 70 -18 -90 c-10 -49 -18 -91 -19 -92 0 -2 -19 12 -43 30
-24 18 -68 43 -98 56 -30 13 -57 29 -61 35 -6 8 -10 8 -16 -1 -15 -23 -129 53
-144 97 -5 12 -8 12 -21 -5 -15 -20 -16 -20 -44 8 -16 15 -34 27 -40 27 -5 0
-21 20 -34 45 -13 25 -27 45 -30 45 -4 0 -9 9 -12 20 -3 13 -10 18 -21 14 -13
-5 -16 3 -17 52 -1 56 -2 57 -11 27 -16 -50 -28 -40 -28 24 0 55 0 56 -20 38
-20 -18 -20 -17 -20 13 0 26 8 37 46 62 49 34 53 47 10 30 -28 -10 -96 -14
-96 -5 0 16 91 184 145 266 35 53 70 110 78 126 9 16 23 35 31 42 18 15 22 36
6 26 -6 -4 -24 -3 -41 0 l-31 7 34 23 c47 32 83 82 123 169 26 57 41 78 72 96
l38 23 -29 12 -28 12 53 30 c30 17 72 36 94 44 l40 14 -52 3 c-31 2 -66 -3
-90 -13 l-38 -16 35 36 c19 20 54 48 78 62 50 30 53 37 10 31 l-32 -5 25 20
c19 15 35 18 83 15 52 -4 56 -3 40 10 -26 19 -116 62 -132 62 -7 0 -10 5 -7
10 3 6 21 10 39 10 47 0 52 11 14 31 l-33 17 60 -5 c125 -10 282 49 593 225
158 90 273 128 439 146 104 11 141 20 197 46 109 50 175 60 416 60 234 0 290
8 387 57 28 14 68 43 89 64 21 21 40 36 42 34 3 -3 -7 -37 -22 -75z m794
-4449 c-5 -11 -15 -23 -21 -27 -6 -3 -3 5 6 20 20 30 30 35 15 7z m-3712
-2116 c42 -8 103 -63 155 -140 22 -33 62 -90 89 -126 71 -98 121 -214 167
-389 48 -178 85 -279 142 -376 40 -68 40 -69 10 -40 -53 51 -136 184 -221 356
-110 221 -181 339 -241 402 l-50 53 40 -55 c50 -70 90 -154 140 -300 22 -63
55 -149 74 -190 77 -163 101 -256 112 -435 l5 -90 -28 110 -29 110 -1 -115 c0
-63 -5 -146 -11 -185 -22 -143 -6 -257 49 -368 17 -33 23 -53 14 -46 -28 23
-83 128 -106 202 l-23 72 -3 -45 c-2 -25 4 -75 11 -112 10 -44 11 -68 4 -68
-5 0 -32 23 -58 52 -26 29 -50 50 -52 48 -3 -3 7 -34 21 -70 20 -47 45 -83 92
-132 59 -60 62 -66 38 -62 -16 2 -41 6 -58 9 -79 12 -197 -32 -273 -104 -82
-76 -126 -178 -127 -288 0 -50 -9 -54 -32 -15 -29 49 -40 120 -28 175 10 50
21 67 158 251 122 163 141 249 83 364 -17 34 -33 62 -35 62 -2 0 5 -27 15 -61
11 -34 19 -87 18 -122 l-1 -62 -13 70 c-7 39 -24 96 -39 127 -32 68 -99 147
-110 130 -4 -8 -3 -11 5 -10 18 4 57 -58 76 -121 23 -80 13 -213 -22 -311 -32
-87 -48 -111 -34 -50 10 44 -1 135 -20 168 -8 12 -10 -1 -11 -51 0 -84 -27
-166 -86 -269 -57 -97 -70 -163 -49 -255 9 -37 -3 -26 -32 30 -24 48 -27 65
-33 212 -6 136 -11 171 -33 235 -15 41 -25 64 -22 50 3 -14 10 -61 16 -105 5
-44 12 -88 15 -97 10 -32 -5 -19 -27 24 -34 67 -57 142 -80 262 -13 71 -40
160 -74 248 -69 175 -84 232 -92 344 -6 102 24 301 58 384 l19 45 -42 -45
c-23 -25 -38 -36 -34 -25 4 11 19 51 33 90 28 77 41 100 91 163 18 23 31 42
27 42 -3 0 -24 -19 -47 -42 l-40 -43 27 55 c15 30 57 86 93 124 65 67 61 71
-20 19 -21 -12 -40 -23 -44 -23 -3 0 24 33 60 72 36 40 63 74 61 76 -7 8 -46
-10 -75 -35 -48 -40 -35 -17 28 49 36 38 79 71 115 88 56 27 57 28 30 34 -15
4 -44 2 -63 -4 -83 -24 -50 3 53 44 95 38 186 48 275 31z m3665 -1513 c34 -17
87 -54 117 -82 48 -44 51 -49 21 -35 -40 20 -124 46 -129 40 -2 -2 13 -12 35
-23 21 -11 70 -43 108 -72 82 -60 93 -67 160 -92 l50 -19 -152 4 c-84 2 -147
0 -140 -5 6 -4 37 -8 67 -9 l55 -1 -55 -9 c-70 -11 -256 -16 -265 -7 -25 25
-48 283 -28 333 9 25 79 15 156 -23z m-936 -77 c84 -35 114 -92 120 -225 4
-88 3 -93 -11 -69 -34 58 -186 127 -292 131 -37 2 -51 5 -43 13 12 12 186 14
214 1 11 -4 7 1 -10 13 -37 26 -134 59 -199 67 -45 7 -48 8 -30 22 75 57 179
77 251 47z m-3238 -13 c5 -10 17 -62 26 -117 9 -55 30 -142 47 -194 33 -103
32 -159 -2 -236 -24 -55 -47 -73 -111 -85 -60 -12 -174 -3 -129 10 83 24 146
69 186 135 13 22 4 16 -32 -20 -38 -40 -63 -55 -117 -73 -64 -21 -147 -29
-160 -16 -3 4 24 25 61 47 75 45 109 73 124 102 9 18 8 18 -9 -1 -36 -42 -210
-128 -232 -114 -20 12 10 61 76 120 32 29 47 47 34 40 -14 -7 -55 -41 -92 -76
-38 -35 -73 -64 -79 -64 -34 0 13 117 68 168 20 20 28 31 17 25 -47 -26 -105
-118 -105 -170 -1 -15 -7 -39 -14 -52 l-13 -23 -6 23 c-4 13 -7 56 -7 94 l-1
70 -24 -45 -24 -45 0 35 c-1 47 39 157 77 212 44 63 134 152 198 195 99 66
222 94 243 55z m3262 -327 c24 -8 57 -25 72 -38 26 -21 28 -25 21 -79 l-7 -57
-44 47 -44 47 36 -51 c19 -28 35 -54 35 -58 0 -4 -23 12 -52 34 -59 48 -119
80 -145 80 -10 -1 7 -13 37 -28 54 -26 160 -120 160 -141 0 -6 -7 -11 -15 -11
-9 0 -27 -8 -42 -17 -41 -27 -118 -23 -185 10 -51 26 -128 51 -128 41 0 -1 20
-12 44 -22 24 -11 68 -42 99 -70 30 -27 65 -53 76 -57 26 -8 20 -18 -31 -56
-33 -23 -51 -29 -94 -29 -58 0 -75 11 -169 106 -28 28 -70 61 -93 73 -47 24
-50 36 -23 89 75 145 330 242 492 187z m-2476 -45 c3 -5 24 -10 45 -10 59 0
154 -34 208 -74 74 -54 132 -149 157 -258 18 -81 24 -148 14 -148 -5 0 -9 4
-9 8 0 5 -7 17 -15 28 -14 17 -15 15 -9 -29 6 -48 6 -49 -15 -35 -24 14 -73
86 -91 133 -7 17 -20 71 -30 120 -25 127 -26 49 0 -91 22 -122 23 -143 11
-162 -6 -11 -14 -8 -34 12 -33 33 -43 33 -61 -1 -15 -27 -15 -27 -16 34 0 65
-13 113 -30 113 -5 0 -10 -17 -11 -37 -1 -34 -2 -36 -9 -13 -5 14 -22 74 -38
133 -17 60 -33 111 -37 115 -4 4 -5 -4 -3 -18 11 -53 59 -237 74 -283 8 -27
14 -51 11 -53 -2 -2 -20 21 -41 51 -20 30 -41 55 -46 55 -6 0 -10 -16 -10 -35
0 -32 -2 -35 -24 -29 -22 5 -24 3 -19 -17 5 -19 3 -21 -19 -16 -17 5 -30 2
-38 -8 -7 -8 -21 -15 -31 -15 -17 0 -19 8 -19 71 0 77 -25 205 -42 215 -8 5
-9 -4 -4 -26 16 -80 18 -139 6 -174 -6 -20 -15 -34 -20 -31 -5 3 -14 -3 -19
-12 -10 -17 -12 -17 -25 0 -21 27 -26 21 -26 -33 0 -56 -7 -61 -38 -27 -43 46
-56 95 -56 212 1 92 5 119 24 163 28 65 102 134 173 161 55 21 152 28 162 11z"/>
<path d="M4513 9914 c52 -28 103 -42 118 -33 11 7 9 9 -8 9 -12 0 -45 9 -73
20 -60 24 -76 25 -37 4z"/>
<path d="M4840 9872 c-30 -11 -39 -17 -27 -20 22 -4 77 17 77 29 0 5 -1 9 -2
8 -2 0 -23 -8 -48 -17z"/>
<path d="M3643 9870 c19 -64 40 -121 43 -117 6 5 -24 99 -37 117 -10 13 -10
13 -6 0z"/>
<path d="M4610 9835 c46 -18 64 -17 25 0 -16 8 -37 14 -45 14 -8 0 1 -7 20
-14z"/>
<path d="M4848 9817 c35 -46 85 -100 116 -124 19 -16 24 -23 13 -23 -33 0 -36
-31 -7 -74 51 -75 142 -256 176 -349 39 -109 45 -93 8 25 -30 94 -93 222 -141
285 -18 24 -31 43 -29 43 2 0 20 -7 39 -15 57 -24 67 -16 12 9 -27 12 -56 30
-64 39 -12 15 -10 17 22 17 20 0 39 5 42 10 3 6 -1 10 -10 10 -9 0 -57 39
-107 88 -51 48 -82 74 -70 59z"/>
<path d="M4733 9734 c4 -4 2 -13 -4 -21 -13 -15 -14 -15 28 -17 17 -1 29 2 26
7 -3 5 -11 6 -19 3 -7 -3 -16 -1 -19 4 -3 4 0 10 7 12 7 3 4 7 -7 12 -11 4
-16 4 -12 0z"/>
<path d="M4845 9568 c3 -8 -1 -20 -9 -27 -8 -7 -12 -19 -9 -27 6 -16 33 -19
33 -4 0 6 -4 10 -10 10 -5 0 -7 6 -4 14 5 12 9 12 25 -2 12 -10 15 -18 8 -23
-7 -4 -5 -8 5 -12 29 -12 25 10 -10 48 -19 21 -32 31 -29 23z"/>
<path d="M4181 9538 c-5 -13 -7 -36 -4 -53 2 -16 5 -35 5 -41 1 -6 12 -8 26
-6 l25 5 -5 -68 c-3 -37 -11 -71 -17 -75 -7 -3 -9 -14 -5 -23 3 -10 1 -17 -5
-17 -6 0 -8 -6 -5 -14 4 -9 -6 -16 -32 -21 l-37 -7 39 -37 c21 -21 55 -46 74
-57 19 -10 42 -25 51 -32 14 -11 16 -10 12 12 -6 27 1 30 85 40 24 2 53 13 64
23 12 10 18 12 13 4 -5 -8 8 -2 28 13 20 15 42 41 49 57 7 16 17 29 23 29 5 0
38 -13 73 -30 34 -16 62 -26 62 -22 -1 11 -86 62 -104 62 -9 0 -35 17 -59 39
-75 68 -171 104 -218 81 -23 -11 -23 -10 -5 4 11 9 16 16 12 16 -13 0 -66 -34
-66 -42 0 -4 -4 -8 -8 -8 -13 0 -12 27 1 99 10 58 10 64 -8 77 -28 21 -55 17
-64 -8z m224 -201 c24 -18 4 -31 -35 -22 -31 7 -39 20 -17 28 21 9 33 7 52 -6z
m-75 -7 c0 -5 -7 -10 -15 -10 -8 0 -15 5 -15 10 0 6 7 10 15 10 8 0 15 -4 15
-10z m140 -85 c0 -9 -11 -27 -25 -40 -18 -19 -35 -25 -67 -25 -24 0 -48 4 -55
8 -6 4 14 7 45 7 53 0 58 2 77 32 23 37 25 38 25 18z"/>
<path d="M4156 9534 c-8 -22 -8 -62 2 -67 4 -3 7 15 7 39 1 49 0 51 -9 28z"/>
<path d="M2820 9477 c-28 -41 -31 -47 -26 -47 7 0 49 61 44 65 -2 2 -10 -6
-18 -18z"/>
<path d="M4945 9460 c3 -5 1 -10 -6 -10 -6 0 5 -19 26 -41 63 -70 98 -159 103
-260 4 -76 0 -101 -27 -191 -47 -160 -56 -296 -26 -413 17 -62 91 -158 145
-185 57 -29 60 -24 8 10 -75 50 -140 166 -153 272 -8 72 9 200 41 306 46 152
42 257 -12 366 -28 56 -92 156 -100 156 -3 0 -2 -4 1 -10z"/>
<path d="M2760 9410 c-13 -8 -13 -10 2 -10 9 0 20 5 23 10 8 13 -5 13 -25 0z"/>
<path d="M2705 9382 c-2 -3 -19 -8 -37 -12 -27 -6 -28 -8 -8 -8 14 0 43 5 65
13 34 11 35 13 12 12 -15 -1 -30 -3 -32 -5z"/>
<path d="M5525 9362 c14 -16 32 -37 41 -48 23 -28 4 6 -24 44 -13 17 -28 32
-33 32 -5 0 2 -13 16 -28z"/>
<path d="M2600 9258 c-41 -22 -95 -49 -120 -59 -31 -12 -38 -18 -23 -19 21 0
205 90 228 111 20 20 -13 7 -85 -33z"/>
<path d="M3242 9253 c-28 -40 -27 -45 10 -58 39 -13 108 0 108 20 0 18 -58 65
-80 65 -10 0 -27 -12 -38 -27z"/>
<path d="M2575 9156 c-19 -29 -55 -121 -55 -139 1 -6 12 16 25 50 13 34 31 73
40 87 10 14 15 26 11 26 -3 0 -13 -11 -21 -24z"/>
<path d="M3285 9126 l30 -13 -42 -6 c-49 -8 -108 -58 -119 -102 -4 -17 -13
-36 -21 -43 -7 -7 -13 -19 -13 -26 0 -7 -17 -39 -38 -72 -21 -32 -41 -63 -44
-69 -3 -6 4 -10 17 -10 13 0 21 3 19 6 -2 3 17 25 41 48 l45 42 50 -22 c35
-15 60 -20 87 -15 21 3 49 8 63 9 14 2 46 16 72 31 l47 27 14 -23 c8 -13 18
-34 22 -47 7 -23 8 -22 21 15 29 86 33 124 15 133 -17 10 -23 11 -45 11 -8 0
-18 10 -22 23 -6 19 -8 20 -13 4 -5 -14 -12 -9 -35 28 -16 25 -31 45 -33 45
-2 0 -1 -4 2 -10 10 -17 -1 -11 -40 20 -27 21 -48 30 -74 30 l-36 -1 30 -13z
m73 -88 c3 -14 -4 -17 -33 -16 -42 1 -53 12 -28 27 25 15 57 9 61 -11z m89
-120 c-3 -7 -5 -2 -5 12 0 14 2 19 5 13 2 -7 2 -19 0 -25z"/>
<path d="M2629 9063 c-13 -16 -12 -17 4 -4 16 13 21 21 13 21 -2 0 -10 -8 -17
-17z"/>
<path d="M2640 9045 c-12 -13 -27 -22 -33 -18 -6 3 -7 2 -4 -4 3 -5 -12 -33
-33 -62 -22 -29 -40 -63 -40 -75 0 -16 6 -10 25 22 14 24 45 70 70 103 48 63
53 74 15 34z"/>
<path d="M2683 8853 c-9 -21 -19 -68 -21 -105 -6 -92 20 -174 121 -378 44 -91
91 -196 103 -235 12 -38 23 -64 23 -56 3 39 -38 147 -108 293 -121 248 -143
340 -112 451 20 75 18 86 -6 30z"/>
<path d="M2548 8824 c-20 -42 -23 -65 -22 -157 0 -59 5 -112 10 -117 5 -5 8
26 6 83 -2 69 2 110 17 162 11 38 18 72 15 74 -2 2 -14 -18 -26 -45z"/>
<path d="M2210 8754 c-12 -19 -21 -37 -18 -39 2 -2 14 14 26 36 28 49 22 52
-8 3z"/>
<path d="M4440 8766 c0 -2 8 -10 18 -17 15 -13 16 -12 3 4 -13 16 -21 21 -21
13z"/>
<path d="M4025 8712 c-113 -31 -179 -70 -226 -134 -45 -62 -53 -108 -34 -176
44 -150 133 -242 235 -242 25 0 52 -5 60 -10 10 -7 -6 -8 -50 -4 -36 4 -67 9
-69 11 -4 3 -51 -103 -51 -114 0 -2 12 9 26 24 l26 28 -6 -35 c-6 -35 -6 -35
11 7 10 23 22 45 27 50 5 5 6 3 2 -5 -15 -25 -16 -164 -1 -185 13 -19 13 -19
24 1 6 12 11 29 12 39 0 16 1 16 9 -2 5 -11 9 -15 9 -9 1 7 8 15 17 18 17 7
-39 -61 -85 -102 -14 -13 -50 -35 -80 -49 -48 -23 -62 -25 -132 -20 -58 4 -90
12 -127 32 -55 30 -152 114 -152 133 0 34 -43 -9 -105 -103 -21 -33 -54 -76
-73 -95 -19 -19 -40 -48 -48 -65 -14 -28 -14 -29 1 -10 9 11 21 19 26 17 6 -1
8 2 4 7 -3 6 3 15 15 21 18 10 19 8 14 -22 -5 -33 -5 -33 15 7 17 35 19 37 20
15 1 -19 3 -22 10 -11 7 12 13 12 24 3 10 -8 13 -28 11 -65 l-4 -52 11 40 c5
22 8 48 5 57 -3 13 1 17 15 15 21 -4 38 -17 21 -17 -7 0 -5 -8 5 -20 26 -30
26 -18 2 39 -18 41 -25 48 -32 35 -8 -14 -11 -14 -28 1 -10 10 -25 15 -34 12
-23 -10 -18 5 23 67 34 52 38 55 44 34 3 -13 6 -36 7 -53 1 -22 4 -26 13 -17
14 14 29 16 25 3 -3 -12 106 -96 146 -112 36 -14 67 -38 67 -51 0 -11 -53 -10
-87 3 -34 13 -90 64 -109 102 -8 15 -18 27 -23 27 -15 0 11 -83 36 -118 24
-33 25 -34 6 -55 l-18 -22 23 19 c22 19 22 19 47 -4 13 -13 22 -26 20 -30 -3
-4 29 -7 70 -6 63 1 76 -2 81 -16 3 -10 21 -32 40 -50 19 -18 34 -39 35 -48 0
-10 2 -11 6 -2 7 18 31 15 43 -7 5 -11 20 -22 32 -24 20 -4 19 -4 -4 -6 -16 0
-28 4 -28 10 0 6 -7 9 -15 5 -8 -3 -28 -1 -43 5 -15 6 -22 6 -17 1 6 -5 40
-19 76 -31 l66 -21 1 -64 c0 -35 9 -83 18 -107 25 -64 100 -175 148 -217 22
-20 62 -58 89 -83 26 -25 47 -44 47 -42 0 2 -18 41 -40 85 -41 83 -50 127 -27
129 65 6 102 -16 169 -98 68 -83 102 -142 121 -209 l15 -51 -27 4 c-33 5 -9
-11 31 -21 l26 -6 -1 138 c-2 118 2 153 26 253 30 130 32 163 15 257 -10 51
-9 67 0 70 7 2 10 8 6 13 -3 5 3 9 13 9 15 0 16 2 3 10 -8 5 -10 10 -4 10 17
0 64 101 68 146 3 29 14 50 39 75 40 40 57 90 57 169 0 30 9 108 19 173 9 65
14 120 9 123 -4 3 -1 12 7 20 24 25 19 63 -11 74 -41 16 -49 12 -50 -24 0 -25
5 -37 20 -45 21 -11 21 -11 0 -6 -18 5 -22 0 -28 -27 -11 -56 -56 -136 -89
-160 -53 -38 -144 -31 -296 22 -82 28 -119 45 -110 51 8 5 16 3 21 -4 4 -6 10
-8 14 -4 4 4 13 2 20 -3 13 -12 45 -21 84 -24 14 -1 31 -6 38 -10 7 -4 12 -2
12 5 0 8 4 8 15 -1 23 -19 20 15 -6 59 l-21 36 27 -32 c16 -20 35 -33 48 -32
15 0 17 2 7 6 -41 15 -68 63 -35 63 8 0 15 5 15 11 0 6 7 9 15 5 8 -3 15 -1
15 4 0 6 -11 10 -25 10 -28 0 -61 42 -49 61 4 7 3 9 -4 5 -6 -3 -14 -1 -18 5
-5 8 -3 9 6 4 10 -6 12 -4 6 10 -7 18 -6 18 13 1 11 -10 24 -15 30 -12 6 4 -3
18 -20 34 l-31 28 17 49 c12 35 17 78 16 140 -1 84 -3 92 -36 141 -41 63 -84
96 -148 118 -59 20 -51 20 -172 -12z m186 -43 c56 -17 109 -69 109 -108 0 -37
-4 -38 -50 -10 -49 31 -129 23 -170 -16 -26 -25 -36 -28 -92 -26 -76 2 -116
-19 -142 -72 -19 -40 -42 -41 -52 -1 -21 82 61 166 210 216 89 30 129 34 187
17z m9 -271 c25 2 60 7 79 12 43 12 48 7 28 -24 -12 -18 -27 -25 -62 -28 -25
-2 -54 0 -65 4 -28 10 -54 54 -45 75 7 15 9 12 14 -12 6 -29 9 -30 51 -27z
m-232 -30 c23 -23 13 -46 -31 -67 -44 -21 -82 -26 -111 -15 -28 11 -17 24 20
24 28 0 43 8 67 34 37 39 39 40 55 24z m300 -95 c-6 -10 -32 -36 -57 -58 -43
-37 -43 -36 9 18 57 60 68 69 48 40z m-154 -237 c-3 -8 -13 -17 -22 -21 -13
-5 -13 -2 3 15 21 24 26 25 19 6z m377 -219 c19 -36 19 -40 3 -104 -32 -129
-60 -169 -147 -209 -110 -50 -197 -50 -297 1 -103 52 -160 125 -160 204 0 49
7 53 148 82 116 23 141 24 158 2 12 -16 13 -14 8 14 -6 30 -4 34 27 47 19 7
58 19 88 26 29 7 61 21 70 30 15 17 18 16 49 -18 19 -21 43 -54 53 -75z m150
1 c-10 -27 -56 -68 -76 -68 -7 0 -18 6 -24 14 -10 11 -8 16 8 21 10 3 36 19
57 36 42 33 49 33 35 -3z m-1286 -68 c10 -11 16 -20 13 -20 -3 0 -13 9 -23 20
-10 11 -16 20 -13 20 3 0 13 -9 23 -20z m456 -66 c21 -24 22 -26 3 -16 -25 13
-50 42 -37 42 5 0 20 -12 34 -26z m742 -28 c3 -7 1 -33 -4 -57 -35 -154 -179
-242 -397 -241 -83 0 -181 24 -218 54 -6 4 -19 6 -28 2 -9 -3 -16 -2 -16 4 0
6 -12 15 -27 21 l-28 11 28 -5 c16 -3 26 -2 24 2 -3 5 8 16 24 25 17 10 31 13
34 7 4 -5 10 -7 15 -4 5 3 11 1 15 -5 4 -6 30 -23 58 -38 45 -23 63 -27 142
-27 126 0 194 24 261 90 37 37 58 69 74 113 23 62 33 74 43 48z m-673 -96
c-15 -28 -54 -42 -84 -30 -24 9 -52 47 -43 57 3 2 10 -5 17 -16 8 -15 20 -21
46 -21 28 0 38 6 52 30 19 34 31 15 12 -20z"/>
<path d="M4545 8606 c29 -54 59 -113 65 -130 6 -17 18 -46 26 -64 8 -18 14
-39 14 -47 0 -8 5 -15 10 -15 6 0 10 -18 10 -39 0 -34 4 -40 28 -49 15 -5 35
-13 46 -18 17 -7 18 -3 13 45 -3 29 -7 54 -9 55 -2 1 -20 7 -42 12 -37 9 -40
12 -65 85 -27 75 -90 191 -130 239 -11 14 4 -19 34 -74z"/>
<path d="M2267 8651 c-9 -16 -31 -41 -48 -55 -33 -28 -27 -36 8 -11 23 16 68
83 61 90 -2 3 -12 -9 -21 -24z"/>
<path d="M2259 8423 c-13 -16 -12 -17 4 -4 16 13 21 21 13 21 -2 0 -10 -8 -17
-17z"/>
<path d="M2950 8434 c0 -7 9 -31 20 -55 11 -24 20 -39 20 -33 0 7 -9 31 -20
55 -11 24 -20 39 -20 33z"/>
<path d="M4800 8335 c46 -18 64 -17 25 0 -16 8 -37 14 -45 14 -8 0 1 -7 20
-14z"/>
<path d="M3834 8189 c-19 -22 -19 -22 2 -11 15 8 24 8 32 0 13 -13 15 -8 6 16
-8 21 -17 20 -40 -5z"/>
<path d="M3185 8189 c-4 -6 -5 -12 -2 -15 2 -3 7 2 10 11 7 17 1 20 -8 4z"/>
<path d="M3171 8144 c0 -11 3 -14 6 -6 3 7 2 16 -1 19 -3 4 -6 -2 -5 -13z"/>
<path d="M3901 8133 c-10 -26 -10 -27 4 -9 8 11 15 23 15 28 0 15 -7 8 -19
-19z"/>
<path d="M4923 8099 c-1 -11 5 -23 13 -26 8 -3 14 -11 14 -18 0 -8 4 -17 10
-20 6 -4 6 3 0 21 -6 15 -8 29 -5 32 6 6 -14 32 -24 32 -4 0 -7 -9 -8 -21z"/>
<path d="M4812 8094 c10 -10 20 -15 24 -12 3 4 -5 12 -18 18 -22 12 -22 12 -6
-6z"/>
<path d="M3275 8081 c-11 -28 16 -87 58 -129 l43 -42 20 22 c48 55 48 57 27
81 -12 12 -28 37 -37 55 -15 30 -20 32 -61 30 -26 -2 -47 -9 -50 -17z"/>
<path d="M3820 8055 c-8 -9 -8 -15 -2 -15 12 0 26 19 19 26 -2 2 -10 -2 -17
-11z"/>
<path d="M3748 8053 c6 -2 18 -2 25 0 6 3 1 5 -13 5 -14 0 -19 -2 -12 -5z"/>
<path d="M4949 8013 c6 -10 26 -36 46 -58 34 -38 34 -37 -6 18 -40 55 -60 75
-40 40z"/>
<path d="M3911 7964 c0 -11 3 -14 6 -6 3 7 2 16 -1 19 -3 4 -6 -2 -5 -13z"/>
<path d="M4754 7960 c0 -13 4 -16 10 -10 7 7 7 13 0 20 -6 6 -10 3 -10 -10z"/>
<path d="M3834 7955 c-10 -8 -14 -15 -8 -15 6 0 17 7 24 15 16 19 9 19 -16 0z"/>
<path d="M3946 7927 c3 -10 9 -15 12 -12 3 3 0 11 -7 18 -10 9 -11 8 -5 -6z"/>
<path d="M5061 7868 c18 -27 34 -48 36 -48 7 0 -16 35 -42 65 -20 23 -19 18 6
-17z"/>
<path d="M3292 7660 c0 -14 2 -19 5 -12 2 6 2 18 0 25 -3 6 -5 1 -5 -13z"/>
<path d="M4660 7597 c0 -11 58 -72 63 -67 3 3 -11 21 -29 40 -19 19 -34 31
-34 27z"/>
<path d="M4730 7516 c0 -2 8 -10 18 -17 15 -13 16 -12 3 4 -13 16 -21 21 -21
13z"/>
<path d="M3810 7439 c0 -5 5 -7 10 -4 6 3 10 8 10 11 0 2 -4 4 -10 4 -5 0 -10
-5 -10 -11z"/>
<path d="M3692 7421 c-43 -26 -60 -243 -28 -339 23 -67 31 -64 10 3 -23 73
-15 235 14 294 23 47 24 54 4 42z"/>
<path d="M3866 7364 c-9 -22 2 -75 30 -145 22 -58 143 -251 165 -265 15 -9 4
11 -21 41 -67 80 -154 262 -146 308 2 12 -1 30 -6 41 -8 14 -7 17 2 11 8 -5
11 -3 8 5 -7 21 -25 23 -32 4z"/>
<path d="M1743 3200 c49 -79 65 -134 77 -267 12 -133 34 -211 85 -298 19 -33
51 -91 70 -130 19 -38 35 -64 35 -57 0 22 -29 82 -74 155 -59 94 -93 200 -101
312 -11 150 -40 241 -100 310 -20 23 -18 18 8 -25z"/>
<path d="M2011 2414 c0 -11 3 -14 6 -6 3 7 2 16 -1 19 -3 4 -6 -2 -5 -13z"/>
<path d="M1550 2275 c13 -14 26 -25 28 -25 3 0 -5 11 -18 25 -13 14 -26 25
-28 25 -3 0 5 -11 18 -25z"/>
<path d="M2991 6744 c-48 -61 -53 -188 -11 -278 13 -26 45 -71 72 -100 l49
-51 -49 65 c-62 85 -86 160 -80 250 4 45 13 81 26 104 25 42 22 47 -7 10z"/>
<path d="M4763 6623 c-5 -2 14 -28 42 -59 116 -125 194 -313 195 -469 1 -44 2
-47 13 -30 8 13 12 64 12 140 0 116 -1 123 -33 187 -24 49 -50 82 -94 120 -34
29 -76 67 -93 83 -18 17 -37 29 -42 28z"/>
<path d="M2726 6591 c-56 -62 -43 -197 25 -256 20 -18 20 -16 -4 15 -49 67
-55 170 -13 235 19 30 16 32 -8 6z"/>
<path d="M3933 6385 c0 -22 2 -30 4 -17 2 12 2 30 0 40 -3 9 -5 -1 -4 -23z"/>
<path d="M4596 6370 c11 -42 53 -113 95 -160 46 -51 42 -35 -7 25 -17 22 -46
67 -63 100 -17 33 -29 49 -25 35z"/>
<path d="M4484 6325 c21 -89 84 -168 216 -270 78 -61 121 -116 150 -192 29
-77 35 -153 18 -236 -16 -76 -10 -77 18 -2 13 35 19 76 19 135 0 75 -4 93 -33
155 -40 84 -63 110 -162 179 -41 29 -92 71 -112 94 -39 43 -80 115 -73 126 3
3 2 4 -1 1 -4 -2 -16 5 -27 18 l-20 22 7 -30z"/>
<path d="M3895 6253 c-9 -21 -41 -82 -71 -135 -70 -122 -94 -198 -94 -292 0
-129 46 -235 134 -308 58 -49 68 -48 23 1 -76 85 -117 189 -117 300 1 90 11
127 78 287 56 134 75 184 66 184 -2 0 -11 -17 -19 -37z"/>
<path d="M4284 5963 c8 -86 35 -132 142 -239 78 -77 108 -115 137 -174 20 -41
37 -68 37 -59 0 46 -68 148 -164 247 -113 114 -122 128 -142 215 l-14 62 4
-52z"/>
<path d="M4600 5986 c0 -1 27 -25 61 -51 120 -94 168 -183 170 -316 1 -43 4
-57 10 -44 12 30 9 156 -4 193 -19 51 -76 115 -153 171 -65 47 -84 57 -84 47z"/>
<path d="M3877 5789 c-34 -103 -11 -215 59 -298 20 -23 73 -69 118 -103 l81
-61 -91 90 c-135 133 -182 245 -154 367 14 65 7 68 -13 5z"/>
<path d="M5366 5783 c-4 -13 -31 -55 -59 -95 -151 -211 -197 -319 -197 -463 0
-97 54 -195 136 -245 50 -32 52 -19 1 16 -90 64 -126 192 -92 324 22 85 54
150 126 260 32 50 57 90 54 90 -3 0 7 26 20 57 14 31 24 61 22 67 -2 6 -7 1
-11 -11z"/>
<path d="M4170 5787 c-1 -21 32 -79 66 -117 21 -23 82 -73 135 -111 74 -52
107 -83 138 -129 41 -63 61 -115 61 -160 -1 -21 -3 -20 -14 11 -19 54 -51 94
-103 128 -59 39 -79 41 -26 2 114 -82 157 -219 114 -360 -12 -39 -23 -71 -24
-71 -1 0 -2 37 -2 83 0 65 -5 93 -24 135 -29 65 -105 136 -203 190 -186 102
-288 222 -288 339 0 18 -5 33 -11 33 -18 0 -2 -107 22 -158 37 -75 109 -142
225 -211 155 -91 187 -120 226 -199 30 -61 33 -75 33 -157 -1 -69 -7 -109 -27
-170 -14 -44 -31 -96 -37 -115 l-11 -35 5 40 c3 22 10 74 16 115 19 128 -3
252 -57 315 l-25 30 20 -41 c41 -84 49 -223 22 -369 -7 -38 -8 -35 -20 49 -10
66 -24 109 -53 168 -45 89 -62 101 -24 17 24 -52 46 -156 45 -209 l0 -25 -10
25 c-20 50 -96 134 -174 193 -44 33 -95 74 -114 91 l-34 31 27 -36 c15 -21 67
-74 117 -119 102 -93 141 -158 179 -295 26 -96 50 -234 43 -252 -3 -7 -1 -13
5 -13 6 0 13 35 16 78 13 167 54 300 149 486 39 77 41 86 45 187 8 198 -42
287 -231 412 -107 72 -142 105 -179 172 -9 16 -17 26 -18 22z"/>
<path d="M5063 5377 c-45 -63 -60 -96 -73 -164 -11 -54 -10 -70 4 -115 27 -83
77 -150 146 -197 34 -22 70 -41 79 -41 9 0 -4 12 -29 26 -105 59 -160 140
-168 244 -5 81 8 142 49 224 17 32 28 60 26 62 -2 2 -17 -15 -34 -39z"/>
<path d="M3624 5353 c3 -10 8 -31 12 -48 11 -46 47 -113 100 -185 26 -36 56
-85 65 -110 11 -27 18 -37 19 -24 0 25 -64 159 -114 237 -20 31 -46 78 -56
102 -19 44 -37 62 -26 28z"/>
<path d="M4802 5237 c-19 -74 -55 -147 -101 -205 -24 -30 -41 -56 -38 -58 5
-5 75 86 104 136 27 46 56 135 51 157 -2 10 -9 -3 -16 -30z"/>
<path d="M3806 5166 c16 -49 98 -125 271 -250 166 -119 262 -303 263 -501 0
-59 -19 -200 -36 -270 -3 -15 -1 -13 9 5 43 78 58 372 25 480 -40 129 -143
259 -284 361 -46 33 -97 76 -115 97 -17 20 -28 30 -24 22 5 -8 15 -24 24 -34
32 -38 -29 3 -85 58 -35 34 -52 45 -48 32z"/>
<path d="M4954 5014 c-21 -140 43 -286 149 -340 20 -11 10 3 -35 48 -80 80
-103 137 -103 256 0 45 -1 82 -2 82 -1 0 -5 -21 -9 -46z"/>
<path d="M4629 4953 c-13 -16 -12 -17 4 -4 16 13 21 21 13 21 -2 0 -10 -8 -17
-17z"/>
<path d="M4860 4921 c-6 -22 -15 -95 -20 -163 -11 -134 -21 -183 -46 -213 -12
-15 -14 -16 -11 -4 3 9 8 38 12 65 l6 49 -35 -70 c-22 -46 -63 -101 -114 -155
-80 -86 -162 -194 -162 -214 0 -6 8 1 18 16 27 41 81 79 190 137 77 40 103 59
112 82 17 40 42 41 127 4 29 -13 53 -22 53 -19 0 2 -11 27 -25 56 -14 28 -24
53 -22 54 1 1 27 -4 57 -12 56 -15 206 -22 217 -10 3 3 -11 6 -32 6 -47 0
-145 53 -204 110 -24 23 -57 72 -74 108 -26 56 -31 78 -31 140 1 39 -1 72 -2
72 -2 0 -8 -18 -14 -39z"/>
<path d="M3518 4803 c-5 -97 -33 -151 -104 -206 -26 -20 -43 -37 -37 -37 19 0
103 82 128 124 28 48 44 152 28 181 -8 13 -11 -2 -15 -62z"/>
<path d="M4706 4778 c-33 -124 -51 -176 -64 -192 -9 -11 -11 -16 -4 -12 18 11
15 2 -19 -67 -49 -95 -91 -158 -160 -233 -124 -136 -164 -223 -193 -409 -9
-55 -36 -180 -61 -278 -24 -98 -47 -201 -50 -230 l-5 -52 16 55 c158 566 152
549 234 715 44 88 106 207 140 265 112 194 151 288 169 402 7 44 5 66 -3 36z"/>
<path d="M3795 4686 c6 -60 44 -132 97 -182 l41 -39 -47 58 c-49 61 -72 107
-87 172 -8 40 -8 39 -4 -9z"/>
<path d="M2211 4679 c-6 -18 -10 -73 -10 -123 l2 -91 7 80 c4 44 10 99 14 123
9 50 2 55 -13 11z"/>
<path d="M4599 4528 c-13 -18 -68 -88 -123 -155 -96 -118 -143 -183 -133 -183
8 0 257 317 281 358 15 26 -4 11 -25 -20z"/>
<path d="M2250 4415 c-1 -38 -9 -101 -20 -140 -10 -38 -17 -71 -15 -73 7 -8
37 88 47 152 8 52 8 80 0 102 -9 26 -11 21 -12 -41z"/>
<path d="M3940 4466 c0 -2 8 -10 18 -17 15 -13 16 -12 3 4 -13 16 -21 21 -21
13z"/>
<path d="M4160 4408 c0 -3 7 -25 16 -49 9 -24 25 -96 35 -159 l19 -115 -6 88
c-5 84 -35 211 -55 232 -5 5 -9 6 -9 3z"/>
<path d="M3179 4233 c-32 -36 -53 -63 -47 -63 2 0 21 20 41 45 42 49 45 61 6
18z"/>
<path d="M3858 4225 c-4 -5 14 -31 40 -60 54 -58 102 -144 138 -243 13 -38 21
-52 18 -32 -9 51 -37 120 -77 192 -40 72 -108 153 -119 143z"/>
<path d="M2331 4145 c-27 -52 -64 -82 -110 -91 -36 -8 -49 -22 -27 -29 9 -3
24 -7 33 -10 13 -5 7 -13 -28 -35 -24 -17 -54 -30 -66 -30 -45 0 -21 -31 41
-53 l37 -13 -36 -41 c-26 -31 -45 -43 -75 -48 -22 -4 -40 -8 -40 -10 0 -2 11
-15 24 -28 14 -14 42 -58 63 -98 46 -90 49 -97 32 -81 -7 6 -24 12 -38 12 -25
0 -25 -1 12 -36 20 -20 37 -41 37 -46 0 -5 9 -23 21 -39 11 -16 17 -29 13 -29
-3 0 0 -7 7 -17 13 -15 12 -15 -8 -5 -37 20 -38 13 -5 -20 17 -18 47 -64 67
-103 28 -54 43 -71 63 -76 39 -9 112 -10 112 -1 0 4 -20 18 -44 30 -24 13 -54
34 -66 47 l-22 23 40 -5 c23 -3 53 -2 69 2 27 6 26 7 -22 24 -28 9 -66 27 -85
39 l-35 22 45 -5 c36 -5 52 -2 80 17 l35 23 -60 5 -60 5 46 21 c60 28 73 48
18 29 -47 -17 -87 -19 -108 -6 -11 7 -4 14 28 31 48 24 50 34 4 21 -16 -5 -43
-6 -59 -3 -25 5 -21 7 31 19 42 10 69 23 92 45 45 43 41 54 -7 22 -22 -15 -60
-29 -84 -31 -41 -5 -47 -3 -88 36 -42 42 -42 42 -10 26 18 -9 45 -15 60 -13
26 3 25 4 -18 30 -25 14 -61 43 -80 63 l-35 37 48 -7 c32 -4 53 -2 63 6 22 18
17 27 -15 31 l-30 3 60 64 c59 65 68 82 31 62 -25 -13 -69 -14 -76 -2 -4 5 7
12 22 16 29 6 102 69 102 87 0 7 -5 7 -12 1 -7 -5 -26 -15 -42 -22 -28 -11
-27 -10 12 29 39 39 78 116 71 139 -2 6 -15 -9 -28 -34z"/>
<path d="M3086 4068 c-20 -74 4 -222 44 -270 14 -17 12 -8 -8 32 -24 49 -27
66 -27 157 0 57 -1 103 -1 103 -1 0 -4 -10 -8 -22z"/>
<path d="M3911 3354 c0 -11 3 -14 6 -6 3 7 2 16 -1 19 -3 4 -6 -2 -5 -13z"/>
<path d="M3920 3322 c0 -15 55 -157 75 -192 17 -30 20 -18 3 13 -6 12 -26 60
-44 107 -18 47 -33 79 -34 72z"/>
<path d="M2180 3244 c0 -14 103 -197 128 -226 23 -27 24 -31 7 -24 -55 22 -56
20 -21 -38 19 -31 40 -63 46 -72 11 -12 10 -13 -4 -8 -24 9 -20 -6 28 -105 38
-80 41 -91 25 -91 -11 0 -19 -6 -19 -12 0 -19 90 -148 104 -148 28 0 86 22 86
33 0 7 -24 28 -52 47 l-52 35 45 3 c92 5 96 10 38 40 -29 15 -68 46 -86 68
l-34 42 43 -16 c46 -16 80 -13 113 12 19 15 18 15 -20 16 -42 1 -59 8 -113 49
-39 30 -42 45 -4 25 32 -17 87 -18 131 -3 42 15 39 26 -5 21 -41 -5 -107 18
-149 53 l-30 24 60 1 c33 0 71 7 85 15 24 14 23 14 -30 15 -64 0 -133 35 -190
95 l-35 37 49 -26 c27 -14 65 -26 85 -26 46 0 106 17 119 33 8 9 0 11 -37 9
-43 -3 -62 3 -175 62 -129 68 -136 71 -136 60z"/>
<path d="M4010 3091 c0 -6 4 -13 10 -16 6 -3 7 1 4 9 -7 18 -14 21 -14 7z"/>
<path d="M4037 3030 c3 -14 12 -41 20 -60 11 -30 12 -31 8 -6 -4 16 -13 43
-20 60 -11 23 -13 25 -8 6z"/>
<path d="M4071 2904 c0 -11 3 -14 6 -6 3 7 2 16 -1 19 -3 4 -6 -2 -5 -13z"/>
<path d="M4082 2840 c0 -19 2 -27 5 -17 2 9 2 25 0 35 -3 9 -5 1 -5 -18z"/>
<path d="M2923 1131 c-24 -11 -43 -23 -43 -26 0 -3 17 2 38 12 61 28 247 22
341 -10 45 -16 68 -20 61 -12 -24 28 -105 47 -230 51 -110 4 -130 3 -167 -15z"/>
</g>
</svg>
