<?xml version="1.0" standalone="no"?>
<!DOCTYPE svg PUBLIC "-//W3C//DTD SVG 20010904//EN"
 "http://www.w3.org/TR/2001/REC-SVG-20010904/DTD/svg10.dtd">
<svg version="1.0" xmlns="http://www.w3.org/2000/svg"
 width="736.000000pt" height="1051.000000pt" viewBox="0 0 736.000000 1051.000000"
 preserveAspectRatio="xMidYMid meet">

<g transform="translate(0.000000,1051.000000) scale(0.100000,-0.100000)"
fill="#000000" stroke="none">
<path d="M5523 8731 c-46 -12 -108 -51 -193 -123 -42 -35 -98 -72 -125 -82
-82 -31 -325 -155 -400 -204 -82 -55 -156 -125 -180 -173 -10 -19 -39 -63 -65
-99 -104 -141 -202 -349 -225 -481 -8 -44 -33 -118 -60 -179 -25 -56 -58 -132
-72 -167 -15 -37 -30 -62 -37 -59 -6 2 -65 29 -132 59 -209 95 -495 175 -574
162 -19 -3 -75 -26 -125 -49 -63 -30 -109 -45 -155 -50 -36 -4 -150 -23 -254
-42 -104 -19 -201 -34 -215 -34 -40 0 -115 -39 -250 -131 -68 -46 -128 -87
-135 -91 -6 -4 -29 -12 -52 -18 -89 -22 -411 -246 -539 -375 -68 -69 -106
-118 -158 -206 -63 -107 -74 -120 -132 -157 -42 -27 -80 -62 -110 -103 -50
-68 -157 -253 -228 -394 -79 -158 -279 -638 -289 -695 -11 -62 -10 -59 -58
-125 -133 -183 -194 -259 -285 -354 -56 -59 -106 -118 -110 -130 -10 -31 2
-85 23 -104 9 -8 48 -29 86 -46 l68 -31 -53 -47 c-96 -87 -242 -256 -266 -310
-18 -39 -24 -67 -22 -106 2 -46 -2 -60 -30 -100 -65 -96 -100 -204 -71 -222 5
-3 49 24 97 59 l88 65 23 -23 c23 -22 23 -24 8 -82 -33 -130 -30 -214 7 -214
7 0 34 28 59 63 65 88 105 124 120 109 7 -7 26 -12 42 -12 l31 0 0 -115 c0
-95 3 -117 17 -131 16 -16 19 -17 36 -1 10 9 43 59 72 112 41 70 60 95 75 95
11 0 35 9 53 20 37 22 33 26 56 -63 17 -69 41 -108 60 -101 17 7 70 104 86
160 9 29 21 46 40 55 30 15 126 129 141 167 5 13 12 55 16 94 4 51 12 77 28
97 12 14 31 44 43 66 11 22 36 55 55 74 l36 34 113 -37 c62 -19 167 -45 232
-56 66 -11 121 -21 122 -23 1 -1 16 -31 34 -66 l32 -63 -21 -77 c-46 -174 -46
-218 1 -268 16 -17 18 -25 9 -41 -15 -28 -14 -73 4 -178 19 -105 44 -167 89
-214 22 -23 43 -64 62 -120 32 -93 94 -195 124 -205 11 -4 20 -11 20 -16 0 -5
15 -18 33 -29 l32 -20 5 -147 c5 -141 6 -148 26 -151 42 -6 117 108 145 223
17 66 22 70 54 49 15 -9 43 -20 62 -23 33 -6 38 -11 59 -67 13 -34 31 -108 41
-165 23 -127 40 -140 78 -57 37 81 55 163 62 274 l6 102 33 -14 c18 -8 44 -14
58 -14 21 0 29 -11 57 -77 18 -43 44 -116 59 -163 21 -68 30 -85 46 -85 45 0
81 234 55 355 -10 47 -9 63 6 112 10 32 21 58 25 58 15 0 59 -70 103 -163 53
-110 76 -125 94 -60 26 94 0 249 -64 374 -24 48 -35 82 -35 113 0 64 -53 161
-110 203 -25 18 -65 51 -90 73 -25 22 -59 51 -75 65 -33 25 -56 65 -76 132
-11 38 -10 47 11 95 18 41 25 79 29 163 l6 110 45 2 c44 3 46 2 88 -58 37 -52
53 -65 125 -100 90 -44 82 -44 282 -20 l70 8 52 -54 c28 -29 59 -53 67 -53 24
0 39 48 32 101 -6 41 -4 47 16 56 20 9 31 4 81 -35 47 -37 62 -44 75 -35 25
16 20 83 -11 143 -14 27 -24 50 -22 50 2 0 28 -10 59 -21 62 -24 86 -20 86 13
0 31 -24 66 -91 131 l-56 55 190 68 c199 71 230 87 488 255 283 184 371 251
477 359 115 116 137 153 127 211 -5 30 -2 44 16 68 13 17 29 31 36 31 8 0 32
-17 54 -38 40 -37 40 -38 30 -82 -16 -77 -24 -290 -13 -370 35 -250 36 -267
12 -405 -21 -125 -21 -133 -5 -195 9 -36 20 -88 25 -116 12 -74 18 -93 52
-147 38 -60 101 -104 164 -114 l49 -8 8 -65 c16 -139 21 -155 42 -155 26 0 70
66 96 146 l22 66 66 -4 c36 -3 69 -8 72 -12 4 -3 19 -49 34 -101 33 -113 41
-130 61 -130 34 0 81 169 72 260 -5 47 -4 50 18 50 13 0 35 5 50 12 24 11 28
10 50 -17 20 -25 53 -87 94 -175 11 -23 33 -18 48 10 21 39 10 230 -17 299
-17 47 -21 75 -7 60 13 -14 86 -134 91 -150 12 -36 43 -23 56 24 21 74 -11
191 -85 317 -8 14 -22 46 -31 71 -11 33 -27 54 -53 72 -20 13 -61 47 -89 75
-46 44 -53 56 -53 90 0 22 7 56 15 77 11 24 16 68 16 128 -1 51 0 112 1 137 1
25 1 61 -1 80 -1 19 1 52 5 73 4 21 2 62 -4 90 -36 178 -41 222 -30 263 14 51
7 79 -37 144 -19 29 -35 65 -35 80 0 39 -16 72 -86 175 -97 143 -165 194 -360
269 l-70 28 -17 85 c-16 82 -21 93 -124 247 -101 150 -162 222 -240 283 -18
14 -33 32 -33 39 0 7 18 53 41 100 61 129 150 215 289 282 136 65 269 160 334
239 213 258 273 323 363 387 111 79 145 137 179 301 11 54 25 90 42 110 l25
30 -6 242 c-7 256 -21 361 -58 407 -50 63 -334 106 -513 77 -34 -6 -59 -4 -80
4 -41 17 -143 26 -183 16z m194 -90 c39 -19 83 -63 83 -83 0 -4 -12 -14 -26
-20 -26 -12 -28 -28 -8 -83 4 -11 -17 6 -46 38 -50 55 -95 87 -122 87 -7 0 4
-10 24 -23 39 -23 77 -69 109 -129 14 -28 23 -35 39 -31 12 3 20 2 19 -3 -4
-23 3 -26 22 -8 l22 19 -7 -30 c-4 -16 -11 -33 -15 -38 -12 -12 -82 63 -124
131 -48 77 -98 112 -162 112 -53 0 -88 -16 -129 -59 -39 -41 -25 -53 17 -14
64 61 106 67 173 28 41 -24 133 -139 121 -151 -3 -3 -18 14 -35 38 -67 97
-125 129 -201 108 -38 -10 -61 -34 -75 -77 -9 -29 41 -104 92 -138 57 -38 92
-41 170 -15 87 28 147 23 137 -13 -4 -12 -18 -39 -31 -59 -32 -50 -14 -48 29
3 40 47 80 144 83 203 l2 41 68 13 c38 6 119 24 181 38 61 15 117 24 124 22 7
-2 18 -29 25 -59 14 -63 10 -79 -5 -23 -17 62 -30 76 -32 34 l-1 -35 -8 30
c-14 56 -11 -13 5 -100 8 -44 15 -120 16 -170 1 -67 4 -81 9 -55 7 34 7 34 10
-15 l3 -50 7 55 c4 30 6 98 4 150 -3 76 -2 89 7 65 6 -19 8 -83 5 -170 -3 -77
-6 -143 -6 -146 0 -4 -17 2 -37 13 -67 34 -110 23 -420 -110 -288 -124 -358
-150 -369 -139 -4 3 7 28 24 54 17 26 56 93 87 147 31 55 67 108 79 119 20 17
20 18 1 11 -32 -13 -145 -16 -207 -6 -56 9 -58 8 -74 -17 -15 -24 -15 -25 0
-10 15 14 23 14 69 2 28 -7 73 -13 100 -13 49 0 49 0 33 -22 -32 -45 -128
-221 -135 -246 -5 -19 -18 -29 -47 -39 -28 -9 -71 -45 -149 -123 -60 -61 -104
-110 -98 -110 6 0 48 34 94 76 88 81 160 124 209 124 16 0 30 -2 30 -5 0 -10
-42 -89 -61 -117 -11 -14 -19 -32 -19 -40 1 -23 68 62 91 116 l21 51 97 32
c53 17 153 56 224 86 79 34 127 50 127 42 0 -7 -7 -29 -16 -50 -23 -56 1 -32
29 28 24 52 27 55 111 91 92 39 103 39 152 -6 19 -17 20 -24 12 -71 -24 -135
-51 -198 -110 -263 -41 -44 -58 -54 -58 -32 0 6 -7 19 -16 29 -15 17 -15 21 6
54 12 19 18 35 13 35 -5 0 -17 -16 -26 -35 -14 -30 -22 -35 -52 -35 -102 0
-354 -137 -618 -336 -221 -167 -324 -213 -414 -184 -24 8 -67 41 -115 88 -43
42 -78 71 -78 65 0 -16 54 -85 94 -121 21 -18 37 -35 35 -37 -2 -1 -40 -30
-84 -63 -44 -32 -101 -79 -126 -104 -76 -74 -187 -225 -277 -378 -421 -716
-557 -920 -714 -1065 -96 -89 -131 -111 -234 -145 -53 -18 -93 -34 -90 -37 4
-4 53 9 126 35 8 3 -7 -12 -35 -33 -27 -21 -69 -54 -91 -74 -23 -20 -75 -57
-115 -84 -41 -26 -85 -54 -99 -63 -14 -9 -9 -4 10 12 96 80 180 156 180 165 0
5 -39 -23 -87 -61 -49 -39 -111 -90 -140 -113 -56 -44 -81 -58 -68 -37 6 9 4
11 -4 6 -7 -5 -16 -18 -21 -30 l-9 -21 0 22 c-1 24 58 74 163 137 33 20 54 36
48 36 -18 0 -132 -59 -171 -89 -19 -14 -32 -21 -28 -14 12 20 129 99 196 132
75 38 75 50 -1 21 -52 -19 -111 -54 -171 -100 l-27 -22 10 27 c5 14 14 35 20
45 12 23 189 169 343 284 116 87 137 106 119 106 -27 0 -238 -156 -399 -295
-31 -26 -43 -32 -43 -21 0 17 72 151 121 224 32 47 34 52 19 52 -6 0 -27 -26
-47 -57 -34 -54 -37 -56 -45 -33 -7 18 -3 29 14 49 36 42 71 72 97 82 14 6 21
15 17 24 -3 9 5 22 22 32 15 10 38 29 52 43 14 14 39 35 55 47 57 42 6 23 -59
-22 -80 -54 -97 -59 -32 -9 56 45 53 58 -5 18 -23 -16 -56 -37 -73 -48 -17
-10 -56 -35 -86 -55 -87 -57 -83 -55 -72 -34 15 28 52 58 100 82 41 21 59 46
25 35 -15 -5 -15 -3 2 10 11 9 62 30 115 47 52 17 97 33 100 36 3 3 -17 3 -45
-1 l-50 -6 52 30 c29 17 55 30 57 30 12 0 173 100 185 114 20 23 2 19 -33 -7
-43 -33 -134 -84 -116 -65 27 28 160 108 160 97 0 -17 78 50 191 164 110 112
111 104 6 -53 -62 -94 -111 -158 -233 -310 -22 -27 -12 -19 25 20 34 36 101
120 149 187 47 67 88 120 90 118 2 -1 -9 -26 -23 -55 -14 -29 -25 -54 -22 -56
2 -2 32 56 67 129 35 72 89 175 119 227 30 52 78 145 106 206 29 61 58 114 64
118 6 4 11 12 11 17 0 6 -4 7 -10 4 -18 -11 26 90 128 294 56 113 102 198 102
189 0 -15 -42 -116 -71 -170 -5 -10 -6 -18 -1 -18 5 0 19 23 32 51 13 28 28
53 33 56 10 6 -43 -102 -88 -177 -18 -30 -53 -90 -79 -133 -50 -84 -55 -97
-29 -76 9 8 5 -4 -10 -28 -29 -46 -117 -228 -146 -302 -10 -25 -55 -136 -101
-246 -92 -225 -98 -242 -74 -200 19 33 41 85 150 354 81 199 93 225 94 201 0
-10 4 -9 13 5 27 39 69 115 64 115 -3 0 -17 -21 -32 -46 -15 -25 -29 -43 -32
-41 -6 6 38 92 82 162 39 60 44 74 18 54 -9 -8 1 13 24 46 22 33 70 112 107
175 36 63 66 108 66 101 0 -20 -49 -104 -152 -259 -30 -45 -34 -57 -18 -47 12
8 -15 -69 -35 -98 -8 -12 -15 -28 -15 -36 0 -8 -36 -104 -81 -214 -44 -109
-78 -201 -76 -203 2 -3 26 49 53 113 78 192 161 371 199 435 20 34 34 63 31
65 -2 2 -14 -12 -26 -31 -12 -20 -24 -36 -26 -36 -9 0 30 67 116 200 48 74
100 159 116 188 17 30 34 50 42 47 15 -5 16 11 1 21 -8 4 -8 9 0 17 7 7 16 6
29 -6 28 -26 36 -20 13 9 -17 21 -18 29 -8 45 16 25 18 24 47 -16 14 -19 29
-35 34 -35 5 0 4 6 -1 13 -6 6 -29 37 -53 67 -45 58 -100 167 -99 197 0 10 15
-13 34 -51 48 -99 62 -105 21 -8 -20 46 -36 92 -36 103 0 40 19 16 49 -63 31
-83 51 -122 51 -103 0 6 -18 57 -39 115 -35 90 -38 106 -26 123 13 18 13 18
24 0 10 -15 10 -14 5 9 -4 20 1 37 23 67 15 22 30 40 33 40 3 0 27 -29 53 -64
27 -36 52 -63 56 -62 4 1 50 -38 102 -88 51 -49 86 -84 76 -76 -10 8 -20 11
-23 8 -7 -7 54 -53 89 -66 35 -13 110 -14 102 -2 -3 5 3 12 12 14 10 3 0 5
-22 6 -116 3 -369 270 -441 466 -13 33 -23 52 -23 43 -2 -37 52 -162 113 -263
15 -25 12 -23 -18 10 -42 46 -102 160 -112 211 -5 25 -2 40 10 53 9 10 16 23
16 29 0 26 17 10 27 -25 10 -36 11 -34 6 18 -4 36 -1 59 6 63 8 5 11 -11 12
-51 1 -32 4 -46 6 -30 5 30 23 27 23 -4 0 -11 9 -45 20 -76 13 -38 17 -60 10
-67 -14 -14 -12 -26 5 -26 8 0 15 9 15 21 0 11 4 18 9 14 5 -3 12 4 16 15 4
11 31 39 62 61 54 41 56 41 116 35 94 -11 133 -31 157 -80 11 -23 20 -51 20
-62 0 -69 -50 -139 -137 -190 -52 -30 -50 -32 -154 83 -41 44 -76 79 -78 77
-3 -2 10 -19 27 -37 47 -48 39 -58 -10 -12 l-42 40 31 -40 c37 -48 186 -193
228 -222 44 -30 141 -56 163 -44 14 9 12 10 -13 11 -28 0 -131 28 -110 29 6 1
-10 18 -34 39 l-43 37 43 24 c135 74 187 167 149 266 -9 23 -7 27 16 35 72 28
112 69 158 163 25 50 41 94 35 96 -14 4 -52 67 -72 118 -15 40 -15 45 3 99 24
70 24 75 0 46 -11 -13 -22 -39 -26 -58 -3 -19 -9 -34 -13 -34 -20 1 -51 14
-51 22 0 6 19 36 43 68 46 64 175 166 259 206 64 30 140 28 205 -5z m398 -4
l50 -14 -36 -15 c-20 -9 -46 -19 -58 -23 -12 -4 -20 -9 -18 -11 3 -3 33 6 67
20 56 23 65 24 93 12 23 -10 28 -15 17 -19 -28 -11 -281 -69 -284 -66 -25 40
-63 82 -88 100 l-33 22 30 -33 30 -34 -28 18 c-50 31 -38 12 19 -33 l56 -44
-32 -14 c-18 -7 -34 -12 -34 -11 -1 2 -15 31 -31 66 -16 35 -35 68 -42 74 -7
6 -13 15 -13 20 0 15 274 3 335 -15z m-294 -114 c8 -55 7 -62 -19 -79 l-27
-17 25 28 c24 26 24 27 4 21 -26 -8 -41 19 -23 40 12 15 38 19 40 7z m-351
-43 c8 -5 12 -10 10 -12 -40 -26 -50 -28 -50 -10 0 31 14 39 40 22z m-240 -40
c-12 -17 -25 -42 -29 -56 -5 -18 -18 -30 -44 -39 -20 -7 -37 -10 -37 -7 0 18
69 108 94 123 39 24 44 18 16 -21z m350 22 c25 -21 22 -37 -10 -45 -29 -7 -53
19 -40 44 13 24 22 24 50 1z m-467 -91 c-21 -37 -40 -55 -81 -76 l-54 -29 -19
25 c-10 13 -14 27 -10 32 6 6 180 96 188 97 2 0 -9 -22 -24 -49z m124 -39 c6
-4 26 -34 43 -67 17 -33 40 -70 51 -81 l20 -22 -30 -48 c-17 -26 -31 -52 -31
-58 0 -20 -55 -79 -98 -107 l-46 -29 -25 24 c-41 37 -68 47 -147 53 -87 7 -85
4 -49 113 40 120 53 136 158 185 90 43 130 52 154 37z m393 -2 c0 -11 -48 -25
-57 -16 -3 3 5 10 18 15 32 13 39 13 39 1z m-685 -50 l22 -20 -33 -65 c-18
-35 -38 -89 -45 -120 -10 -44 -18 -59 -40 -70 -37 -20 -89 -65 -89 -78 0 -6
15 3 33 20 31 30 68 53 83 53 4 0 -13 -13 -39 -30 -26 -16 -56 -44 -68 -62
-16 -25 -20 -28 -16 -10 3 12 1 22 -4 22 -14 0 -10 128 6 198 19 80 36 106 99
148 59 40 63 40 91 14z m-336 -491 l-22 -31 -24 50 -24 51 21 42 22 42 25 -61
24 -62 -22 -31z m-50 5 c30 -62 13 -80 -21 -22 -23 38 -27 68 -9 68 4 0 17
-21 30 -46z m-24 -43 c10 -23 15 -48 11 -58 -6 -14 -12 -8 -31 31 -13 27 -21
55 -18 62 7 20 17 11 38 -35z m-17 -104 c-5 -10 -12 -15 -17 -13 -14 9 -34 84
-27 103 6 15 12 10 31 -27 17 -33 20 -50 13 -63z m490 -100 c19 -15 30 -27 26
-27 -22 0 -204 164 -204 184 0 6 33 -21 73 -60 39 -39 87 -83 105 -97z m-519
48 c0 -15 -5 -11 -19 15 -11 19 -19 46 -19 60 1 22 3 20 20 -15 10 -22 18 -49
18 -60z m1496 45 c-3 -6 -21 -17 -38 -26 l-32 -17 24 27 c23 25 59 37 46 16z
m45 -10 c0 -4 -9 -10 -20 -13 -22 -6 -23 -5 -14 17 6 14 34 12 34 -4z m-110
-6 c0 -3 -26 -33 -57 -67 -41 -43 -49 -54 -26 -38 18 12 35 26 38 32 4 5 20
16 37 25 27 14 24 8 -23 -40 -30 -31 -89 -84 -131 -118 -43 -33 -78 -63 -78
-65 0 -16 129 85 229 181 l64 61 -42 -51 c-35 -43 -93 -96 -316 -288 -16 -14
-27 -26 -23 -26 15 0 254 206 340 292 48 49 92 88 98 88 15 0 9 -8 -162 -207
-192 -223 -281 -301 -363 -318 -27 -6 -28 -5 -10 6 47 28 235 173 235 181 0 5
-34 -14 -75 -42 -41 -27 -77 -50 -80 -50 -3 0 -5 7 -5 15 0 8 -3 15 -7 15 -15
0 -99 -52 -193 -119 -99 -71 -139 -95 -146 -89 -2 3 54 44 125 92 93 63 151
111 208 172 134 146 347 364 355 364 4 0 8 -3 8 -6z m-1471 -63 c13 -39 15
-81 3 -81 -12 0 -38 82 -34 109 4 28 15 18 31 -28z m1221 -134 c-130 -128
-187 -176 -267 -226 -57 -35 -101 -66 -98 -69 4 -5 176 99 209 127 16 14 18
14 14 1 -8 -25 -116 -107 -225 -170 -56 -33 -106 -60 -112 -60 -31 0 10 39 77
74 18 9 30 21 27 25 -2 5 62 62 143 127 81 66 200 167 265 227 66 59 122 107
125 107 4 0 -67 -73 -158 -163z m-1170 93 c0 -13 47 -110 65 -136 14 -19 14
-22 0 -34 -12 -10 -16 -9 -21 6 -4 16 -30 84 -61 162 -3 6 0 12 6 12 6 0 11
-4 11 -10z m1230 6 c0 -10 -339 -297 -521 -440 -49 -39 -50 -39 -68 -19 -19
20 -18 21 53 73 105 79 104 78 87 58 -28 -36 7 -14 114 71 61 49 109 93 108
98 -1 6 10 21 25 34 l27 24 -24 -27 c-40 -46 -13 -32 57 30 71 62 142 111 142
98z m-1305 -45 c8 -17 12 -37 8 -47 -5 -14 -8 -13 -19 7 -13 23 -19 69 -9 69
2 0 11 -13 20 -29z m70 -59 c-9 -9 -25 11 -25 31 1 21 1 21 15 -3 7 -14 12
-27 10 -28z m-90 7 c9 -17 13 -38 10 -47 -6 -14 -10 -11 -21 13 -13 30 -18 65
-9 65 2 0 12 -14 20 -31z m658 24 c-7 -2 -21 -2 -30 0 -10 3 -4 5 12 5 17 0
24 -2 18 -5z m-679 -98 l6 -40 -14 35 c-17 40 -21 85 -7 60 5 -8 12 -33 15
-55z m93 21 c-2 -5 -8 -11 -14 -13 -12 -4 -25 36 -16 50 7 12 35 -23 30 -37z
m53 3 c0 -6 -4 -7 -10 -4 -5 3 -10 11 -10 16 0 6 5 7 10 4 6 -3 10 -11 10 -16z
m-160 -80 c0 -9 -9 -36 -19 -60 l-20 -43 -11 29 c-16 41 -15 63 6 110 l17 40
13 -30 c7 -16 13 -37 14 -46z m65 0 c-34 -73 -46 -35 -15 46 10 27 12 28 22
11 7 -13 6 -28 -7 -57z m68 34 c-4 -10 -9 -11 -16 -4 -5 5 -7 18 -3 28 6 14 9
15 16 4 4 -8 6 -21 3 -28z m987 33 c0 -2 -8 -10 -17 -17 -16 -13 -17 -12 -4 4
13 16 21 21 21 13z m-960 -51 c0 -8 -4 -15 -10 -15 -5 0 -10 7 -10 15 0 8 5
15 10 15 6 0 10 -7 10 -15z m890 0 c0 -2 -10 -9 -22 -15 -22 -11 -22 -10 -4 4
21 17 26 19 26 11z m-1827 -25 c121 -27 158 -46 265 -135 92 -77 125 -113 55
-59 -79 60 -237 164 -251 164 -23 0 -4 -18 67 -64 37 -24 112 -76 166 -115 62
-45 102 -68 108 -62 14 14 -11 44 -107 127 -48 41 -84 74 -80 74 9 0 285 -118
303 -129 11 -7 10 -16 -7 -53 l-20 -45 -79 -5 c-58 -4 -105 -15 -169 -41 -113
-44 -185 -66 -178 -56 9 15 -22 10 -87 -15 -118 -45 -235 -103 -226 -112 2 -2
50 17 106 41 57 25 106 45 110 45 3 0 -30 -20 -74 -43 -44 -23 -92 -50 -107
-60 -25 -17 -28 -17 -60 -1 -18 9 -62 36 -98 60 -58 38 -126 65 -229 91 l-34
8 62 75 c67 80 142 160 208 223 44 42 187 106 238 106 17 0 69 -8 118 -19z
m862 -30 c-10 -22 -22 -40 -26 -40 -5 0 1 20 13 45 27 55 38 51 13 -5z m55 25
c0 -3 -6 -16 -14 -28 -7 -12 -25 -44 -40 -70 -43 -76 -43 -47 0 32 33 61 54
86 54 66z m-195 -85 c5 -23 -8 -57 -68 -177 -41 -81 -92 -195 -113 -253 l-39
-105 -6 53 c-8 60 8 101 135 363 36 75 66 142 66 148 0 22 18 1 25 -29z
m-1220 -77 c-43 -49 -99 -119 -125 -158 -46 -67 -52 -72 -137 -109 -176 -78
-336 -179 -416 -264 -28 -29 -29 -29 -70 -15 -27 10 -72 13 -134 11 -51 -2
-93 -1 -93 2 0 27 162 252 230 320 52 52 318 220 348 220 11 0 91 14 178 30
86 17 159 29 160 27 2 -2 -21 -28 -51 -57 -30 -30 -55 -59 -55 -64 0 -6 26 15
58 45 59 58 100 89 116 89 5 0 -12 -18 -37 -40 -48 -43 -137 -154 -137 -173 0
-6 50 42 111 106 61 64 115 117 121 117 5 0 -25 -39 -67 -87z m2435 26 c-19
-16 -43 -31 -53 -35 -12 -4 -17 -13 -14 -24 4 -14 -15 -25 -95 -59 -96 -41
-145 -50 -76 -15 18 9 84 52 147 96 110 75 163 97 91 37z m-350 7 c0 -9 -83
-57 -93 -53 -7 2 11 16 38 30 55 29 55 29 55 23z m-240 -13 c0 -5 -23 -24 -52
-43 -86 -58 -217 -196 -326 -345 -56 -77 -114 -160 -128 -185 -26 -47 -23 -43
65 80 137 192 268 343 348 400 36 26 27 14 -43 -56 -89 -89 -191 -209 -229
-270 -11 -18 -109 -170 -218 -339 -203 -314 -216 -335 -200 -335 5 0 68 89
139 198 249 377 296 447 290 429 -16 -50 -14 -65 3 -19 25 66 50 102 120 175
30 31 51 57 45 57 -5 0 -16 -6 -24 -12 -7 -7 16 17 52 55 36 37 69 67 74 67 5
0 -16 -25 -46 -55 -30 -30 -50 -55 -46 -55 5 0 2 -8 -6 -17 -9 -10 -54 -80
-101 -156 -47 -76 -87 -132 -90 -125 -3 8 -6 5 -6 -6 -1 -11 -15 -44 -31 -75
-17 -31 -22 -45 -13 -31 186 262 341 438 463 524 l54 39 -84 -92 c-47 -51 -87
-98 -89 -104 -2 -7 48 39 112 101 64 61 120 112 124 112 5 0 17 -7 28 -15 18
-15 18 -16 -15 -46 l-35 -30 43 27 c77 49 53 19 -32 -40 -78 -54 -149 -116
-132 -116 4 0 28 16 54 35 52 40 171 100 217 110 23 4 16 -2 -28 -27 -151 -87
-336 -287 -423 -460 -45 -89 -30 -88 20 1 21 38 56 88 77 112 l39 44 -46 -87
c-25 -48 -56 -114 -69 -148 -24 -60 -125 -229 -193 -324 -20 -27 -82 -102
-138 -165 -57 -64 -100 -118 -98 -121 3 -2 41 34 84 80 43 47 79 82 80 77 0
-14 -48 -83 -97 -137 -27 -30 -60 -68 -74 -84 -13 -15 -49 -49 -79 -73 -53
-44 -56 -45 -107 -40 -34 4 -53 2 -53 -5 0 -16 168 -3 215 17 32 14 37 14 27
2 -26 -31 -79 -47 -157 -47 -48 0 -74 -4 -70 -10 3 -5 36 -10 73 -10 47 0 63
-3 52 -10 -29 -19 -210 -7 -313 21 l-38 10 61 65 c63 68 116 141 108 149 -2 3
-25 -24 -51 -58 -58 -80 -144 -160 -162 -153 -9 3 -12 0 -9 -9 4 -9 -11 -24
-38 -41 -109 -67 -105 -64 -82 -64 11 0 50 20 87 45 67 45 68 45 94 28 l27
-18 -70 -16 c-44 -10 -68 -20 -66 -28 1 -7 -2 -10 -7 -7 -5 4 -31 -8 -57 -26
-26 -17 -92 -54 -148 -81 -55 -27 -119 -62 -143 -78 -50 -35 -65 -38 -26 -5
52 43 185 125 214 131 16 4 32 11 35 17 5 7 -1 9 -16 5 -15 -4 10 28 77 96
107 110 171 189 250 307 100 151 278 440 391 635 196 342 271 438 445 574 99
78 117 89 117 74z m40 -54 c-19 -12 -53 -35 -75 -52 -27 -21 -34 -24 -21 -9
23 26 105 82 120 82 6 0 -5 -10 -24 -21z m75 -7 c-6 -4 -45 -34 -88 -66 -43
-33 -119 -102 -169 -155 -54 -57 -83 -83 -72 -63 58 104 264 292 318 292 11 0
16 -3 11 -8z m411 -37 c-21 -16 -147 -83 -251 -133 -55 -26 -65 -29 -51 -13
20 22 164 99 256 137 64 27 72 28 46 9z m-1396 -110 c0 -2 -10 -24 -21 -49
-15 -30 -34 -51 -62 -65 l-40 -22 -31 30 c-17 17 -46 36 -64 42 -42 14 -33 25
44 49 53 16 174 27 174 15z m-1859 -136 c-34 -46 -79 -121 -102 -167 -33 -66
-45 -81 -59 -77 -10 3 -22 0 -26 -6 -5 -9 -2 -10 12 -5 26 10 13 -1 -71 -59
-100 -70 -261 -203 -280 -231 -9 -14 -21 -21 -30 -18 -8 4 -15 2 -15 -4 0 -14
-36 -3 -51 14 -9 12 5 40 73 143 75 112 97 137 179 203 99 79 420 301 426 294
2 -2 -23 -41 -56 -87z m991 -30 c40 -24 83 -49 96 -54 l24 -10 -27 -25 c-57
-53 -232 -287 -253 -337 -13 -32 -176 -227 -241 -288 -35 -33 -104 -105 -153
-159 -105 -117 -192 -179 -383 -272 -71 -35 -132 -64 -136 -64 -4 0 -3 15 2
33 4 17 27 109 49 202 23 94 84 298 136 455 92 275 97 286 137 322 74 67 184
138 334 217 l147 77 97 -26 c63 -17 123 -42 171 -71z m1943 66 c-22 -19 -44
-34 -50 -34 -5 0 8 15 29 34 22 19 44 35 50 35 6 0 -7 -16 -29 -35z m-1247
-50 c1 -1 -22 -18 -52 -38 -56 -37 -110 -101 -187 -222 -39 -60 -152 -207
-195 -254 -11 -12 -18 -12 -36 -3 -13 7 -41 18 -63 26 -45 16 -31 19 33 7 23
-5 42 -4 42 0 0 5 -2 9 -5 9 -12 0 -308 50 -311 53 -6 6 130 187 192 255 74
81 160 131 347 202 l98 37 67 -35 c37 -19 68 -36 70 -37z m71 -60 c-23 -39
-40 -46 -32 -15 4 16 38 50 50 50 1 0 -7 -16 -18 -35z m997 -62 c-65 -108
-136 -210 -136 -196 0 24 170 283 186 283 2 0 -20 -39 -50 -87z m-921 -30
c-15 -43 -36 -96 -47 -118 -29 -57 -124 -199 -145 -216 -19 -15 -21 -20 69
131 56 92 111 201 105 206 -2 2 -51 -80 -110 -183 -93 -167 -194 -319 -205
-309 -2 2 52 91 119 197 67 107 148 241 178 298 62 115 76 112 36 -6z m-119
88 c-3 -4 -10 -21 -16 -36 -6 -15 -13 -26 -15 -23 -8 8 16 68 27 68 5 0 7 -4
4 -9z m-51 -54 c-8 -21 -18 -37 -20 -37 -8 0 6 53 18 68 17 21 18 7 2 -31z
m1084 -134 c-49 -97 -96 -201 -105 -232 -9 -30 -31 -87 -50 -126 -35 -70 -219
-355 -230 -355 -3 0 4 17 16 38 78 131 129 226 177 334 30 68 65 137 77 153
36 47 68 116 62 132 -4 8 6 31 22 51 15 21 47 70 70 110 24 39 44 72 46 72 2
0 -36 -80 -85 -177z m97 116 c-14 -30 -39 -90 -56 -134 -39 -101 -122 -286
-126 -282 -2 2 7 32 20 68 13 35 29 82 36 104 17 54 140 308 146 302 3 -2 -6
-29 -20 -58z m-1214 -4 c-4 -26 -22 -45 -22 -25 0 12 18 50 24 50 2 0 1 -11
-2 -25z m-40 -47 c-8 -8 -9 -4 -5 13 4 13 8 18 11 10 2 -7 -1 -18 -6 -23z
m-1467 -57 c17 -4 29 -11 28 -17 -11 -42 -72 -183 -75 -173 -3 8 -28 -45 -56
-116 -28 -72 -52 -125 -52 -120 0 6 16 60 35 120 40 126 38 118 26 110 -15 -9
-57 -146 -119 -387 -60 -236 -69 -318 -12 -110 18 64 47 153 65 197 18 44 45
113 60 153 40 109 40 81 -1 -39 -44 -130 -117 -414 -139 -536 -15 -87 -18 -95
-59 -135 -24 -24 -97 -81 -162 -128 -155 -110 -332 -248 -343 -267 -6 -12
-132 -40 -193 -43 -5 0 -8 10 -8 23 0 19 8 24 51 34 60 15 184 70 200 89 16
20 5 17 -59 -12 -59 -27 -159 -64 -174 -64 -37 0 56 345 199 730 91 246 131
341 156 369 64 69 354 302 401 321 25 10 188 11 231 1z m1595 -11 c-6 -11 -13
-20 -16 -20 -2 0 0 9 6 20 6 11 13 20 16 20 2 0 0 -9 -6 -20z m-47 -82 c-6 -7
-32 -42 -58 -78 -27 -36 -45 -56 -41 -46 9 27 89 135 100 136 5 0 4 -6 -1 -12z
m1256 -62 c10 -12 8 -22 -8 -53 -11 -22 -27 -45 -35 -53 -10 -8 -7 4 9 31 36
64 31 72 -9 14 -19 -28 -49 -63 -67 -80 l-33 -30 18 29 c45 72 58 96 54 107
-2 6 -28 -25 -58 -70 -29 -44 -55 -79 -58 -77 -2 2 8 26 21 53 14 26 37 83 52
125 l27 78 38 -30 c20 -16 42 -36 49 -44z m-379 -95 c-18 -33 -43 -70 -57 -83
-20 -18 -16 -8 17 47 23 39 47 76 52 83 22 27 18 9 -12 -47z m536 -113 c81
-125 101 -163 111 -213 6 -33 10 -61 9 -62 -1 -1 -19 2 -41 7 -22 5 -80 12
-130 16 -86 7 -92 9 -145 51 -30 24 -76 58 -102 76 l-48 33 43 24 c78 43 123
87 158 155 19 36 37 65 40 65 4 0 51 -68 105 -152z m-1576 128 c0 -2 -8 -10
-17 -17 -16 -13 -17 -12 -4 4 13 16 21 21 21 13z m-422 -46 c61 -18 112 -37
112 -42 0 -6 -46 -59 -102 -120 l-102 -109 -40 6 c-36 6 -245 72 -255 81 -4 4
46 68 128 163 55 63 56 63 101 59 25 -3 96 -20 158 -38z m331 -8 c-54 -59
-111 -101 -102 -74 3 9 -18 -5 -47 -33 l-54 -50 42 51 c23 28 48 57 57 64 13
11 14 10 8 -6 -5 -14 4 -10 35 14 23 19 42 38 42 43 0 7 46 37 59 39 2 0 -16
-22 -40 -48z m-2039 -48 c22 -9 40 -17 40 -19 0 -1 -13 -32 -30 -67 -16 -36
-58 -144 -93 -239 -108 -292 -158 -459 -206 -692 -17 -82 -36 -157 -41 -167
-14 -27 -74 -58 -171 -91 -119 -40 -123 -39 -159 24 -16 28 -30 46 -30 39 0
-18 19 -53 43 -79 18 -20 19 -23 3 -23 -17 0 -56 75 -56 107 0 19 32 103 137
353 105 252 171 393 259 553 99 179 130 222 198 272 34 24 62 44 63 45 2 0 21
-7 43 -16z m2273 -9 c-3 -9 -8 -14 -10 -11 -3 3 -2 9 2 15 9 16 15 13 8 -4z
m830 -35 c-10 -17 -35 -47 -57 -68 -43 -41 -32 -21 29 51 46 55 53 59 28 17z
m-1073 15 c0 -7 -62 -44 -165 -99 -123 -66 -99 -46 43 36 128 73 122 70 122
63z m1083 -82 c-55 -116 -141 -248 -172 -265 -17 -10 -31 -15 -31 -13 0 3 19
31 43 63 23 32 73 106 111 165 38 59 71 107 73 107 1 0 -9 -26 -24 -57z
m-1154 1 c-8 -9 -47 -32 -87 -50 -41 -19 -71 -38 -67 -44 4 -6 -1 -7 -11 -3
-12 4 -15 3 -10 -5 5 -8 2 -10 -9 -6 -9 4 -13 9 -10 13 5 5 191 105 204 110 2
0 -3 -6 -10 -15z m6 -42 c-43 -39 -290 -182 -312 -182 -8 0 124 80 132 80 2 0
43 25 91 55 82 51 111 67 89 47z m-546 -63 c64 -34 117 -63 119 -64 2 -2 -311
-236 -437 -324 -61 -44 -76 -50 -86 -39 -20 21 -55 91 -55 110 0 10 -4 18 -10
18 -5 0 -6 -7 -3 -17 4 -11 3 -14 -5 -9 -7 4 -12 12 -12 18 0 20 342 368 361
368 7 0 64 -28 128 -61z m1582 14 c-11 -16 -30 -39 -42 -53 l-21 -25 17 30
c18 30 55 75 62 75 3 0 -5 -12 -16 -27z m-1242 -16 c8 -11 1 -19 -32 -37 -23
-13 -62 -37 -87 -53 -39 -27 -36 -22 25 36 39 36 73 66 76 67 4 0 12 -6 18
-13z m-189 -17 c13 -9 13 -10 0 -10 -8 0 -22 5 -30 10 -13 9 -13 10 0 10 8 0
22 -5 30 -10z m1675 -60 c4 -6 -7 -10 -27 -9 -27 0 -30 2 -13 9 27 12 33 12
40 0z m-55 -30 c0 -5 -5 -10 -11 -10 -5 0 -7 5 -4 10 3 6 8 10 11 10 2 0 4 -4
4 -10z m240 2 c0 -4 -9 -8 -20 -9 -11 -1 -20 2 -20 8 0 5 9 9 20 9 11 0 20 -4
20 -8z m-522 -43 c-21 -36 -54 -66 -63 -57 -4 4 74 98 81 98 3 0 -6 -18 -18
-41z m465 34 c-7 -2 -19 -2 -25 0 -7 3 -2 5 12 5 14 0 19 -2 13 -5z m439 -43
c48 -10 99 -25 113 -32 l25 -14 -33 -32 -33 -32 -45 16 c-39 14 -193 44 -226
44 -30 0 -10 -18 26 -24 l40 -6 -47 -48 c-26 -26 -58 -69 -71 -97 -13 -27 -26
-44 -28 -38 -3 9 -10 10 -22 3 -14 -7 -36 3 -101 46 -46 30 -85 52 -88 49 -3
-3 -3 -6 -1 -8 134 -99 150 -108 176 -105 25 3 30 -2 55 -62 15 -36 28 -77 28
-92 0 -26 -2 -27 -43 -25 -23 2 -47 6 -54 10 -6 4 -17 39 -24 77 -7 39 -16 73
-21 76 -11 7 -10 -12 6 -81 8 -33 13 -62 11 -64 -7 -6 -23 43 -36 110 -12 67
-29 101 -29 59 1 -24 8 -65 24 -135 l7 -30 -15 25 c-8 14 -22 53 -32 88 -9 34
-21 62 -25 62 -11 0 -11 2 0 -38 6 -20 6 -30 0 -27 -5 4 -12 24 -15 46 -5 31
-13 43 -36 55 -16 8 -28 21 -25 27 2 7 12 35 21 64 9 28 23 56 30 62 18 15
173 61 205 61 14 0 33 5 41 10 11 7 2 9 -30 5 l-45 -5 40 15 c49 18 151 12
277 -15z m-526 -21 c-33 -16 -67 -28 -75 -26 -28 6 76 53 124 56 6 0 -17 -13
-49 -30z m159 21 c-28 -12 -47 -12 -40 0 3 6 18 10 33 9 24 0 25 -1 7 -9z
m-543 -73 c-29 -28 -52 -45 -52 -38 0 17 89 105 98 96 3 -3 -17 -29 -46 -58z
m246 48 c-15 -8 -29 -24 -33 -35 -6 -19 -25 -29 -25 -12 1 11 34 48 50 55 29
11 34 6 8 -8z m187 -10 c-16 -7 -39 -17 -50 -21 -17 -6 -17 -8 -3 -11 15 -4
14 -10 -5 -64 -21 -55 -24 -59 -54 -59 -17 0 -44 5 -58 10 -25 9 -27 14 -20
47 10 52 22 73 45 73 24 0 24 3 5 -50 -8 -23 -15 -47 -15 -53 0 -20 19 7 32
47 11 32 23 44 68 67 30 16 62 28 70 28 8 0 2 -6 -15 -14z m-342 -23 c-37 -57
-53 -76 -59 -70 -5 6 64 98 74 98 2 0 -4 -13 -15 -28z m165 1 c-18 -21 -37
-82 -31 -100 3 -7 0 -13 -6 -13 -25 0 -4 94 26 118 24 17 29 15 11 -5z m941
-52 c70 -36 87 -50 130 -108 27 -38 47 -71 45 -75 -3 -4 -23 -13 -45 -20 l-40
-12 -39 45 -38 44 29 29 c29 28 38 56 19 56 -5 0 -17 -11 -26 -25 -14 -21 -24
-25 -63 -25 -63 0 -115 16 -152 47 -28 24 -29 27 -13 36 10 6 29 23 42 38 27
32 25 33 151 -30z m-2564 41 c-18 -15 -85 -54 -85 -48 0 3 19 16 43 30 43 26
59 33 42 18z m1294 -42 c-23 -30 -47 -45 -58 -35 -9 9 14 39 40 52 37 20 41
16 18 -17z m261 -2 c0 -19 -2 -20 -10 -8 -13 19 -13 30 0 30 6 0 10 -10 10
-22z m736 -3 l51 -15 6 -49 c3 -27 15 -67 26 -88 23 -46 86 -113 129 -139 79
-46 31 -194 -62 -194 -31 0 -38 4 -47 28 -43 117 -153 251 -268 327 -33 22
-61 45 -61 52 0 6 23 32 52 58 58 52 65 53 174 20z m-2406 -25 c-14 -11 -29
-20 -35 -20 -5 0 4 9 20 20 38 25 48 25 15 0z m1333 -20 c-9 -8 -73 -31 -73
-25 0 8 65 43 73 38 5 -3 5 -9 0 -13z m97 16 c0 -2 -8 -10 -17 -17 -16 -13
-17 -12 -4 4 13 16 21 21 21 13z m84 -5 c6 -10 -22 -37 -29 -29 -8 7 5 38 15
38 5 0 11 -4 14 -9z m-75 -33 c-30 -44 -29 -43 -29 -31 0 11 38 63 46 63 3 0
-5 -15 -17 -32z m-1959 4 c0 -17 26 -102 44 -142 5 -12 -4 -22 -32 -38 -21
-11 -58 -39 -83 -60 -24 -21 -87 -60 -139 -85 -52 -25 -114 -61 -137 -81 -22
-20 -43 -36 -46 -36 -6 0 -25 68 -37 128 -9 48 -7 54 22 100 30 45 44 55 207
139 97 50 182 91 189 92 6 0 12 -7 12 -17z m690 1 c-8 -3 -24 -10 -35 -15 -20
-9 -20 -9 -1 6 11 9 27 16 35 15 14 0 14 -1 1 -6z m2438 -39 c42 -5 62 -11 62
-20 0 -8 16 -31 35 -53 19 -21 35 -45 35 -54 0 -15 -54 -67 -69 -67 -4 0 -27
13 -52 29 -66 44 -139 147 -139 196 0 11 7 10 33 -5 19 -11 61 -23 95 -26z
m-2588 32 c0 -2 -26 -25 -57 -51 l-58 -47 52 51 c46 46 63 58 63 47z m1380 0
c0 -3 -4 -8 -10 -11 -5 -3 -10 -1 -10 4 0 6 5 11 10 11 6 0 10 -2 10 -4z m130
-6 c0 -5 -5 -10 -11 -10 -5 0 -7 5 -4 10 3 6 8 10 11 10 2 0 4 -4 4 -10z
m-1370 -13 c0 -2 -10 -12 -22 -23 l-23 -19 19 23 c18 21 26 27 26 19z m1307
-22 c-7 -14 -15 -25 -19 -25 -4 0 -2 11 4 25 6 14 15 25 19 25 4 0 2 -11 -4
-25z m163 -5 c0 -16 -4 -30 -8 -30 -5 0 -7 14 -4 30 2 17 6 30 8 30 2 0 4 -13
4 -30z m-1774 5 c-11 -8 -25 -15 -30 -15 -6 1 0 7 14 15 32 19 40 18 16 0z
m1633 -17 c-8 -14 -14 -18 -17 -10 -4 13 17 46 25 38 3 -2 -1 -15 -8 -28z
m218 26 c-3 -3 -12 -4 -19 -1 -8 3 -5 6 6 6 11 1 17 -2 13 -5z m107 0 c9 -3
16 -12 16 -20 0 -12 -4 -12 -20 -2 -30 19 -27 34 4 22z m-217 -26 c-3 -8 -6
-5 -6 6 -1 11 2 17 5 13 3 -3 4 -12 1 -19z m153 1 c0 -4 -7 -6 -15 -3 -8 4
-15 10 -15 15 0 4 7 6 15 3 8 -4 15 -10 15 -15z m465 -6 c97 -65 184 -158 240
-258 48 -85 49 -112 5 -136 -19 -11 -34 -26 -32 -33 1 -8 -2 -17 -8 -21 -5 -3
-7 0 -4 8 3 8 1 18 -5 22 -6 3 -11 14 -11 24 0 25 -35 103 -43 95 -3 -3 -15 0
-27 6 -19 10 -21 17 -15 68 3 31 8 68 11 82 11 51 -12 7 -27 -53 -11 -44 -20
-61 -30 -58 -8 3 -44 7 -81 10 -36 3 -70 10 -75 15 -4 5 8 6 31 3 l39 -6 -7
53 -6 53 50 1 c27 0 62 8 77 16 32 17 26 19 -36 7 -93 -18 -150 29 -116 97 9
18 20 32 23 32 4 0 25 -12 47 -27z m-2335 -38 c-29 -30 -56 -52 -59 -49 -5 6
98 104 109 104 2 0 -20 -25 -50 -55z m1643 49 c3 -4 1 -16 -4 -27 -9 -15 -13
-17 -19 -7 -14 23 5 51 23 34z m124 -31 c-3 -10 -5 -4 -5 12 0 17 2 24 5 18 2
-7 2 -21 0 -30z m170 5 c6 -7 13 -31 16 -53 4 -22 3 -35 -1 -30 -4 6 -13 10
-19 11 -27 2 -31 5 -36 23 -3 12 1 22 10 25 8 3 12 2 8 -3 -7 -12 5 -41 16
-41 6 0 5 9 -1 20 -8 15 -8 20 1 20 6 0 0 9 -15 21 -30 24 -36 45 -8 30 10 -5
23 -16 29 -23z m59 15 c20 -27 16 -38 -6 -18 -20 18 -26 35 -14 35 4 0 13 -8
20 -17z m-187 -51 c1 -7 -3 -10 -9 -7 -5 3 -10 21 -9 38 1 31 1 31 9 7 4 -14
8 -31 9 -38z m-1660 0 c-42 -48 -79 -76 -79 -62 0 15 100 114 107 106 3 -3 -9
-23 -28 -44z m986 23 c39 -10 84 -21 100 -25 l30 -8 -37 -1 c-33 -1 -185 42
-198 56 -3 3 4 3 15 0 11 -3 52 -13 90 -22z m285 10 c-7 -8 -17 -15 -23 -15
-6 0 -2 7 9 15 25 19 30 19 14 0z m422 -25 c5 -35 -7 -41 -16 -7 -8 32 -7 49
3 43 5 -3 11 -19 13 -36z m-1632 -1 c-12 -16 -25 -28 -28 -25 -5 6 36 56 45
56 3 0 -5 -14 -17 -31z m-315 -24 c-85 -76 -116 -94 -60 -35 l50 53 -45 -35
c-63 -49 -83 -57 -35 -14 44 40 102 75 125 75 8 0 -7 -20 -35 -44z m1685 24
c0 -5 -7 -9 -15 -9 -8 0 -15 7 -15 15 0 9 6 12 15 9 8 -4 15 -10 15 -15z m90
11 c0 -5 -4 -10 -10 -10 -5 0 -10 5 -10 10 0 6 5 10 10 10 6 0 10 -4 10 -10z
m335 -69 c1 -15 7 -37 14 -49 7 -13 10 -26 7 -29 -10 -10 -56 100 -56 132 l1
30 16 -29 c8 -17 17 -41 18 -55z m-135 44 c0 -14 -2 -25 -4 -25 -2 0 -6 11 -8
25 -3 14 -1 25 3 25 5 0 9 -11 9 -25z m-1821 -41 c-26 -26 -52 -45 -59 -42
-10 3 84 85 100 87 3 1 -16 -20 -41 -45z m1041 36 c-12 -8 -10 -10 10 -11 14
-1 -27 -14 -90 -29 -63 -16 -116 -27 -118 -25 -2 1 32 15 75 30 43 15 85 31
93 35 8 5 22 9 30 9 13 1 13 0 0 -9z m1934 -47 l36 -57 -33 -11 c-30 -10 -33
-8 -49 17 -10 16 -34 36 -53 45 l-36 17 46 13 c25 8 45 18 45 23 0 19 9 10 44
-47z m-2791 -17 c-9 -20 -20 -36 -25 -36 -14 0 -9 55 8 79 26 37 39 3 17 -43z
m-348 4 c-16 -16 -34 -30 -39 -30 -10 1 53 59 63 60 3 0 -8 -13 -24 -30z m271
-2 c-18 -26 -22 -17 -5 14 6 11 13 17 16 15 3 -3 -2 -16 -11 -29z m1243 -15
c21 -53 41 -158 41 -218 0 -74 -28 -195 -76 -323 -52 -138 -81 -192 -103 -192
-24 0 -279 126 -351 173 -87 57 -97 68 -128 138 -34 76 -73 123 -143 175 -27
19 -49 39 -49 44 0 18 120 80 220 114 58 19 188 51 290 70 297 56 284 55 299
19z m280 2 c106 -13 196 -26 199 -29 13 -13 -22 -119 -64 -191 -60 -107 -136
-204 -236 -301 -91 -89 -226 -204 -240 -204 -4 0 5 26 21 58 58 116 120 339
121 434 0 55 -23 173 -44 223 l-15 35 32 0 c18 0 119 -11 226 -25z m1239 1
c38 -19 68 -82 57 -117 -8 -24 -77 -44 -104 -30 -22 12 -81 78 -81 91 0 14 13
12 29 -2 11 -11 12 -9 7 8 -5 17 0 27 21 43 34 25 37 25 71 7z m-2733 -28 c-1
-13 -3 -32 -4 -43 -2 -18 -3 -18 -12 3 -10 25 -2 75 11 67 4 -2 6 -15 5 -27z
m1885 17 c7 -9 8 -15 2 -15 -5 0 -12 7 -16 15 -3 8 -4 15 -2 15 2 0 9 -7 16
-15z m-2340 -11 c-8 -8 -23 -20 -34 -25 -13 -6 -10 0 9 15 34 29 43 33 25 10z
m230 -9 c-7 -8 -16 -15 -21 -15 -5 0 -1 9 8 20 9 11 19 17 21 15 3 -3 -1 -11
-8 -20z m100 -16 c-7 -11 -14 -18 -17 -15 -8 8 5 36 17 36 7 0 7 -6 0 -21z
m-940 -18 c0 -5 -46 -39 -101 -76 -56 -36 -99 -68 -97 -70 3 -3 46 22 97 56
51 33 94 59 96 57 2 -2 12 -46 23 -98 l19 -95 -116 -124 c-141 -151 -271 -272
-282 -265 -5 3 -9 38 -9 77 -1 55 -7 89 -30 146 -25 63 -27 77 -16 92 17 25
397 308 414 309 1 0 2 -4 2 -9z m3930 0 c0 -5 -11 -11 -25 -13 -28 -6 -35 8
-7 15 28 8 32 7 32 -2z m-3062 -26 c-3 -3 -9 2 -12 12 -6 14 -5 15 5 6 7 -7
10 -15 7 -18z m-126 -1 c50 -17 86 -48 69 -59 -6 -3 -21 1 -33 9 -12 9 -32 16
-43 16 -14 0 -5 -10 32 -35 49 -33 93 -78 93 -96 0 -5 -21 11 -46 35 -25 24
-55 46 -66 49 -11 3 6 -18 41 -50 34 -30 61 -62 61 -71 0 -11 -13 -4 -40 23
-55 54 -50 35 9 -33 47 -55 71 -92 71 -109 0 -4 -10 8 -23 28 -29 48 -106 134
-113 127 -5 -6 109 -163 127 -173 5 -4 9 -22 9 -42 l0 -36 -20 26 c-31 40
-138 88 -208 94 -59 5 -216 -24 -266 -50 -21 -11 -23 -15 19 79 26 61 26 61
93 83 127 41 178 25 286 -90 85 -89 83 -75 -3 25 -79 93 -112 110 -200 104
-36 -3 -81 -13 -99 -22 -17 -9 -32 -15 -32 -13 0 3 9 25 20 50 55 125 147 171
262 131z m2188 -24 c24 -46 26 -63 5 -33 -17 24 -37 73 -30 73 3 0 14 -18 25
-40z m-1909 -7 c-9 -16 -10 -14 -11 12 0 21 3 26 11 18 8 -8 8 -16 0 -30z
m1861 -86 c103 -164 148 -253 148 -289 0 -71 -266 -286 -525 -424 -49 -26
-127 -69 -171 -95 -98 -57 -144 -81 -144 -75 0 2 40 27 89 55 152 86 561 355
561 368 0 15 -55 -16 -231 -132 -359 -237 -607 -380 -626 -362 -2 3 42 28 99
57 203 103 580 341 564 357 -2 3 -53 -29 -113 -70 -132 -91 -289 -184 -447
-266 -65 -33 -121 -61 -123 -61 -11 0 10 20 35 33 112 58 456 284 512 336 l45
43 -65 -46 c-36 -25 -99 -66 -140 -93 -41 -26 -118 -75 -170 -108 -52 -34
-101 -65 -109 -70 -13 -7 36 89 62 122 5 7 7 18 4 25 -2 7 -17 -11 -33 -41
-44 -81 -87 -144 -103 -149 -7 -3 6 24 29 58 23 34 65 105 94 158 47 89 55 99
103 123 121 61 306 231 421 387 64 86 142 231 142 263 0 11 3 19 8 19 4 0 41
-55 84 -123z m-1916 87 c-4 -9 -9 -15 -11 -12 -3 3 -3 13 1 22 4 9 9 15 11 12
3 -3 3 -13 -1 -22z m2054 -9 c0 -5 -5 -3 -10 5 -5 8 -10 20 -10 25 0 6 5 3 10
-5 5 -8 10 -19 10 -25z m953 -14 c15 -27 27 -64 27 -83 0 -32 -4 -36 -39 -46
-21 -7 -41 -12 -43 -12 -3 0 -11 21 -18 47 -6 26 -16 53 -22 60 -5 7 -7 26 -3
42 6 28 15 34 60 40 6 0 22 -21 38 -48z m-984 9 c11 -24 11 -24 -3 -6 -9 11
-16 24 -16 30 0 12 5 7 19 -24z m81 -13 c0 -16 -18 3 -23 25 -6 22 -5 22 8 4
8 -11 15 -24 15 -29z m672 -13 c20 -11 42 -13 69 -9 37 6 40 5 53 -27 28 -66
26 -70 -32 -75 -30 -2 -81 -13 -115 -23 -61 -19 -76 -16 -77 16 0 17 -37 47
-44 36 -3 -5 1 -15 9 -22 30 -25 11 -104 -38 -157 -33 -37 -82 -28 -138 24
-25 23 -26 27 -13 51 7 15 29 43 49 62 30 29 37 32 45 20 8 -12 10 -9 10 10 0
24 3 26 34 22 54 -6 96 32 121 112 5 19 6 19 21 -2 8 -12 29 -29 46 -38z
m-3242 38 c0 -5 -7 -17 -15 -28 -14 -19 -14 -19 -15 2 0 11 3 24 7 27 9 10 23
9 23 -1z m2622 -53 c9 -30 22 -62 28 -72 9 -15 8 -18 -5 -15 -10 2 -25 26 -37
58 -31 86 -33 93 -18 88 8 -2 22 -29 32 -59z m-2112 18 c0 -5 -4 -5 -10 -2 -5
3 -10 -3 -10 -14 0 -11 -4 -23 -10 -26 -14 -9 -13 16 2 47 12 24 27 21 28 -5z
m2160 23 c0 -5 -4 -10 -9 -10 -6 0 -13 5 -16 10 -3 6 1 10 9 10 9 0 16 -4 16
-10z m60 -15 c0 -8 -9 -15 -19 -15 -10 0 -21 7 -25 15 -4 11 1 15 19 15 16 0
25 -6 25 -15z m45 5 c3 -5 -1 -10 -9 -10 -9 0 -16 5 -16 10 0 6 4 10 9 10 6 0
13 -4 16 -10z m-3001 -76 c-31 -42 -70 -107 -88 -145 l-32 -69 -30 33 c-54 57
-74 89 -74 117 0 23 3 27 24 23 16 -4 39 5 70 26 44 30 163 91 179 91 4 0 -18
-34 -49 -76z m2760 60 c3 -8 2 -12 -4 -9 -6 3 -10 10 -10 16 0 14 7 11 14 -7z
m129 -31 c21 -41 30 -73 20 -73 -5 0 -16 23 -25 50 -18 56 -16 64 5 23z m167
1 c0 -8 -4 -14 -10 -14 -5 0 -10 9 -10 21 0 11 5 17 10 14 6 -3 10 -13 10 -21z
m-54 -15 c-6 -42 -16 -49 -16 -12 0 27 6 43 17 43 2 0 2 -14 -1 -31z m-2853 1
c-5 -19 -23 -39 -23 -25 0 9 20 45 24 45 2 0 2 -9 -1 -20z m2803 -15 c9 -50 0
-53 -19 -5 -13 33 -13 40 -2 40 8 0 17 -15 21 -35z m-138 -10 c-3 -3 -9 2 -12
12 -6 14 -5 15 5 6 7 -7 10 -15 7 -18z m286 -26 c13 -30 13 -39 2 -54 -11 -16
-14 -13 -19 26 -3 25 -9 54 -13 64 -12 35 14 3 30 -36z m-2417 19 c-3 -8 -6
-5 -6 6 -1 11 2 17 5 13 3 -3 4 -12 1 -19z m564 -68 c62 -56 82 -82 105 -135
16 -40 24 -69 18 -73 -56 -39 -163 -126 -160 -129 3 -3 45 23 94 57 l89 62 54
-41 c30 -23 131 -80 224 -127 94 -48 172 -88 174 -90 10 -9 -123 -225 -181
-297 l-23 -28 -88 26 c-48 14 -134 42 -192 64 -58 21 -105 35 -105 30 0 -11
258 -106 338 -124 19 -4 31 -12 29 -18 -10 -29 -136 6 -376 104 -79 33 -151
59 -160 59 -9 0 54 -30 139 -65 156 -65 326 -125 357 -125 15 0 15 -2 -1 -19
-17 -19 -19 -19 -104 4 -103 27 -164 50 -372 139 -85 36 -159 66 -165 66 -21
-1 355 -166 465 -205 36 -13 57 -24 48 -24 -10 -1 -71 17 -135 40 -65 22 -197
67 -294 99 -186 61 -224 77 -276 116 -29 22 -31 27 -22 56 14 51 11 197 -6
263 -9 32 -12 61 -8 65 4 4 82 57 173 118 91 62 190 132 220 157 30 24 57 44
60 45 3 0 39 -31 81 -70z m1812 50 c3 -11 1 -20 -4 -20 -5 0 -9 9 -9 20 0 11
2 20 4 20 2 0 6 -9 9 -20z m-2903 -14 c-18 -49 -63 -131 -117 -215 -59 -93
-88 -127 -116 -143 -16 -8 -18 -7 -9 8 5 9 7 24 5 33 -5 19 92 211 139 277 17
24 37 44 45 44 18 0 -32 -97 -114 -221 -37 -55 -64 -101 -62 -104 3 -2 36 35
73 83 62 79 125 188 139 242 3 11 10 20 16 20 7 0 7 -8 1 -24z m577 2 c-3 -8
-6 -5 -6 6 -1 11 2 17 5 13 3 -3 4 -12 1 -19z m258 6 c-26 -20 -55 -36 -55
-30 0 5 63 46 70 46 3 -1 -4 -8 -15 -16z m2618 -108 c-5 -66 -2 -93 11 -120 9
-18 16 -40 16 -47 0 -7 10 -32 21 -57 l21 -43 -28 -30 c-40 -42 -123 -34 -192
17 -40 31 -94 54 -125 54 -23 0 -23 2 -17 45 4 26 12 51 19 58 16 16 163 21
220 9 41 -10 43 -9 27 6 -20 21 -189 30 -236 13 -40 -13 -49 6 -22 46 10 15
26 40 35 54 19 31 127 66 243 78 8 1 10 -24 7 -83z m98 50 c10 6 25 -28 34
-79 6 -32 4 -35 -22 -43 -15 -4 -43 -8 -60 -8 l-33 -1 0 66 c0 36 3 68 6 71 3
4 19 2 36 -3 17 -4 35 -6 39 -3z m-3087 -32 c3 -8 2 -12 -4 -9 -6 3 -10 10
-10 16 0 14 7 11 14 -7z m-821 -92 c-5 -12 -12 -20 -18 -19 -5 1 -23 -34 -38
-78 -15 -44 -53 -140 -84 -213 l-56 -132 -36 21 c-20 11 -71 46 -113 76 l-77
55 48 42 c26 22 112 109 191 192 l145 151 22 -37 c16 -26 21 -45 16 -58z
m-510 -32 c21 -55 27 -86 27 -149 0 -91 5 -111 29 -111 9 0 33 -16 52 -36 18
-20 65 -58 103 -85 39 -27 71 -56 72 -64 2 -12 -5 -10 -29 7 l-32 22 25 -29
c26 -28 133 -85 160 -85 8 1 -13 14 -47 30 -35 16 -63 31 -63 34 0 3 24 -6 53
-18 28 -13 61 -27 72 -31 17 -6 10 -12 -40 -36 -100 -47 -499 -179 -542 -179
-14 0 -45 31 -98 97 -66 83 -75 98 -61 107 8 6 43 27 78 46 34 19 84 56 112
82 l51 48 -37 -15 c-20 -8 -78 -40 -129 -70 -51 -30 -94 -53 -97 -51 -2 3 0
45 6 94 8 68 7 111 -4 191 -14 99 -13 103 6 128 12 15 55 40 101 59 45 19 85
36 88 40 11 12 -64 -8 -101 -27 -47 -24 -50 -24 -37 4 9 20 23 25 102 37 51 7
103 17 117 21 14 4 27 8 30 8 3 1 18 -30 33 -69z m1148 60 c34 -10 37 -13 43
-63 3 -28 6 -82 6 -119 l0 -68 -64 0 -65 0 -29 63 c-17 34 -33 73 -37 87 -4
14 -16 39 -26 56 -11 17 -19 34 -19 37 0 16 141 21 191 7z m2682 -25 c-22 -29
-27 -26 -13 9 5 15 14 24 20 21 6 -4 3 -15 -7 -30z m-2858 -51 c24 -50 12 -70
-58 -103 -34 -15 -73 -40 -86 -55 l-25 -26 -12 30 c-25 58 -36 38 -49 -88 -8
-72 -21 -89 -73 -97 -20 -3 -50 -10 -66 -15 -37 -12 -39 -10 -26 24 5 15 10
38 10 51 0 17 22 43 76 92 51 46 71 69 60 71 -24 5 -20 19 22 72 20 26 43 56
50 66 7 11 10 13 7 7 -8 -17 -10 -17 60 11 68 28 79 24 110 -40z m500 56 c-3
-5 -11 -10 -16 -10 -6 0 -7 5 -4 10 3 6 11 10 16 10 6 0 7 -4 4 -10z m2399 2
c3 -5 -11 -24 -31 -43 -36 -34 -36 -28 -1 24 21 29 24 31 32 19z m-3335 -92
c-13 -36 -18 -44 -15 -22 4 17 8 47 11 65 3 17 -17 -47 -44 -144 -27 -96 -56
-192 -65 -213 -9 -21 -16 -47 -16 -57 0 -11 -7 -19 -15 -19 -8 0 -15 1 -15 3
0 1 20 59 44 127 24 69 56 176 71 238 27 111 28 113 46 95 19 -18 19 -20 -2
-73z m699 74 c17 -8 46 -34 64 -57 29 -36 33 -48 33 -102 -1 -62 -23 -170 -33
-160 -3 3 -5 60 -5 128 0 67 -2 93 -3 57 -9 -168 -34 -202 -35 -47 0 51 -4
110 -8 132 -5 24 -6 -10 -3 -82 3 -85 2 -123 -6 -123 -21 0 -27 26 -28 126 -1
56 -5 111 -9 123 -8 25 -7 25 33 5z m2730 -20 c42 -7 42 -7 41 -48 -2 -67 -12
-89 -44 -98 -44 -12 -95 -1 -95 21 0 10 -9 26 -20 36 -23 21 -21 33 13 76 15
20 28 27 42 24 11 -3 39 -8 63 -11z m-3502 -131 c-38 -123 -94 -283 -105 -295
-3 -4 -11 -4 -18 0 -8 5 3 41 38 121 27 63 63 159 81 213 45 136 47 107 4 -39z
m3909 127 c3 -5 2 -10 -4 -10 -5 0 -13 5 -16 10 -3 6 -2 10 4 10 5 0 13 -4 16
-10z m-3805 -40 c-16 -40 -23 -33 -9 9 6 18 14 30 17 27 2 -3 -1 -19 -8 -36z
m3220 22 c0 -5 -7 -17 -15 -28 -14 -18 -14 -17 -4 9 12 27 19 34 19 19z m675
-2 c4 -6 9 -35 12 -64 l6 -54 -29 5 c-16 3 -34 10 -41 15 -14 11 -27 83 -18
98 8 13 62 13 70 0z m-4841 -25 c-21 -32 -205 -95 -231 -79 -24 15 -28 33 -5
27 26 -6 136 24 191 52 59 31 65 31 45 0z m-324 -24 c0 -6 -4 -12 -9 -16 -8
-5 -103 -137 -126 -174 -22 -38 21 8 75 80 34 43 64 79 68 79 13 0 52 -69 42
-75 -5 -3 -17 -32 -26 -63 -24 -85 -70 -185 -135 -297 -31 -55 -61 -113 -65
-128 -5 -21 -11 -26 -23 -22 -9 4 -56 22 -104 40 -88 33 -127 58 -127 79 0 6
29 38 64 71 89 84 196 211 279 332 66 95 87 118 87 94z m1246 -38 c-15 -66
-111 -343 -119 -343 -5 0 -6 8 -2 18 3 9 32 92 63 185 52 155 73 206 58 140z
m478 -40 c25 -73 21 -108 -17 -150 l-33 -36 -66 27 c-37 14 -79 26 -93 26 -26
0 -27 2 -21 32 8 39 40 67 124 109 34 18 65 36 68 41 9 15 22 -1 38 -49z
m2813 -15 l-15 -43 -1 60 c-1 55 0 58 15 43 15 -15 15 -20 1 -60z m-28 -18
c-1 -37 -2 -41 -9 -20 -7 21 -8 17 -9 -21 -1 -45 -27 -126 -37 -116 -3 3 2 19
10 36 9 16 16 45 16 64 0 19 3 55 6 81 8 58 24 41 23 -24z m-4189 -103 c-1
-72 -2 -160 -3 -195 -1 -53 2 -65 20 -77 12 -8 31 -32 44 -52 12 -21 37 -56
54 -78 43 -55 48 -65 33 -65 -7 0 -26 21 -43 45 -16 25 -33 45 -37 45 -13 0
-9 -10 22 -55 34 -49 39 -44 -62 -66 -45 -9 -76 -9 -140 -1 -90 13 -279 56
-316 72 -32 14 -18 30 26 30 84 0 352 92 352 121 0 8 -4 8 -12 1 -31 -24 -362
-112 -375 -99 -3 3 17 43 45 89 72 120 102 182 134 278 25 75 28 79 24 39 -5
-41 -15 -76 -41 -144 -6 -15 -5 -17 4 -9 18 16 52 124 58 182 5 48 8 52 32 53
14 0 58 10 96 23 57 18 71 20 78 9 5 -7 8 -73 7 -146z m4485 124 c22 -10 49
-28 59 -40 19 -20 19 -22 1 -62 -10 -22 -26 -44 -34 -48 -20 -10 -121 -6 -131
6 -4 4 -10 38 -13 75 -6 66 -6 67 21 77 39 14 52 13 97 -8z m-188 -11 c6 0 14
-15 18 -32 3 -18 13 -54 22 -79 17 -48 15 -54 -33 -118 -2 -2 -25 2 -50 9
l-47 14 -29 -34 c-38 -46 -36 -25 3 34 24 35 29 50 20 59 -8 8 -11 8 -11 0 0
-15 -41 -85 -47 -80 -2 3 16 43 40 90 25 46 48 99 52 117 6 26 11 31 28 26 12
-3 27 -6 34 -6z m57 -60 c5 -30 4 -42 -3 -35 -5 6 -13 30 -17 55 -4 30 -3 42
3 35 6 -5 13 -30 17 -55z m480 34 c3 -9 7 -39 8 -67 l1 -52 7 55 7 55 -1 -55
c-1 -44 -5 -55 -18 -58 -15 -3 -18 5 -20 50 -1 50 -2 51 -5 11 -2 -24 -9 -43
-15 -43 -10 0 -4 93 8 112 8 13 21 9 28 -8z m-3379 -13 c3 -5 1 -12 -5 -16 -5
-3 -10 1 -10 9 0 18 6 21 15 7z m290 -138 c-6 -34 -31 -45 -41 -18 -3 8 5 49
17 91 l24 76 3 -58 c2 -33 0 -74 -3 -91z m2395 107 c0 -22 -4 -40 -9 -40 -4 0
-7 10 -6 23 1 12 3 30 4 40 2 34 11 16 11 -23z m-2525 -12 l40 -43 -42 39
c-63 59 -60 40 4 -29 64 -68 67 -84 37 -181 l-19 -61 -87 31 c-72 26 -94 39
-124 75 -35 40 -36 44 -25 79 6 20 27 58 46 85 33 45 38 47 83 47 44 0 52 -4
87 -42z m3143 -9 c-3 -21 -3 -21 -27 -2 l-24 20 24 17 c21 14 24 15 27 1 2 -8
2 -24 0 -36z m-136 22 c18 -10 47 -22 64 -26 17 -3 43 -18 58 -34 l27 -28 -21
-26 c-12 -15 -24 -26 -28 -25 -20 6 -112 -14 -112 -24 0 -7 -13 1 -30 17 -35
34 -37 52 -11 101 11 20 17 42 14 50 -7 19 -1 18 39 -5z m77 -7 c2 -2 -7 -4
-22 -4 -14 0 -29 5 -32 10 -6 10 42 4 54 -6z m-3416 -82 c31 -13 57 -28 57
-32 0 -4 -15 -18 -34 -31 -18 -13 -56 -45 -84 -70 l-52 -47 -12 -95 c-9 -76
-14 -92 -23 -80 -9 12 -8 26 3 57 15 45 12 140 -6 158 -7 7 -8 -1 0 -32 14
-52 -5 -150 -29 -150 -12 0 -13 7 -6 33 4 17 8 74 8 125 0 78 2 92 16 92 16 0
32 29 43 83 6 24 10 26 34 21 15 -4 53 -18 85 -32z m88 -35 c-8 -8 -11 -7 -11
4 0 20 13 34 18 19 3 -7 -1 -17 -7 -23z m3163 17 c5 -12 2 -15 -10 -10 -8 3
-18 6 -20 6 -3 0 -2 5 1 10 9 15 22 12 29 -6z m-79 -9 c51 -8 128 -57 143 -90
15 -31 15 -55 2 -55 -5 0 -25 -14 -45 -31 l-35 -31 -39 35 c-25 22 -55 38 -78
42 -57 10 -62 12 -74 38 -9 21 -7 31 16 66 21 31 33 40 49 36 11 -2 39 -7 61
-10z m-3340 -5 c-3 -5 -18 -10 -33 -9 l-27 1 25 8 c35 11 42 11 35 0z m3675
-31 c0 -33 -7 -37 -25 -12 -9 12 -10 22 -2 34 15 24 27 14 27 -22z m40 -41 c0
-64 -11 -100 -24 -80 -9 15 5 142 15 142 5 0 9 -28 9 -62z m-3439 19 c50 -63
51 -71 20 -113 -15 -22 -45 -56 -65 -77 l-38 -38 48 -69 c46 -68 47 -71 28
-85 -65 -50 -95 -66 -130 -70 -94 -12 -88 -13 -96 30 -11 61 -9 125 3 125 6 0
22 9 36 20 14 11 43 23 65 26 21 4 38 10 38 15 0 11 -71 -1 -97 -17 l-21 -13
5 77 c5 76 6 77 57 131 45 47 101 91 116 91 3 0 17 -15 31 -33z m-332 4 c25
-46 24 -98 -4 -180 -36 -109 -45 -117 -97 -90 -25 13 -49 18 -64 15 -32 -8
-32 10 6 128 33 102 38 109 96 130 51 19 52 19 63 -3z m642 -76 c-24 -64 -20
-71 9 -17 17 32 19 34 15 10 -15 -83 -14 -82 -34 -64 -18 16 -18 21 -4 74 17
65 25 81 31 64 2 -6 -6 -36 -17 -67z m2579 65 c10 -5 23 -24 29 -41 6 -17 19
-33 30 -36 19 -5 19 -5 -1 -39 -11 -19 -35 -46 -54 -60 -31 -24 -34 -25 -63
-10 -46 24 -48 0 -2 -26 23 -13 46 -35 52 -50 6 -16 16 -28 21 -28 6 0 7 8 3
18 -18 43 -17 59 9 75 14 9 37 37 51 62 15 25 30 45 33 45 10 -1 46 -23 76
-47 l27 -21 -21 -34 c-11 -18 -20 -49 -20 -69 0 -36 -1 -37 -46 -44 -63 -9
-52 -30 14 -26 32 1 52 -2 52 -8 0 -6 -12 -11 -27 -11 -20 0 -24 -3 -14 -9 9
-6 -9 -14 -58 -27 -39 -10 -71 -22 -71 -26 0 -4 4 -8 10 -8 16 0 323 77 354
89 16 7 31 10 33 7 5 -5 -136 -56 -254 -91 l-93 -28 0 -51 c0 -28 5 -58 11
-66 7 -11 9 1 7 43 l-3 58 145 48 c80 27 165 58 188 70 23 12 42 19 42 16 0
-3 9 -1 20 5 12 6 20 7 20 1 0 -5 3 -16 6 -24 7 -20 -104 -100 -129 -93 -13 3
-17 0 -13 -10 4 -11 -1 -13 -22 -9 -22 4 -23 4 -7 -4 17 -7 12 -11 -30 -22
-27 -7 -43 -15 -34 -17 9 -1 47 9 84 23 l68 25 23 -21 c13 -12 22 -25 20 -28
-3 -4 12 -7 32 -7 59 -1 153 -44 173 -79 33 -58 32 -70 -3 -86 -18 -8 -39 -26
-46 -41 -15 -32 -24 -34 -42 -13 -15 18 -6 78 15 95 7 6 26 15 42 19 24 7 25
10 10 16 -21 9 -63 -18 -81 -51 -6 -10 -12 -21 -14 -24 -2 -2 -7 2 -12 10 -7
11 -10 8 -10 -14 0 -16 -3 -27 -6 -23 -14 14 9 109 33 137 14 17 20 30 15 30
-16 0 -52 -55 -52 -79 0 -30 -16 -26 -30 8 -17 43 -60 78 -105 85 l-40 7 41
-30 c35 -26 74 -70 74 -84 0 -2 -11 -2 -25 1 -34 6 -101 -23 -129 -55 l-23
-27 -8 23 c-8 27 27 70 79 95 25 13 27 16 10 16 -12 0 -41 -17 -65 -38 l-43
-39 -24 29 c-29 34 -46 36 -38 4 5 -22 4 -23 -37 -19 -36 4 -46 1 -66 -21 -28
-30 -16 -34 27 -9 28 16 33 16 65 1 30 -14 35 -22 41 -64 3 -26 6 -55 6 -66 0
-19 -1 -19 -26 1 -34 27 -72 27 -101 0 l-22 -22 -46 37 c-25 21 -57 60 -71 88
-14 27 -28 48 -31 45 -7 -7 44 -155 67 -194 11 -18 15 -33 11 -33 -27 0 -114
149 -110 189 1 9 0 43 -1 76 -2 58 -2 59 -14 31 l-13 -28 -6 23 c-12 42 -7
152 8 218 9 36 13 71 10 79 -3 7 0 22 6 33 7 13 7 30 1 52 -6 18 -13 53 -16
78 -5 41 -2 51 27 88 32 42 59 51 97 31z m464 -12 c15 -20 14 -24 -7 -46 -51
-55 -86 -49 -105 16 -7 22 -12 42 -12 46 0 3 24 6 54 6 45 0 58 -4 70 -22z
m-3903 -21 c-10 -9 -11 -8 -5 6 3 10 9 15 12 12 3 -3 0 -11 -7 -18z m-100 -12
c19 -8 27 -14 19 -14 -14 0 -72 28 -59 29 4 0 22 -7 40 -15z m79 -25 c18 -12
2 -12 -25 0 -13 6 -15 9 -5 9 8 0 22 -4 30 -9z m656 -16 c6 -50 46 -150 69
-174 l26 -27 -63 -35 c-35 -19 -71 -33 -80 -30 -18 4 -57 63 -63 94 -2 10 -7
22 -10 28 -3 5 17 37 45 72 27 34 50 70 50 81 0 24 23 17 26 -9z m3374 1 c0
-14 -4 -25 -9 -25 -4 0 -6 11 -3 25 2 14 6 25 8 25 2 0 4 -11 4 -25z m-117
-29 c-19 -17 -31 -21 -38 -14 -7 7 -6 12 2 15 7 3 23 13 35 23 34 27 34 5 1
-24z m-3108 -34 c3 -12 10 -20 16 -16 21 12 50 -34 47 -74 -3 -32 -6 -37 -28
-36 -51 3 -90 12 -104 23 -16 13 -67 156 -59 164 2 3 31 -5 63 -16 44 -16 60
-28 65 -45z m287 -7 c96 -45 205 -79 236 -73 9 2 -14 12 -52 21 -69 18 -216
80 -216 92 0 3 17 -3 38 -14 20 -10 104 -40 185 -66 81 -26 146 -49 145 -50
-2 -1 -46 2 -99 6 -97 7 -121 15 -292 91 -46 21 -68 38 -49 38 5 0 52 -20 104
-45z m2738 30 c23 -12 30 -23 30 -45 0 -35 -14 -50 -69 -74 -22 -11 -41 -22
-41 -27 0 -4 -19 -10 -41 -14 -44 -8 -59 2 -59 37 0 32 110 138 143 138 4 0
21 -7 37 -15z m140 -56 c0 -21 -4 -39 -10 -39 -5 0 -10 21 -10 46 0 27 4 43
10 39 6 -3 10 -24 10 -46z m-2943 15 c-6 -6 -47 9 -47 17 0 5 11 3 25 -3 14
-6 24 -13 22 -14z m1299 17 c-7 -11 -135 -88 -161 -96 -11 -4 21 18 70 48 99
61 98 61 91 48z m1602 -76 c-2 -1 -15 -5 -30 -9 l-27 -6 16 37 c27 66 38 72
41 24 2 -24 2 -44 0 -46z m77 65 c8 -12 -5 -60 -16 -60 -5 0 -9 16 -9 35 0 33
12 46 25 25z m-3020 -50 c3 -5 1 -10 -4 -10 -6 0 -11 5 -11 10 0 6 2 10 4 10
3 0 8 -4 11 -10z m42 -36 c-3 -3 -12 -4 -19 -1 -8 3 -5 6 6 6 11 1 17 -2 13
-5z m-897 -20 l25 -15 -25 7 c-14 3 -32 10 -40 15 -13 7 -13 8 0 8 8 0 26 -6
40 -15z m160 1 c9 -11 9 -26 1 -65 -6 -28 -11 -67 -11 -86 0 -24 -4 -34 -12
-31 -8 2 -11 15 -8 33 3 16 5 59 5 97 -1 69 4 78 25 52z m3540 11 c0 -2 -9 -6
-20 -9 -11 -3 -18 -1 -14 4 5 9 34 13 34 5z m90 -8 c0 -4 -6 -8 -14 -8 -7 0
-29 -3 -47 -6 -23 -5 -31 -3 -24 4 16 17 85 25 85 10z m-2651 -14 c8 -8 -84
-2 -109 6 -16 6 -1 7 40 3 36 -3 67 -7 69 -9z m204 9 c-7 -2 -19 -2 -25 0 -7
3 -2 5 12 5 14 0 19 -2 13 -5z m-1263 -18 c-7 -8 -20 -15 -29 -15 -11 1 -8 5
9 15 32 18 35 18 20 0z m3820 -28 c0 -16 -18 3 -23 25 -6 22 -5 22 8 4 8 -11
15 -24 15 -29z m-2453 16 c29 -9 53 -20 53 -24 0 -4 -24 -19 -53 -33 -43 -22
-70 -27 -155 -30 -56 -2 -102 0 -102 5 0 5 23 9 51 9 64 0 179 20 179 32 0 4
-7 8 -15 8 -8 0 -15 3 -15 8 0 4 -62 6 -137 4 -76 -2 -149 1 -163 6 -23 8 85
20 274 30 16 1 53 -6 83 -15z m-1849 2 c-9 -9 -172 -65 -188 -64 -8 0 28 16
80 34 94 33 118 40 108 30z m1132 -54 c0 -13 -14 -46 -31 -73 -28 -42 -35 -48
-66 -48 -29 0 -44 9 -81 46 l-46 46 24 19 c14 10 30 19 35 19 6 0 26 10 44 23
33 23 36 23 78 8 35 -13 43 -21 43 -40z m227 53 c-3 -3 -12 -4 -19 -1 -8 3 -5
6 6 6 11 1 17 -2 13 -5z m838 -4 c3 -5 -1 -10 -10 -10 -9 0 -13 5 -10 10 3 6
8 10 10 10 2 0 7 -4 10 -10z m-1672 -68 c-4 -43 -10 -62 -19 -62 -19 0 -18 51
1 97 8 20 17 34 19 32 3 -2 2 -32 -1 -67z m915 61 c-10 -2 -26 -2 -35 0 -10 3
-2 5 17 5 19 0 27 -2 18 -5z m2836 -9 c10 -26 -5 -39 -21 -19 -7 11 -13 22
-13 27 0 15 28 8 34 -8z m-3890 -7 c15 -11 16 -23 7 -138 -12 -147 -29 -204
-73 -241 -18 -16 -29 -28 -25 -28 3 0 22 14 42 31 19 17 35 28 35 24 0 -12
-65 -65 -80 -65 -18 0 -53 35 -90 89 -21 31 -22 38 -12 78 7 25 26 80 43 124
25 66 38 86 71 110 46 32 56 35 82 16z m866 9 c0 -3 -4 -8 -10 -11 -5 -3 -10
-1 -10 4 0 6 5 11 10 11 6 0 10 -2 10 -4z m2835 -7 c-50 -15 -162 -23 -150
-11 12 13 51 19 125 20 48 0 51 -1 25 -9z m-3880 -9 c-3 -5 -11 -10 -16 -10
-6 0 -7 5 -4 10 3 6 11 10 16 10 6 0 7 -4 4 -10z m1757 0 c5 0 -4 -12 -21 -26
-22 -18 -40 -24 -63 -22 l-32 3 40 27 c21 15 45 25 52 22 8 -2 18 -4 24 -4z
m-625 -6 c-3 -3 -12 -4 -19 -1 -8 3 -5 6 6 6 11 1 17 -2 13 -5z m378 -4 c-33
-4 -87 -8 -120 -8 -51 1 -55 2 -25 8 19 4 73 7 120 7 85 0 85 0 25 -7z m2644
-23 l36 -33 -65 2 c-50 1 -66 5 -68 17 -2 12 30 38 57 46 2 1 20 -14 40 -32z
m-5441 9 c15 -8 79 -26 142 -41 113 -27 343 -101 285 -92 -16 3 -41 8 -55 12
l-25 6 25 -15 c30 -18 21 -21 -15 -4 -18 8 -22 14 -13 20 9 5 4 8 -13 8 -15 0
-46 7 -70 15 -24 9 -52 14 -62 11 -10 -2 -42 6 -72 20 -30 13 -65 25 -79 28
-38 7 -107 46 -81 46 4 0 18 -6 33 -14z m1562 -8 c0 -34 -11 -68 -21 -68 -5 0
-9 20 -9 45 0 33 4 45 15 45 9 0 15 -9 15 -22z m1535 2 c-20 -22 -103 -65
-111 -57 -9 9 88 77 109 77 19 0 19 -1 2 -20z m140 10 c-27 -12 -43 -12 -25 0
8 5 22 9 30 9 10 0 8 -3 -5 -9z m-3245 -30 c22 -11 40 -23 40 -25 0 -5 -79 32
-89 41 -11 10 14 2 49 -16z m1994 -28 c30 -48 81 -92 107 -92 27 0 24 -11 -15
-53 -30 -33 -39 -37 -82 -37 -58 0 -61 2 -107 63 -23 30 -34 54 -30 65 6 18
82 91 95 92 4 0 19 -17 32 -38z m3340 26 c-4 -7 -14 -21 -22 -30 -17 -20 -3
-25 15 -7 11 11 83 19 83 11 0 -2 -10 -17 -21 -34 -19 -27 -25 -29 -58 -23
-19 4 -46 12 -58 19 -23 12 -23 12 19 44 46 35 53 38 42 20z m-5309 -42 c44
-24 101 -57 125 -74 25 -16 66 -40 93 -53 50 -25 59 -35 28 -35 -11 0 -17 4
-15 8 3 4 -21 21 -53 37 -32 16 -105 57 -162 90 -57 34 -106 59 -109 57 -2 -3
43 -36 101 -73 58 -37 113 -74 124 -81 23 -16 -93 45 -127 67 -52 34 -6 -11
51 -50 33 -22 58 -43 55 -46 -6 -6 -86 20 -178 58 -37 15 -70 24 -73 19 -4 -7
90 -51 185 -85 45 -17 288 -135 276 -135 -4 0 -47 17 -95 39 -129 58 -383 136
-350 107 2 -2 51 -19 109 -39 121 -41 320 -123 335 -138 10 -11 -107 31 -145
51 -12 6 -24 9 -27 6 -3 -3 38 -26 91 -52 53 -26 96 -51 96 -55 0 -5 -8 -5
-17 1 -10 5 -29 14 -43 20 -14 5 -33 15 -42 22 -25 18 -35 1 -37 -62 -1 -22
-4 -20 -22 16 -11 23 -29 50 -39 59 -29 26 -85 21 -138 -12 l-47 -28 -22 22
c-23 24 -58 29 -83 13 -12 -8 -10 -10 8 -10 56 0 93 -57 68 -104 l-12 -24 -17
30 c-10 17 -20 28 -24 25 -3 -4 2 -18 11 -31 9 -14 15 -42 15 -63 -2 -30 -3
-32 -6 -10 -2 15 -8 27 -13 27 -6 0 -7 -20 -4 -44 4 -25 2 -52 -5 -62 -9 -16
-10 -13 -11 21 0 46 -6 57 -37 74 -33 17 -64 13 -91 -11 l-24 -23 7 25 c10 35
41 59 86 66 47 8 50 21 9 31 l-30 8 23 35 c23 33 64 167 54 176 -2 2 -12 -14
-22 -36 -18 -39 -18 -39 -29 -18 -6 13 -20 24 -31 26 -19 3 -19 2 -2 -12 21
-17 34 -80 18 -90 -7 -5 -11 4 -11 23 0 38 -15 41 -24 5 l-7 -25 -30 25 c-17
15 -36 23 -42 19 -6 -4 -2 -10 12 -14 32 -12 35 -33 16 -94 -18 -59 -28 -73
-19 -26 9 42 -24 73 -67 64 l-32 -6 39 73 c29 55 68 104 159 197 66 68 124
123 129 123 5 0 46 -20 91 -44z m900 24 c-22 -10 -44 -18 -50 -18 -5 0 8 8 30
19 22 10 45 18 50 18 6 0 -8 -9 -30 -19z m235 16 c0 -2 -32 -27 -71 -57 -130
-99 -126 -95 -110 -76 14 18 168 137 177 137 2 0 4 -2 4 -4z m24 -35 c-148
-111 -174 -129 -174 -123 1 12 189 152 204 152 5 0 -8 -13 -30 -29z m566 -56
c87 -1 84 0 114 -45 l26 -40 -42 -60 -43 -61 -73 5 c-94 6 -84 -7 11 -15 l72
-6 -70 -1 c-38 -1 -75 2 -81 6 -14 9 1 169 18 190 11 13 10 15 -4 9 -23 -8
-27 23 -11 83 6 21 8 18 12 -20 l6 -45 65 0z m1216 70 c-11 -8 -31 -15 -45
-14 -22 1 -19 3 14 14 52 17 54 17 31 0z m-2256 -5 c-8 -5 -24 -9 -35 -9 l-20
0 20 9 c11 5 27 9 35 9 13 1 13 0 0 -9z m255 -36 c-91 -60 -105 -67 -105 -55
0 11 147 101 165 101 6 0 -21 -21 -60 -46z m1425 26 c12 -8 12 -10 -5 -10 -11
0 -27 5 -35 10 -12 8 -12 10 5 10 11 0 27 -5 35 -10z m320 -6 c0 -2 -21 -4
-47 -3 -32 0 -42 3 -29 8 18 7 76 3 76 -5z m148 9 c-10 -2 -26 -2 -35 0 -10 3
-2 5 17 5 19 0 27 -2 18 -5z m2648 -4 c28 -7 51 -21 61 -36 14 -22 14 -25 -2
-43 -14 -15 -16 -29 -11 -62 5 -35 4 -39 -5 -23 -19 33 -63 76 -87 86 -20 8
-21 11 -10 29 7 11 16 20 20 20 5 0 8 5 8 12 0 6 -13 0 -28 -15 -28 -27 -62
-36 -62 -16 0 19 35 58 53 59 10 0 38 -5 63 -11z m-3171 -17 c-3 -3 -11 0 -18
7 -9 10 -8 11 6 5 10 -3 15 -9 12 -12z m128 11 c-7 -2 -19 -2 -25 0 -7 3 -2 5
12 5 14 0 19 -2 13 -5z m362 -13 c16 -7 13 -9 -15 -8 -19 0 -46 4 -60 8 -21 7
-19 8 15 8 22 0 49 -3 60 -8z m-2035 -10 c-8 -5 -19 -10 -25 -10 -5 0 -3 5 5
10 8 5 20 10 25 10 6 0 3 -5 -5 -10z m2113 3 c-7 -2 -19 -2 -25 0 -7 3 -2 5
12 5 14 0 19 -2 13 -5z m-2047 -24 c-14 -11 -32 -19 -39 -16 -6 2 1 11 18 20
42 23 53 21 21 -4z m756 7 c16 -11 17 -26 11 -124 -5 -88 -9 -109 -20 -105 -7
3 -11 13 -9 22 3 9 8 52 11 96 5 57 3 76 -4 65 -6 -8 -11 -40 -12 -70 -2 -84
-10 -103 -48 -113 -18 -4 -35 -6 -37 -4 -2 2 1 18 6 37 5 18 12 67 16 109 3
42 7 82 9 89 6 16 55 15 77 -2z m1058 4 c0 -11 -14 -11 -50 0 -22 7 -21 8 13
9 20 1 37 -3 37 -9z m-2080 -16 c0 -2 -7 -4 -15 -4 -8 0 -15 4 -15 10 0 5 7 7
15 4 8 -4 15 -8 15 -10z m630 1 c-7 -9 -15 -13 -19 -10 -3 3 1 10 9 15 21 14
24 12 10 -5z m1147 -8 c4 -7 0 -8 -11 -4 -10 4 -24 7 -32 7 -8 0 -14 4 -14 9
0 11 49 1 57 -12z m202 7 c10 -9 -65 -3 -78 5 -10 6 1 8 30 4 24 -3 46 -7 48
-9z m206 6 c15 -6 6 -9 -32 -9 -29 -1 -53 4 -53 9 0 12 57 12 85 0z m-1820
-25 c-16 -14 -34 -25 -39 -25 -6 0 5 11 24 25 43 32 54 32 15 0z m1482 19 c-3
-3 -12 -4 -19 -1 -8 3 -5 6 6 6 11 1 17 -2 13 -5z m-2141 -62 c-5 -4 -106 46
-106 53 0 3 25 -7 55 -22 30 -15 53 -29 51 -31z m816 18 c-18 -17 -38 -30 -44
-30 -13 0 -9 5 36 38 41 32 47 26 8 -8z m1089 -36 c-7 -39 -8 -61 -1 -68 13
-13 13 -29 1 -21 -5 3 -17 28 -26 56 -17 50 -17 51 6 75 12 13 24 22 26 20 3
-2 0 -30 -6 -62z m427 59 c-10 -2 -26 -2 -35 0 -10 3 -2 5 17 5 19 0 27 -2 18
-5z m-2198 -13 c0 -5 -2 -10 -4 -10 -3 0 -8 5 -11 10 -3 6 -1 10 4 10 6 0 11
-4 11 -10z m215 0 c3 -5 -1 -10 -10 -10 -9 0 -13 5 -10 10 3 6 8 10 10 10 2 0
7 -4 10 -10z m2476 -19 c13 -11 21 -22 17 -26 -9 -9 -68 26 -62 37 8 13 20 10
45 -11z m-1991 -16 c-7 -8 -18 -15 -24 -15 -6 0 -2 7 8 15 25 19 32 19 16 0z
m1237 9 c-3 -3 -12 -4 -19 -1 -8 3 -5 6 6 6 11 1 17 -2 13 -5z m3287 -87 c20
-39 39 -88 43 -107 l6 -35 -36 47 c-20 26 -46 57 -57 68 -11 11 -20 25 -20 30
0 19 19 10 44 -22 14 -18 26 -30 26 -26 0 3 -16 25 -35 48 -20 24 -35 53 -35
67 0 38 21 16 64 -70z m-2667 77 c-3 -3 -12 -4 -19 -1 -8 3 -5 6 6 6 11 1 17
-2 13 -5z m53 -19 c0 -8 6 -12 14 -9 17 7 76 -22 76 -37 0 -6 -8 -8 -19 -4
-10 3 -24 -1 -31 -10 -7 -8 -16 -13 -20 -10 -5 3 -12 0 -16 -6 -4 -8 -3 -9 4
-5 7 4 12 3 12 -2 0 -6 -6 -12 -13 -15 -19 -7 -18 24 1 46 9 10 10 17 4 17 -6
0 -18 -10 -26 -22 -13 -18 -16 -19 -16 -5 0 9 -5 17 -11 17 -5 0 -7 5 -4 10 3
6 11 10 16 10 6 0 7 -4 4 -10 -3 -5 -2 -10 4 -10 12 0 20 21 14 37 -4 9 -12 8
-31 -4 l-27 -17 19 22 c22 25 46 29 46 7z m213 -43 l21 -23 -39 16 c-39 16
-65 39 -65 57 0 12 56 -22 83 -50z m-1114 26 c23 -62 23 -63 -16 -77 -35 -13
-38 -13 -61 15 l-25 28 34 11 c18 6 37 19 43 28 14 22 15 21 25 -5z m-1649 2
c8 -5 11 -10 5 -10 -5 0 -17 5 -25 10 -8 5 -10 10 -5 10 6 0 17 -5 25 -10z
m-230 -41 c30 -15 48 -28 40 -28 -8 0 -44 16 -80 35 -36 19 -54 32 -40 28 14
-4 50 -19 80 -35z m90 31 c13 -8 13 -10 -2 -10 -9 0 -20 5 -23 10 -8 13 5 13
25 0z m1580 -5 c7 -8 30 -18 51 -21 33 -6 43 -13 64 -52 25 -45 30 -69 19
-109 -6 -22 -18 -27 -104 -38 l-45 -6 -47 62 c-52 69 -52 69 4 142 33 41 40
44 58 22z m-1599 -26 c19 -16 20 -18 4 -10 -34 17 -51 31 -39 31 7 0 22 -9 35
-21z m88 -5 c14 -12 -19 -1 -35 12 -18 14 -18 14 6 3 14 -6 27 -13 29 -15z
m2261 16 c-8 -5 -24 -9 -35 -9 -16 1 -16 2 5 9 35 11 48 11 30 0z m-110 -35
c-29 -16 -60 -19 -60 -6 0 10 27 17 65 19 17 1 17 -1 -5 -13z m259 -25 c-37
-46 -50 -53 -23 -12 15 23 43 51 52 52 2 0 -12 -18 -29 -40z m86 30 c-3 -5 -2
-10 4 -10 5 0 13 5 16 11 5 7 14 4 26 -7 26 -23 24 -37 -2 -23 -16 8 -28 8
-47 -1 -22 -10 -24 -9 -12 4 19 24 0 19 -29 -6 -14 -13 -20 -16 -13 -7 6 9 10
19 7 22 -3 4 -2 5 1 2 4 -2 16 2 28 10 24 18 29 19 21 5z m-2484 -26 c17 -20
-2 -17 -31 6 -24 18 -24 19 -3 14 12 -4 28 -12 34 -20z m4835 9 c22 -23 44
-76 44 -109 0 -22 -2 -25 -15 -14 -9 8 -30 11 -53 8 -30 -5 -38 -2 -39 11 -1
9 -7 30 -13 46 l-12 30 -12 -30 c-11 -27 -13 -28 -18 -9 -7 28 -1 37 42 63 42
25 54 26 76 4z m-4747 -19 c13 -12 -8 -10 -29 2 l-25 15 25 -7 c14 -3 27 -8
29 -10z m2107 1 c-11 -8 -26 -15 -33 -15 -7 0 -12 -5 -10 -11 1 -6 -4 -14 -12
-16 -28 -11 -4 23 30 39 41 22 51 22 25 3z m522 -12 c32 -46 44 -73 32 -73 -6
0 -15 11 -20 25 -5 14 -15 25 -21 25 -8 0 -7 -5 2 -17 12 -14 10 -14 -13 1
-29 19 -32 25 -22 50 9 23 20 20 42 -11z m-1063 -3 c3 -5 2 -10 -4 -10 -5 0
-13 5 -16 10 -3 6 -2 10 4 10 5 0 13 -4 16 -10z m102 -52 c-4 -29 -9 -63 -13
-75 -3 -13 -2 -23 3 -23 6 0 15 19 20 43 l11 42 1 -35 c1 -40 -8 -80 -18 -80
-4 0 -22 20 -39 44 -57 79 -52 136 11 136 l30 0 -6 -52z m563 49 c0 -2 -10
-12 -22 -23 l-23 -19 19 23 c18 21 26 27 26 19z m223 -45 c18 -30 40 -102 31
-102 -2 0 -15 18 -29 40 -14 22 -30 40 -36 40 -5 0 -7 -6 -3 -12 5 -9 2 -9 -9
1 -18 15 -23 26 -7 16 6 -3 10 -1 10 5 0 6 6 8 13 4 7 -4 9 -3 4 2 -5 5 -13 9
-18 9 -5 0 -9 3 -9 8 0 4 0 12 0 18 0 22 35 3 53 -29z m2150 23 c-3 -9 -8 -14
-10 -11 -3 3 -2 9 2 15 9 16 15 13 8 -4z m405 2 c21 -25 51 -117 61 -188 5
-40 8 -75 6 -77 -2 -2 -13 15 -25 38 -12 23 -39 62 -62 86 -24 26 -38 50 -36
61 3 13 10 7 26 -23 21 -42 62 -73 47 -37 -4 10 -8 25 -10 35 -5 23 -33 76
-44 83 -6 3 2 -15 15 -40 32 -55 26 -58 -10 -6 -23 33 -26 43 -16 60 12 24 32
27 48 8z m-3873 -17 c-16 -18 -20 -19 -35 -5 -14 13 -16 11 -13 -23 l3 -37
-15 30 c-15 29 -15 27 -13 -47 2 -43 0 -78 -4 -78 -5 0 -8 38 -8 84 0 93 -2
90 69 94 33 1 33 1 16 -18z m-135 -50 l0 -59 -36 24 c-20 14 -41 25 -47 25
-14 0 14 31 48 52 17 10 31 18 33 18 1 0 2 -27 2 -60z m30 -25 c0 -50 -4 -85
-10 -85 -6 0 -10 35 -10 85 0 50 4 85 10 85 6 0 10 -35 10 -85z m278 54 c33
-39 38 -47 46 -81 5 -24 1 -31 -47 -62 -60 -40 -64 -41 -137 -25 -42 9 -50 14
-45 27 4 10 12 49 19 87 l12 70 45 6 c24 3 52 7 62 7 10 1 30 -12 45 -29z
m-468 -11 c0 -6 -7 -5 -15 2 -8 7 -15 17 -15 22 0 6 7 5 15 -2 8 -7 15 -17 15
-22z m-900 -4 c0 -2 -9 0 -20 6 -11 6 -20 13 -20 16 0 2 9 0 20 -6 11 -6 20
-13 20 -16z m2297 4 c-3 -8 -6 -5 -6 6 -1 11 2 17 5 13 3 -3 4 -12 1 -19z
m113 12 c0 -5 -5 -10 -11 -10 -5 0 -7 5 -4 10 3 6 8 10 11 10 2 0 4 -4 4 -10z
m-2700 -42 c16 -22 30 -53 30 -67 -1 -24 -3 -23 -22 14 -28 53 -35 28 -7 -27
l21 -43 -37 35 -38 35 27 -46 c38 -66 32 -75 -16 -23 -38 41 -46 45 -78 41
-19 -2 -44 -7 -54 -12 -17 -8 -19 -5 -12 26 12 66 61 109 123 109 27 0 38 -7
63 -42z m5250 10 c-1 -26 -3 -30 -10 -16 -6 9 -7 23 -4 32 9 25 14 19 14 -16z
m-5655 -18 c-8 -16 -20 -32 -26 -36 -6 -4 -10 -3 -7 2 2 5 11 23 18 41 8 17
18 30 22 27 4 -3 1 -18 -7 -34z m1880 -35 c-6 -53 -25 -78 -25 -34 0 27 22
101 28 95 2 -3 1 -30 -3 -61z m3244 -10 c-3 -3 -21 14 -39 38 l-33 42 39 -37
c21 -21 36 -40 33 -43z m278 -22 c-2 -21 -4 -6 -4 32 0 39 2 55 4 38 2 -18 2
-50 0 -70z m-4871 72 c18 -14 17 -14 -13 -15 -23 0 -33 5 -33 15 0 19 21 19
46 0z m139 -37 c35 -34 43 -48 39 -65 -4 -13 -11 -20 -16 -17 -5 3 -7 12 -4
20 3 9 -12 34 -35 59 -53 57 -43 58 16 3z m-772 19 c3 -8 -14 -28 -41 -48 -53
-40 -74 -75 -26 -45 16 10 37 27 47 38 9 11 17 16 17 12 0 -17 -15 -32 -84
-84 l-69 -53 29 53 c30 54 100 140 114 140 4 0 10 -6 13 -13z m801 -2 c11 -8
16 -15 10 -15 -5 0 -18 7 -28 15 -11 8 -16 15 -10 15 5 0 18 -7 28 -15z m1639
-13 c13 -28 13 -28 -16 -24 -18 3 -33 -1 -38 -9 -8 -12 -11 -12 -19 1 -14 22
-13 23 23 41 17 9 33 17 34 18 1 0 8 -12 16 -27z m2905 -2 c16 -31 10 -107
-14 -184 -20 -63 -34 -72 -34 -22 0 19 -7 65 -15 102 -9 36 -14 68 -11 71 2 2
11 -24 19 -59 13 -54 15 -58 16 -27 0 20 -5 56 -13 82 -10 33 -11 48 -2 57 16
16 39 8 54 -20z m287 -16 c16 -31 20 -59 20 -139 -1 -135 -15 -160 -36 -60
-11 56 -12 75 -3 75 17 0 -1 88 -25 121 -15 20 -17 29 -8 38 17 17 30 9 52
-35z m-436 0 c12 -20 20 -39 17 -41 -2 -3 -14 13 -26 36 -25 51 -20 54 9 5z
m-3415 16 c41 -15 59 -63 52 -133 -11 -90 -20 -107 -57 -107 -18 0 -51 -11
-74 -25 -42 -24 -43 -24 -60 -5 -19 22 -19 25 16 177 15 63 27 93 38 96 29 8
59 7 85 -3z m466 -11 c0 -6 -4 -7 -10 -4 -5 3 -10 11 -10 16 0 6 5 7 10 4 6
-3 10 -11 10 -16z m-1595 -1 c35 -16 31 -28 -9 -28 -19 0 -37 -4 -41 -9 -3 -6
9 -7 31 -4 28 5 35 3 30 -6 -4 -6 -2 -18 4 -26 10 -13 8 -15 -14 -15 -14 0
-35 -9 -46 -20 -15 -15 -20 -16 -20 -5 0 8 12 26 28 40 21 21 23 24 7 19 -11
-4 -26 -11 -32 -17 -16 -12 -18 20 -3 57 10 29 26 32 65 14z m65 2 c11 -6 25
-20 31 -33 11 -21 11 -21 -17 3 -16 14 -33 28 -38 32 -14 11 2 10 24 -2z
m1621 -16 c13 -16 16 -95 4 -114 -3 -5 -13 -10 -22 -10 -9 0 -35 -11 -57 -24
-47 -28 -85 -25 -113 7 -13 14 -14 18 -3 13 8 -4 5 2 -8 13 l-22 20 33 25 c18
14 50 32 70 41 21 9 40 22 44 30 7 20 57 19 74 -1z m3093 -19 c3 -8 1 -15 -4
-15 -6 0 -10 7 -10 15 0 8 2 15 4 15 2 0 6 -7 10 -15z m-4983 -44 c16 -16 29
-35 29 -43 0 -8 -4 -7 -11 5 -16 27 -30 21 -19 -9 13 -34 13 -41 -2 -26 -16
16 -77 15 -107 -2 -13 -7 -30 -24 -37 -37 l-13 -24 -1 31 c-1 110 94 172 161
105z m264 19 c4 -6 -1 -7 -12 -3 -17 6 -17 5 -2 -13 30 -36 32 -49 3 -19 -17
18 -25 33 -19 37 14 10 23 10 30 -2z m1756 -13 c27 -18 35 -30 37 -60 l3 -37
-63 2 c-35 1 -79 -2 -98 -6 l-35 -7 31 15 c32 14 44 39 44 89 0 22 5 27 24 27
12 0 38 -10 57 -23z m-528 -62 c-2 -37 -1 -38 6 -10 6 20 9 24 10 10 0 -11 -2
-31 -6 -43 -4 -18 -8 -20 -14 -10 -6 9 -9 2 -9 -20 0 -30 -2 -32 -30 -30 -33
2 -35 9 -21 88 l8 45 2 -59 c1 -74 10 -69 16 10 2 32 4 59 5 59 0 1 8 1 18 1
14 0 17 -8 15 -41z m77 25 c0 -5 -4 -10 -9 -10 -5 0 -16 -3 -24 -6 -8 -3 -17
2 -20 10 -5 12 1 16 23 16 17 0 30 -4 30 -10z m-1870 -8 c0 -4 -13 -29 -29
-54 -16 -25 -35 -56 -42 -69 -11 -22 -11 -23 4 -10 10 7 17 10 17 6 0 -5 9 0
20 10 28 25 25 43 -2 19 -20 -16 -19 -15 2 9 14 16 24 29 22 30 -2 1 4 18 12
37 12 29 16 32 22 17 4 -13 0 -23 -15 -33 -12 -9 -19 -20 -15 -25 3 -6 12 -5
22 3 32 27 -6 -26 -67 -92 -48 -52 -60 -61 -61 -44 0 36 38 149 61 178 19 25
49 36 49 18z m417 -39 c-3 -10 -5 -4 -5 12 0 17 2 24 5 18 2 -7 2 -21 0 -30z
m107 11 c9 -24 7 -114 -2 -114 -5 0 -7 26 -5 58 l3 57 -13 -55 c-7 -30 -16
-60 -20 -66 -4 -7 0 -14 7 -17 8 -3 17 -1 20 6 3 7 5 6 5 -3 0 -8 -8 -35 -19
-60 -21 -51 -22 -49 -43 60 -13 65 -13 79 0 103 7 15 18 25 23 22 6 -3 7 1 4
9 -4 11 0 16 14 16 11 0 23 -7 26 -16z m1459 -32 l28 -26 -35 -18 c-19 -10
-38 -22 -41 -28 -7 -11 -57 -13 -92 -4 -43 12 -23 76 30 100 40 17 74 10 110
-24z m-1714 -15 c18 -22 -28 -145 -49 -132 -6 4 -10 -5 -10 -19 0 -30 -30 -96
-43 -96 -13 0 -2 166 13 206 18 49 64 70 89 41z m2001 -37 c0 -5 -12 -12 -27
-16 -80 -16 -213 -84 -213 -108 0 -5 8 -2 18 7 25 23 149 80 164 75 6 -2 -32
-25 -85 -51 -53 -26 -97 -52 -97 -57 0 -6 27 3 59 20 57 28 174 62 255 74 55
7 33 -8 -39 -29 -73 -21 -247 -86 -242 -91 2 -2 27 3 56 12 29 8 55 13 58 10
3 -2 -33 -16 -78 -31 -140 -43 -167 -68 -48 -44 30 6 108 14 174 19 l120 9
-125 -5 c-69 -2 -141 -7 -160 -10 -19 -3 19 14 85 36 112 39 125 42 202 37 71
-4 90 -9 133 -37 27 -18 50 -34 50 -37 0 -2 -20 -1 -44 2 -25 4 -46 3 -50 -3
-3 -5 20 -12 55 -15 75 -8 101 -22 165 -89 62 -64 74 -93 44 -103 -23 -7 -49
-58 -51 -97 -1 -17 -3 -14 -11 12 -7 24 -6 36 1 38 6 2 0 13 -13 23 -15 12
-23 26 -19 34 3 8 -1 15 -7 15 -18 0 -80 49 -80 62 0 19 32 48 52 48 10 0 18
5 18 10 0 15 -33 12 -57 -5 -13 -9 -28 -34 -34 -56 -10 -32 -14 -37 -22 -24
-5 9 -6 23 -3 32 6 14 4 14 -10 2 -14 -12 -19 -10 -38 14 -20 25 -46 36 -46
20 0 -5 9 -23 20 -41 25 -40 25 -42 0 -42 -21 0 -70 -44 -70 -62 0 -6 14 2 31
16 17 14 41 26 54 26 23 0 135 -92 135 -112 0 -5 -5 -6 -11 -3 -20 13 -76 -6
-106 -35 -25 -25 -32 -27 -37 -14 -3 8 -10 13 -15 9 -5 -3 -13 0 -17 6 -5 8
-3 9 6 4 9 -5 10 -2 5 14 -4 14 0 32 10 49 15 26 15 25 -12 -4 -23 -24 -32
-28 -41 -18 -18 20 -14 28 6 13 15 -11 15 -11 4 1 -7 8 -16 15 -21 15 -13 0
-68 69 -80 100 l-11 30 4 -30 c2 -16 7 -39 11 -50 7 -16 6 -18 -6 -7 -7 6 -26
12 -41 12 -33 0 -88 -26 -88 -41 0 -5 13 -3 30 6 58 30 81 16 139 -83 30 -51
30 -53 9 -46 -37 13 -91 5 -120 -16 l-27 -20 -18 32 c-9 18 -16 40 -15 48 1 8
-11 0 -27 -19 l-30 -34 -5 34 c-21 135 -27 163 -34 168 -5 3 -22 30 -38 60
-16 30 -49 75 -72 100 l-44 46 32 -45 c106 -149 119 -178 120 -279 l0 -43 -32
33 c-41 44 -46 25 -13 -42 22 -42 24 -51 10 -45 -48 18 -65 16 -123 -13 -58
-29 -61 -33 -67 -76 -4 -25 -11 -43 -15 -40 -4 3 -4 22 1 42 11 49 11 55 -1
48 -5 -3 -10 -17 -10 -30 0 -13 -4 -27 -10 -30 -5 -3 -8 0 -6 7 3 7 7 33 10
58 6 41 5 43 -9 26 -8 -11 -15 -30 -15 -44 0 -13 -4 -20 -10 -17 -6 3 -8 23
-6 43 2 20 1 29 -1 20 -7 -28 -23 -21 -23 10 0 16 16 55 36 88 l35 59 -30 -29
c-16 -15 -35 -42 -42 -58 l-12 -30 -22 43 -22 43 23 18 c12 10 34 43 48 73 27
57 61 87 123 110 29 10 33 14 15 14 -24 1 -76 -22 -103 -45 -14 -12 -15 -10
-11 17 3 22 1 30 -7 25 -6 -4 -11 -11 -11 -16 0 -15 -42 -122 -46 -117 -2 2 5
30 16 62 26 76 25 106 -5 195 l-25 73 50 -6 c28 -3 50 -4 50 -2 0 10 -74 35
-104 36 -31 0 -31 0 -6 10 18 8 41 7 80 -2 30 -8 62 -13 70 -12 7 1 26 -5 42
-13 15 -8 50 -14 79 -14 72 0 57 -8 -32 -19 l-74 -8 72 -2 c67 -1 77 2 160 46
48 26 104 52 123 59 42 16 110 18 110 4z m-258 -26 c-12 -8 -28 -13 -35 -11
-7 3 -1 9 13 15 37 16 47 14 22 -4z m358 -4 c0 -5 -15 -10 -34 -10 -19 0 -43
-3 -53 -6 -16 -5 -16 -4 1 10 22 18 86 22 86 6z m-762 -43 c7 -7 21 -50 33
-96 22 -81 22 -83 4 -159 -29 -125 -42 -137 -75 -72 -37 73 -65 263 -42 296 8
12 54 44 63 44 4 0 11 -6 17 -13z m810 -37 l22 -30 -32 8 c-18 4 -67 7 -108 6
l-75 -1 70 23 c93 29 98 29 123 -6z m125 -291 c5 -20 5 -20 -14 -3 -23 20 -28
54 -5 35 8 -6 16 -21 19 -32z m47 -41 c0 -6 -7 -5 -15 2 -8 7 -15 17 -15 22 0
6 7 5 15 -2 8 -7 15 -17 15 -22z m17 -40 c-3 -8 -6 -5 -6 6 -1 11 2 17 5 13 3
-3 4 -12 1 -19z m208 -191 c13 -40 26 -94 30 -122 l7 -50 -30 60 c-16 33 -47
83 -69 110 -48 61 -60 81 -45 71 7 -4 12 -2 12 4 0 6 5 8 11 5 6 -4 8 -14 5
-22 -7 -16 10 -43 25 -43 18 0 8 27 -22 60 -17 19 -27 28 -23 20 4 -8 4 -12
-1 -8 -13 13 -16 68 -4 90 10 19 14 15 45 -42 19 -34 45 -94 59 -133z m-261
119 c35 -14 36 -18 52 -107 l6 -37 -44 5 c-40 5 -47 2 -70 -26 -28 -33 -40
-25 -31 22 6 33 -4 35 -17 5 -7 -18 -8 -13 -4 17 5 28 3 37 -4 30 -6 -5 -12
-23 -15 -40 -3 -25 -4 -23 -6 11 -2 62 17 104 53 120 39 17 40 17 80 0z m-428
-84 c-4 -3 -13 3 -21 14 -8 10 -15 14 -15 9 0 -6 5 -16 11 -22 6 -6 9 -17 7
-25 -3 -8 -11 0 -22 20 -11 20 -12 32 -5 32 6 0 8 7 5 16 -13 35 8 35 26 0 11
-21 17 -41 14 -44z m274 35 c-1 -34 -17 -35 -27 -2 -10 32 -10 34 8 24 10 -5
19 -15 19 -22z m-111 -11 c15 -8 32 -26 39 -41 14 -31 16 -104 2 -125 -8 -13
-10 -13 -10 1 0 42 -79 66 -129 40 -23 -13 -25 -9 -22 39 2 23 0 23 -21 -10
-21 -32 -23 -33 -26 -13 -5 33 19 74 57 100 39 26 70 29 110 9z m-313 -48 c26
-40 45 -118 29 -118 -5 0 -16 7 -25 15 -28 25 -72 28 -107 6 -18 -12 -33 -28
-33 -36 0 -23 -16 -18 -34 10 -15 23 -15 29 0 81 13 46 21 58 47 69 18 8 47
14 64 15 28 0 37 -7 59 -42z m116 -40 c-7 -30 -18 -20 -19 18 -1 31 1 33 12
18 7 -10 10 -26 7 -36z m501 -103 c18 -71 36 -316 22 -303 -4 4 -20 43 -35 88
-16 44 -40 106 -54 138 -23 49 -23 54 -6 32 l21 -25 -15 38 c-9 21 -11 35 -5
31 8 -4 9 2 4 17 -5 18 -4 21 4 9 6 -8 8 -24 5 -35 -4 -17 -3 -18 6 -5 10 12
11 11 7 -8 -3 -12 -1 -20 3 -17 5 3 11 -5 13 -17 4 -21 4 -21 6 -2 0 11 -10
41 -22 67 -17 33 -21 49 -13 57 24 24 41 4 59 -65z m-536 33 c-3 -7 -5 -2 -5
12 0 14 2 19 5 13 2 -7 2 -19 0 -25z m403 -14 c0 -13 -4 -24 -10 -24 -5 0 -10
14 -10 31 0 17 4 28 10 24 6 -3 10 -17 10 -31z m-353 -6 c-3 -7 -5 -2 -5 12 0
14 2 19 5 13 2 -7 2 -19 0 -25z m28 -33 c-8 -27 -14 -41 -14 -29 -1 21 19 88
24 82 2 -2 -3 -25 -10 -53z m286 33 c11 -21 11 -22 -4 -9 -10 7 -17 17 -17 22
0 15 9 10 21 -13z m-317 -67 c7 -10 4 -11 -14 -1 -16 8 -20 18 -16 33 3 12 6
29 7 37 1 8 4 -1 8 -20 4 -20 11 -42 15 -49z m-143 45 c14 -30 -18 -164 -61
-250 l-30 -61 3 91 c2 61 8 99 18 115 9 13 19 37 23 53 6 23 9 27 17 15 6 -10
9 -7 9 15 0 23 -3 26 -14 17 -11 -9 -15 -9 -19 1 -2 7 -11 -3 -19 -22 -11 -26
-16 -30 -20 -18 -9 21 34 68 62 68 12 0 25 -10 31 -24z m319 -2 c14 -35 13
-200 -1 -285 -12 -72 -29 -93 -29 -36 0 42 -24 133 -56 213 -23 58 -24 66 -10
80 14 14 15 12 11 -18 -5 -27 -4 -30 5 -13 8 16 9 14 5 -15 -4 -25 -2 -31 5
-20 8 12 10 13 10 1 0 -8 2 -12 5 -9 3 2 -1 28 -9 56 -14 57 -8 72 31 72 16 0
27 -8 33 -26z m-403 -96 c-3 -7 -5 -2 -5 12 0 14 2 19 5 13 2 -7 2 -19 0 -25z"/>
<path d="M5535 8613 c-27 -2 -54 -8 -59 -13 -4 -5 18 -6 52 -3 85 8 146 -4
183 -34 35 -30 63 -19 30 12 -32 28 -123 45 -206 38z"/>
<path d="M6201 8458 c-1 -9 -11 -18 -23 -20 -28 -4 -34 -27 -14 -53 13 -17 18
-18 35 -7 20 12 21 10 22 -60 0 -40 5 -95 9 -123 7 -36 8 -16 4 70 -2 66 -11
140 -19 165 -7 25 -14 37 -14 28z"/>
<path d="M5349 8412 c31 -108 134 -192 235 -192 40 0 97 18 126 40 39 29 18
33 -51 10 -73 -25 -112 -21 -176 16 -43 25 -93 80 -114 127 -16 36 -30 35 -20
-1z"/>
<path d="M5331 8392 c6 -18 15 -35 20 -38 5 -3 4 7 -3 23 -17 41 -30 53 -17
15z"/>
<path d="M5844 8284 c-28 -57 -49 -104 -48 -104 14 0 112 197 102 205 -2 1
-26 -45 -54 -101z"/>
<path d="M5882 8294 c-18 -37 -31 -68 -29 -71 3 -2 19 26 37 63 17 36 29 68
28 70 -2 2 -19 -26 -36 -62z"/>
<path d="M5314 8325 c21 -87 100 -136 229 -143 94 -5 148 9 196 49 40 33 14
34 -50 1 -52 -27 -73 -32 -131 -32 -104 0 -154 26 -221 115 -29 39 -29 39 -23
10z"/>
<path d="M5904 8269 c-14 -28 -23 -53 -20 -56 5 -5 17 15 39 70 23 54 12 46
-19 -14z"/>
<path d="M6030 8090 c-8 -5 -10 -10 -5 -10 6 0 17 5 25 10 8 5 11 10 5 10 -5
0 -17 -5 -25 -10z"/>
<path d="M5990 8073 c-50 -19 -377 -167 -385 -175 -11 -11 20 3 227 96 81 36
152 66 157 66 6 0 13 5 16 10 7 11 7 11 -15 3z"/>
<path d="M5983 7895 c-23 -60 -22 -72 2 -25 24 46 35 80 27 80 -4 0 -17 -25
-29 -55z"/>
<path d="M6186 7834 c-3 -11 -22 -47 -41 -79 -37 -60 -42 -87 -7 -38 31 45 64
113 59 126 -2 7 -7 3 -11 -9z"/>
<path d="M6131 7786 c-12 -28 -32 -64 -46 -82 l-24 -31 25 -12 c21 -9 28 -8
49 13 23 23 70 106 60 106 -3 0 -22 -25 -42 -56 -21 -31 -39 -51 -41 -45 -3 9
-8 8 -20 -1 -15 -11 -14 -10 1 12 32 46 68 121 64 133 -2 7 -14 -10 -26 -37z"/>
<path d="M4759 7652 c13 -23 129 -137 135 -131 2 2 -29 36 -70 76 -41 39 -70
64 -65 55z"/>
<path d="M4761 7610 c35 -44 88 -89 186 -159 26 -19 41 -26 33 -17 -8 10 -41
36 -75 58 -33 23 -87 68 -120 102 -47 49 -52 52 -24 16z"/>
<path d="M4502 7137 c-18 -21 -52 -117 -42 -117 13 0 70 119 60 125 -4 3 -12
-1 -18 -8z"/>
<path d="M3630 6023 c0 -5 5 -15 10 -23 8 -12 10 -11 10 8 0 12 -4 22 -10 22
-5 0 -10 -3 -10 -7z"/>
<path d="M3337 5413 c-35 -25 -47 -43 -29 -43 13 0 77 58 71 64 -3 3 -22 -6
-42 -21z"/>
<path d="M5197 7133 c-31 -26 -55 -48 -53 -51 5 -4 126 87 126 94 0 11 -21 -2
-73 -43z"/>
<path d="M3977 7112 c42 -36 93 -65 93 -54 0 11 -100 82 -115 82 -6 -1 4 -13
22 -28z"/>
<path d="M3189 6895 c41 -20 76 -33 79 -31 6 7 -115 66 -135 66 -10 -1 15 -16
56 -35z"/>
<path d="M3458 6863 c-61 -32 -114 -65 -116 -73 -4 -12 0 -11 20 2 15 10 70
40 125 69 108 57 111 59 95 59 -6 0 -62 -26 -124 -57z"/>
<path d="M2555 6754 c-126 -74 -201 -127 -127 -90 43 22 41 13 -3 -14 -19 -12
-35 -26 -35 -31 0 -5 68 36 150 91 83 56 150 106 150 111 0 5 -1 9 -2 9 -2 0
-61 -34 -133 -76z"/>
<path d="M2250 6703 c-14 -3 -29 -9 -35 -15 -7 -7 0 -9 24 -4 18 3 54 6 80 7
35 0 41 2 26 9 -21 9 -54 10 -95 3z"/>
<path d="M2183 6618 c-2 -5 31 -7 74 -7 82 2 75 6 -15 11 -30 2 -56 0 -59 -4z"/>
<path d="M5019 6953 c-83 -86 -139 -153 -139 -167 0 -4 14 10 32 31 17 21 72
80 122 131 50 50 86 92 80 92 -6 0 -49 -39 -95 -87z"/>
<path d="M4655 6624 c-19 -26 -35 -52 -35 -58 1 -15 79 76 80 92 0 20 -7 14
-45 -34z"/>
<path d="M4617 6241 c-41 -74 -105 -156 -205 -261 -49 -52 -88 -97 -86 -99 7
-8 132 118 194 195 65 82 133 189 128 204 -2 5 -15 -12 -31 -39z"/>
<path d="M4229 6068 c-95 -118 -212 -252 -308 -352 -42 -43 -66 -73 -54 -67
38 19 298 314 417 474 54 72 19 36 -55 -55z"/>
<path d="M2164 6784 c-12 -17 -19 -21 -24 -13 -7 11 -73 -67 -100 -119 -25
-50 -1 -29 45 38 26 39 50 69 53 66 2 -3 -16 -38 -42 -77 -40 -64 -62 -111
-38 -83 8 8 107 168 126 202 13 23 -3 12 -20 -14z"/>
<path d="M1925 6528 c-91 -54 -202 -137 -240 -178 l-30 -34 35 28 c109 86 195
147 254 180 36 20 66 39 66 41 0 11 -19 3 -85 -37z"/>
<path d="M1900 6468 c-143 -96 -240 -168 -240 -180 0 -5 26 11 58 35 31 24
109 79 172 122 127 86 139 95 125 94 -6 0 -57 -32 -115 -71z"/>
<path d="M3232 6665 c-63 -72 -125 -155 -120 -160 7 -7 135 146 162 193 15 25
-3 11 -42 -33z"/>
<path d="M2455 6059 c-49 -33 -107 -65 -130 -71 -53 -15 -72 -33 -25 -24 53 9
152 63 206 111 27 24 47 44 44 44 -3 0 -45 -27 -95 -60z"/>
<path d="M2555 6033 c-66 -40 -175 -89 -245 -109 l-45 -14 48 4 c51 4 228 85
282 130 42 35 30 32 -40 -11z"/>
<path d="M2420 5864 c-30 -19 -94 -47 -142 -62 -49 -15 -88 -30 -88 -35 0 -5
8 -6 18 -3 9 2 33 7 52 11 48 9 191 79 214 104 27 29 10 25 -54 -15z"/>
<path d="M3300 6362 c0 -4 32 -14 70 -23 71 -16 101 -7 33 10 -65 16 -103 21
-103 13z"/>
<path d="M1836 5564 c-77 -59 -171 -113 -323 -186 -122 -60 -153 -81 -77 -54
120 42 360 178 439 249 56 51 31 45 -39 -9z"/>
<path d="M1725 5544 c-27 -19 -108 -65 -180 -101 -71 -36 -116 -62 -100 -58
65 14 345 168 345 190 0 11 -17 3 -65 -31z"/>
<path d="M2045 5550 c-4 -6 -35 -32 -69 -58 -34 -26 -62 -50 -62 -53 1 -4 -8
-16 -18 -28 -11 -12 -16 -21 -12 -21 12 0 156 131 167 152 10 19 5 26 -6 8z"/>
<path d="M1625 5378 c-27 -17 -92 -51 -143 -76 -51 -25 -91 -47 -89 -49 13
-13 252 108 292 148 19 19 -11 8 -60 -23z"/>
<path d="M1510 5240 c-19 -11 -56 -26 -82 -35 -27 -9 -48 -20 -48 -25 0 -19
159 44 175 70 9 15 -6 12 -45 -10z"/>
<path d="M5050 6131 c0 -12 75 -34 98 -28 13 3 12 6 -8 14 -44 18 -90 25 -90
14z"/>
<path d="M5030 6083 c1 -13 190 -94 229 -99 41 -5 51 -11 -110 62 -94 44 -119
51 -119 37z"/>
<path d="M5050 6032 c0 -11 152 -82 176 -82 10 0 15 3 11 6 -5 5 -85 42 -174
81 -7 3 -13 1 -13 -5z"/>
<path d="M1521 6042 c-68 -149 -211 -632 -256 -865 -14 -72 -23 -133 -20 -135
7 -7 12 13 29 103 50 269 138 556 291 948 4 9 3 17 -2 17 -6 0 -24 -31 -42
-68z"/>
<path d="M1351 5768 c-19 -45 -76 -215 -111 -333 -11 -38 -23 -79 -27 -90 -3
-11 -2 -17 2 -13 9 8 165 478 159 478 -3 0 -13 -19 -23 -42z"/>
<path d="M1345 5593 c-70 -221 -73 -231 -94 -322 -21 -88 -21 -125 0 -49 6 23
42 148 80 277 38 129 68 236 65 238 -2 2 -25 -63 -51 -144z"/>
<path d="M1090 5431 c-20 -41 -70 -165 -70 -176 0 -9 55 -5 70 6 12 8 7 9 -17
6 -18 -2 -33 0 -33 3 0 13 60 153 71 166 6 7 9 19 7 26 -3 7 -15 -7 -28 -31z"/>
<path d="M1062 5223 c-30 -2 -50 -8 -47 -14 9 -13 65 -10 100 6 17 7 23 13 15
12 -8 0 -39 -2 -68 -4z"/>
<path d="M1120 5165 c-43 -16 -105 -19 -131 -5 -11 7 -19 7 -19 1 0 -5 15 -14
33 -20 38 -13 122 0 153 24 23 18 10 18 -36 0z"/>
<path d="M943 5107 c2 -7 22 -18 44 -26 34 -12 50 -13 97 -2 31 7 59 17 62 23
5 8 1 9 -12 4 -43 -17 -131 -19 -164 -3 -21 11 -30 12 -27 4z"/>
<path d="M939 5001 c22 -31 88 -77 97 -68 3 2 -11 15 -30 27 -20 12 -44 32
-55 46 -27 34 -37 30 -12 -5z"/>
<path d="M3560 5240 c0 -6 26 -43 58 -83 31 -40 65 -84 75 -97 10 -14 15 -18
11 -10 -5 12 -4 13 6 3 7 -7 28 -43 46 -80 18 -38 33 -59 33 -48 1 11 -22 65
-50 120 -55 109 -76 138 -65 91 6 -24 -4 -16 -49 42 -56 72 -65 81 -65 62z"/>
<path d="M3754 5088 c19 -35 40 -83 47 -108 7 -27 14 -38 16 -27 6 25 -15 83
-51 145 -43 74 -54 65 -12 -10z"/>
<path d="M4231 5060 c-12 -45 -37 -124 -56 -178 -18 -53 -32 -99 -30 -101 7
-6 41 78 78 195 43 135 50 164 39 164 -5 0 -19 -36 -31 -80z"/>
<path d="M4116 4995 c-11 -58 -48 -185 -54 -185 -9 0 -106 62 -144 92 -21 16
-38 25 -38 20 0 -14 64 -63 133 -102 l57 -32 15 36 c25 58 47 154 43 184 -4
24 -5 22 -12 -13z"/>
<path d="M3951 4904 c28 -30 88 -68 95 -61 3 2 -10 14 -29 26 -18 11 -42 29
-52 41 -10 11 -23 20 -28 20 -6 0 0 -12 14 -26z"/>
<path d="M4515 5040 c-27 -38 -55 -70 -60 -70 -6 0 -19 -15 -29 -32 l-17 -33
21 25 c13 14 28 24 34 23 10 -2 116 136 116 151 0 18 -20 -2 -65 -64z"/>
<path d="M4367 5003 c-11 -19 -19 -78 -9 -68 11 11 27 75 18 75 -2 0 -7 -3 -9
-7z"/>
<path d="M1676 4948 c4 -18 10 -49 14 -68 8 -35 8 -35 9 -5 1 44 -10 105 -20
105 -5 0 -6 -15 -3 -32z"/>
<path d="M1645 4950 c3 -14 8 -49 11 -78 4 -29 11 -55 17 -59 13 -8 -2 94 -19
132 -12 26 -14 27 -9 5z"/>
<path d="M4877 4973 c8 -32 13 -75 10 -95 -6 -41 7 -52 17 -15 9 35 7 59 -9
115 -21 71 -37 66 -18 -5z"/>
<path d="M4791 4882 c-1 -7 -10 -32 -21 -54 -24 -50 -24 -54 -6 -38 18 14 39
76 33 93 -4 9 -6 9 -6 -1z"/>
<path d="M4450 4797 c-36 -29 -105 -84 -155 -121 -102 -78 -107 -82 -82 -73
38 14 326 245 307 247 -3 0 -35 -24 -70 -53z"/>
<path d="M4414 4714 c-112 -81 -184 -138 -184 -146 0 -8 256 178 266 193 10
17 -4 9 -82 -47z"/>
<path d="M3671 4834 c0 -11 148 -121 174 -130 26 -9 15 2 -60 58 -81 61 -115
82 -114 72z"/>
<path d="M3204 4685 c-91 -63 -171 -131 -164 -138 3 -3 35 19 70 49 36 31 91
74 123 95 49 35 66 49 54 49 -2 0 -39 -25 -83 -55z"/>
<path d="M3710 4709 c43 -34 67 -42 30 -9 -19 16 -39 30 -45 30 -5 0 1 -9 15
-21z"/>
<path d="M3325 4664 c-87 -58 -215 -157 -215 -166 0 -5 6 -5 13 -1 26 16 247
186 247 189 0 7 -5 5 -45 -22z"/>
<path d="M3725 4523 c26 -25 201 -77 211 -62 3 5 -4 9 -14 9 -16 0 -112 29
-187 56 -13 4 -17 4 -10 -3z"/>
<path d="M1361 4950 c-24 -11 -42 -22 -39 -25 5 -5 128 34 128 41 0 11 -50 2
-89 -16z"/>
<path d="M1247 4770 c3 -36 10 -72 15 -80 5 -9 6 8 2 45 -9 84 -24 115 -17 35z"/>
<path d="M1294 4753 c3 -21 6 -78 6 -126 0 -56 4 -86 10 -82 20 12 8 245 -13
245 -6 0 -7 -15 -3 -37z"/>
<path d="M1346 4639 c-6 -46 -3 -70 8 -58 8 9 14 109 7 109 -5 0 -11 -23 -15
-51z"/>
<path d="M1435 4498 c-59 -33 -96 -60 -91 -65 5 -5 72 31 121 64 25 17 -1 18
-30 1z"/>
<path d="M770 4610 c-23 -44 -90 -176 -98 -194 -3 -5 0 -6 6 -2 18 11 124 215
119 229 -2 6 -14 -8 -27 -33z"/>
<path d="M782 4548 c-79 -148 -93 -178 -83 -178 11 0 145 259 138 266 -3 3
-27 -37 -55 -88z"/>
<path d="M960 4629 c0 -6 -27 -67 -60 -136 -62 -130 -70 -152 -44 -118 42 54
133 265 114 265 -6 0 -10 -5 -10 -11z"/>
<path d="M941 4462 c-53 -93 -65 -122 -32 -81 28 36 94 159 88 165 -3 3 -28
-35 -56 -84z"/>
<path d="M5880 4191 c-43 -26 -174 -80 -205 -85 -9 -1 -15 -6 -14 -12 3 -16
31 -54 40 -54 5 0 2 11 -7 25 -9 14 -15 27 -13 29 2 2 29 11 59 21 67 22 137
56 170 84 34 27 24 25 -30 -8z"/>
<path d="M5390 3836 c0 -12 29 -76 35 -76 3 0 -2 17 -10 37 -16 38 -25 52 -25
39z"/>
<path d="M2568 4274 c13 -24 40 -49 47 -42 3 2 -9 18 -26 34 -24 22 -29 24
-21 8z"/>
<path d="M2539 4052 c11 -16 28 -35 38 -43 10 -8 3 5 -16 29 -37 47 -53 58
-22 14z"/>
<path d="M571 3716 c7 -15 15 -23 17 -16 3 7 -3 19 -13 28 -15 16 -16 15 -4
-12z"/>
<path d="M2193 3966 c-1 -60 2 -81 7 -61 10 40 12 143 3 148 -5 3 -9 -36 -10
-87z"/>
<path d="M2831 3974 c0 -11 3 -14 6 -6 3 7 2 16 -1 19 -3 4 -6 -2 -5 -13z"/>
<path d="M2500 3832 c0 -5 14 -21 32 -38 l31 -29 -28 38 c-28 38 -35 44 -35
29z"/>
<path d="M3766 3861 c-4 -5 -2 -12 3 -15 5 -4 12 -2 15 3 4 5 2 12 -3 15 -5 4
-12 2 -15 -3z"/>
<path d="M932 3520 c0 -14 2 -19 5 -12 2 6 2 18 0 25 -3 6 -5 1 -5 -13z"/>
<path d="M671 3449 c-12 -35 -21 -68 -20 -73 0 -6 11 20 25 58 13 38 22 71 20
73 -2 2 -13 -24 -25 -58z"/>
<path d="M691 3439 c-6 -18 -11 -37 -10 -43 0 -6 7 7 15 28 8 22 12 41 10 43
-2 2 -9 -10 -15 -28z"/>
<path d="M2140 3356 c0 -22 43 -135 50 -131 4 3 6 14 3 24 -4 16 3 22 37 31
24 6 46 8 50 3 58 -69 131 -165 144 -190 18 -35 30 -45 19 -15 -11 29 -48 84
-102 152 -49 60 -51 65 -32 72 12 4 21 9 21 12 0 5 -24 0 -94 -20 -55 -15 -66
-9 -61 33 1 13 0 21 -3 18 -3 -2 -11 0 -19 6 -7 6 -13 8 -13 5z"/>
<path d="M2257 3340 c-32 -4 -60 -10 -63 -13 -9 -8 177 4 201 14 25 10 -57 9
-138 -1z"/>
<path d="M2564 3215 c-18 -15 -18 -15 7 -9 21 4 30 0 43 -17 19 -28 12 -33
-51 -44 -24 -4 -45 -10 -47 -14 -3 -4 29 0 69 7 l74 15 -22 38 c-24 42 -42 48
-73 24z"/>
<path d="M2650 3205 c0 -17 26 -55 37 -55 11 0 9 8 -7 30 -20 28 -30 36 -30
25z"/>
<path d="M2360 3156 c0 -4 7 -23 15 -43 22 -52 20 -65 -10 -57 -30 7 -75 -2
-75 -16 0 -6 22 -10 48 -10 27 0 52 -3 56 -7 8 -9 46 -12 46 -3 0 3 -4 10 -8
16 -5 5 -14 27 -20 50 -10 34 -52 91 -52 70z"/>
<path d="M2216 2971 c-11 -17 13 -80 34 -91 29 -15 35 -12 16 9 -10 11 -24 36
-31 57 -7 21 -15 32 -19 25z"/>
<path d="M2310 2788 c0 -24 -3 -29 -10 -18 -10 16 -12 15 -26 -20 -16 -37 -8
-51 22 -38 21 10 24 18 24 60 0 26 -2 48 -5 48 -3 0 -5 -15 -5 -32z"/>
<path d="M2681 2674 c1 -30 37 -165 38 -144 1 29 -24 138 -33 147 -3 4 -6 2
-5 -3z"/>
</g>
</svg>
