<?xml version="1.0" standalone="no"?>
<!DOCTYPE svg PUBLIC "-//W3C//DTD SVG 20010904//EN"
 "http://www.w3.org/TR/2001/REC-SVG-20010904/DTD/svg10.dtd">
<svg version="1.0" xmlns="http://www.w3.org/2000/svg"
 width="612.000000pt" height="612.000000pt" viewBox="0 0 612.000000 612.000000"
 preserveAspectRatio="xMidYMid meet">

<g transform="translate(0.000000,612.000000) scale(0.100000,-0.100000)"
fill="#000000" stroke="none">
<path d="M4095 4680 c-96 -34 -209 -91 -291 -145 -200 -134 -282 -293 -334
-652 -34 -240 -59 -346 -100 -438 -52 -117 -106 -160 -296 -235 -397 -158
-641 -369 -737 -635 -48 -137 -58 -271 -44 -600 l7 -180 -68 71 c-145 152
-190 310 -142 500 31 122 113 276 289 544 251 381 301 493 309 690 4 105 2
122 -23 195 -82 246 -308 415 -575 432 -98 6 -195 -11 -280 -50 -80 -36 -176
-111 -210 -164 -61 -96 -29 -189 63 -187 46 0 82 16 167 70 198 126 443 54
551 -164 31 -62 33 -74 33 -162 -1 -176 -69 -325 -345 -750 -271 -419 -308
-574 -209 -883 67 -211 215 -391 382 -466 108 -49 134 -51 674 -51 562 0 528
-5 505 69 -14 49 -52 86 -103 103 l-41 14 49 32 c58 39 88 48 122 36 45 -16
63 -61 87 -217 l6 -37 170 0 c144 0 171 2 176 16 6 18 -35 65 -84 96 l-33 20
0 101 c0 260 65 456 244 742 107 169 166 286 198 386 19 62 23 95 23 209 -1
160 -20 262 -95 490 -28 83 -50 155 -50 160 0 22 54 34 177 40 123 6 135 8
179 36 26 16 62 51 80 77 l33 48 -25 67 c-14 37 -39 117 -55 177 -17 61 -42
136 -56 167 -30 67 -102 139 -157 158 -60 20 -74 100 -35 205 16 44 18 59 9
70 -17 20 -83 18 -145 -5z"/>
</g>
</svg>
