<?xml version="1.0" standalone="no"?>
<!DOCTYPE svg PUBLIC "-//W3C//DTD SVG 20010904//EN"
 "http://www.w3.org/TR/2001/REC-SVG-20010904/DTD/svg10.dtd">
<svg version="1.0" xmlns="http://www.w3.org/2000/svg"
 width="736.000000pt" height="736.000000pt" viewBox="0 0 736.000000 736.000000"
 preserveAspectRatio="xMidYMid meet">

<g transform="translate(0.000000,736.000000) scale(0.100000,-0.100000)"
fill="#000000" stroke="none">
<path d="M2865 6488 c-291 -72 -643 -404 -832 -788 -42 -86 -93 -219 -93 -245
0 -12 -4 -25 -9 -30 -23 -25 -37 -281 -21 -385 39 -257 132 -466 280 -629 40
-45 161 -141 177 -141 7 0 13 -3 13 -7 0 -5 21 -16 48 -26 26 -11 56 -22 67
-27 79 -30 235 -40 304 -19 20 6 52 15 71 21 78 23 178 81 247 143 63 57 157
172 189 230 6 11 16 29 22 40 54 100 83 187 122 375 20 97 3 696 -24 820 -1 8
-6 38 -11 65 -4 28 -14 75 -22 105 -8 30 -17 66 -20 80 -3 14 -9 30 -13 35 -4
6 -10 24 -14 40 -14 56 -80 178 -125 227 -98 110 -220 149 -356 116z"/>
<path d="M4277 6480 c-89 -34 -130 -68 -191 -160 -60 -90 -101 -192 -131 -330
-9 -41 -20 -89 -26 -106 -5 -17 -9 -46 -9 -65 0 -19 -4 -49 -9 -67 -6 -18 -15
-147 -21 -286 -12 -275 -3 -457 26 -562 9 -33 19 -71 21 -87 3 -15 9 -30 14
-33 5 -3 9 -12 9 -21 0 -29 92 -205 143 -271 89 -119 183 -198 293 -247 85
-39 93 -42 154 -55 77 -17 281 -2 296 21 3 5 12 9 20 9 15 0 119 46 139 62 85
66 140 116 179 161 58 68 136 196 165 273 13 33 26 68 31 79 55 139 77 425 45
585 -18 90 -35 151 -47 165 -4 5 -8 15 -8 22 0 38 -162 334 -224 410 -8 10
-48 59 -89 108 -200 244 -486 418 -680 414 -29 0 -74 -9 -100 -19z"/>
<path d="M1295 4841 c-78 -21 -163 -74 -218 -136 -72 -81 -153 -227 -192 -346
-15 -46 -31 -93 -35 -104 -14 -35 -38 -177 -51 -294 -12 -115 -5 -234 23 -366
36 -172 110 -311 263 -492 45 -54 159 -142 250 -193 70 -40 250 -90 320 -90
68 0 252 52 290 82 6 5 33 26 61 48 52 40 89 83 134 155 38 61 49 89 91 225
18 57 19 357 2 415 -6 22 -19 67 -28 100 -21 77 -33 104 -119 285 -50 105
-181 327 -206 350 -3 3 -19 23 -35 45 -91 122 -234 246 -337 293 -52 24 -165
36 -213 23z"/>
<path d="M5905 4841 c-179 -48 -356 -217 -539 -515 -68 -112 -160 -298 -195
-396 -7 -19 -17 -44 -21 -55 -15 -35 -38 -147 -51 -247 -13 -103 -5 -198 28
-335 49 -207 211 -388 393 -441 67 -20 130 -32 163 -32 82 0 276 53 328 91 15
10 30 19 33 19 4 0 33 19 64 41 74 54 174 151 220 214 20 28 39 52 42 55 25
24 112 208 134 285 10 33 23 78 29 100 16 54 16 416 0 470 -6 22 -19 74 -28
115 -66 302 -220 535 -410 618 -36 17 -149 24 -190 13z"/>
<path d="M3569 4106 c-2 -2 -40 -9 -84 -15 -71 -10 -159 -35 -220 -61 -83 -36
-110 -50 -185 -98 -112 -72 -261 -223 -324 -327 -102 -169 -208 -318 -305
-430 -53 -61 -209 -212 -276 -267 -98 -82 -234 -218 -290 -293 -70 -94 -155
-246 -155 -279 0 -8 -4 -18 -10 -21 -5 -3 -10 -15 -10 -26 0 -10 -4 -27 -9
-37 -35 -67 -49 -338 -23 -437 27 -99 90 -244 119 -273 7 -7 13 -18 13 -23 0
-17 154 -171 215 -214 77 -55 200 -117 290 -145 39 -13 79 -26 90 -30 132 -49
523 -57 710 -14 39 8 81 18 95 21 14 2 34 8 45 12 42 17 161 50 248 70 62 14
283 14 344 0 45 -10 186 -50 243 -69 14 -4 48 -13 75 -20 28 -6 67 -16 88 -21
105 -28 520 -27 601 1 16 6 40 10 53 10 13 0 31 4 41 9 9 5 37 15 62 22 25 7
67 23 94 36 28 13 53 23 57 23 8 0 130 70 139 80 3 3 23 18 45 34 131 94 260
274 302 421 51 177 53 292 5 485 -22 91 -121 307 -151 330 -4 3 -15 18 -24 33
-58 91 -206 237 -352 347 -126 95 -251 213 -311 295 -16 22 -31 42 -34 45 -20
18 -65 94 -147 249 -49 93 -86 146 -163 234 -38 43 -152 137 -215 178 -53 34
-188 99 -207 99 -7 0 -18 4 -24 9 -27 24 -242 61 -360 61 -50 0 -93 -2 -95 -4z"/>
</g>
</svg>
