<?xml version="1.0" standalone="no"?>
<!DOCTYPE svg PUBLIC "-//W3C//DTD SVG 20010904//EN"
 "http://www.w3.org/TR/2001/REC-SVG-20010904/DTD/svg10.dtd">
<svg version="1.0" xmlns="http://www.w3.org/2000/svg"
 width="500.000000pt" height="500.000000pt" viewBox="0 0 500.000000 500.000000"
 preserveAspectRatio="xMidYMid meet">

<g transform="translate(0.000000,500.000000) scale(0.100000,-0.100000)"
fill="#000000" stroke="none">
<path d="M4076 4085 c-88 -22 -168 -70 -238 -141 -127 -130 -200 -279 -343
-706 l-39 -117 27 -58 c39 -84 50 -137 50 -233 0 -142 -44 -268 -139 -391
-116 -151 -504 -403 -905 -589 -555 -257 -1255 -440 -1685 -440 -228 0 -365
42 -467 142 -30 29 -59 62 -65 72 -9 19 -15 16 -78 -36 -197 -162 -231 -222
-165 -289 35 -35 51 -36 184 -8 82 17 125 20 222 16 133 -5 215 -22 215 -44 0
-24 -45 -104 -105 -188 -68 -94 -105 -168 -105 -210 1 -55 35 -112 82 -137 41
-22 55 -23 288 -26 154 -2 264 0 295 7 73 16 139 72 227 191 42 58 85 115 95
128 l18 24 105 -16 c362 -53 744 -44 1066 25 166 36 148 39 174 -26 54 -134
158 -257 258 -307 46 -22 54 -23 317 -23 l270 0 50 28 c58 32 91 76 100 132 6
33 -2 64 -48 186 -139 364 -172 571 -132 805 45 255 194 535 405 757 l86 90
53 -36 c77 -54 167 -79 276 -78 320 1 551 229 572 567 29 471 -339 923 -766
940 -64 2 -116 -1 -155 -11z m544 -605 c45 -23 80 -80 80 -130 0 -74 -76 -150
-149 -150 -77 0 -151 74 -151 150 0 48 35 107 78 129 48 26 93 26 142 1z"/>
<path d="M1841 3689 c-189 -20 -464 -98 -645 -183 -342 -160 -597 -437 -700
-762 -41 -132 -50 -192 -49 -339 0 -110 5 -155 21 -209 l20 -70 -25 -30 c-80
-95 -96 -217 -42 -325 57 -114 137 -151 337 -159 77 -3 180 1 240 8 325 37
787 158 1167 307 187 73 551 253 701 347 356 222 466 352 467 551 1 168 -97
298 -242 321 -37 6 -46 14 -95 83 -248 354 -647 513 -1155 460z"/>
</g>
</svg>
